<?xml version="1.0" standalone="no"?> <!DOCTYPE svg PUBLIC "-//W3C//DTD SVG 1.0//EN" "http://www.w3.org/TR/2001/REC-SVG-20010904/DTD/svg10.dtd" > <svg xmlns="http://www.w3.org/2000/svg" width="100%" height="100%">
<defs >
<font id="FertigoPro-Regular" horiz-adv-x="457" ><font-face
    font-family="Fertigo Pro"
    units-per-em="1000"
    panose-1="2 0 5 0 0 0 0 2 0 4"
    ascent="932"
    descent="-245"
    alphabetic="0" />
<missing-glyph horiz-adv-x="237" />
<glyph unicode=" " glyph-name="space" horiz-adv-x="237" />
<glyph unicode="!" glyph-name="exclam" horiz-adv-x="279" d="M48 737V742Q82 751 108 751Q148 751 182 734T217 689Q217 621 189 474T160 251Q160 206 178 181Q152 177 146 177Q100 177 100 244Q100 270 100 338T101 446Q101 546 86 628T48 737ZM81 26T81 51T99
94T142 113Q168 113 186 95T204 51T186 8T142 -10T99 8Z" />
<glyph unicode="&quot;" glyph-name="quotedbl" horiz-adv-x="338" d="M45 761Q57 765 88 765Q115 765 122 759T130 731Q130 711 129 673T127 620V607Q127 561 131 530Q115 526 93 526Q65 526 56 533T47 560T48 618T50 671V692Q50 728 45 761ZM204 761Q216 765
247 765Q274 765 281 759T289 731Q289 711 288 673T286 620V607Q286 561 290 530Q274 526 252 526Q224 526 215 533T206 560T207 618T209 671V692Q209 728 204 761Z" />
<glyph unicode="#" glyph-name="numbersign" horiz-adv-x="720" d="M48 205Q48 228 55 234T83 241Q102 241 141 240T202 238H208L225 383H194Q99 383 78 380Q75 395 75 413Q75 436 82 442T110 449Q129 449 168 448T229 446H232L237 489Q248 582 248 604Q261 606
276 604Q301 601 307 593T312 565Q310 547 304 508T296 446H453L458 489Q469 582 469 604Q482 606 497 604Q522 601 528 593T533 565Q531 547 525 508T517 446H556Q651 446 672 449Q675 436 675 421Q675 395 668 388T640 380Q621 380 581 381T520 383H509L493 238H529Q624
238 645 241Q648 228 648 213Q648 187 641 180T613 172Q594 172 554 173T493 175H485L478 109Q467 15 468 -7Q453 -8 435 -6Q412 -3 407 4T403 33Q405 51 411 90T420 151L422 175H264L257 109Q246 15 247 -7Q232 -8 214 -6Q191 -3 186 4T182 33Q184 51 190 90T199
151L201 175H167Q72 175 51 172Q48 187 48 205ZM272 238H429L446 383H288L272 238Z" />
<glyph unicode="$" glyph-name="dollar" horiz-adv-x="520" d="M43 42T43 69T73 141H79Q81 137 86 131T107 110T140 82T185 58T242 44V252Q206 269 191 276T146 303T103 338T78 380T66 436Q66 506 116 551T242 606Q242 689 238 717Q254 720 272 720Q295 720 295
697Q295 696 295 666T294 610Q349 608 406 591T463 544Q463 525 451 499T421 454H415Q410 463 400 477T359 519T294 555V354Q338 334 358 323T410 289T456 236T470 167Q470 94 420 48T294 -11Q294 -84 298 -109Q282 -112 264 -112Q241 -112 241 -89Q241 -88 241
-62T242 -15Q211 -14 168 -7T84 21ZM170 470Q170 417 242 379V556Q209 548 190 526T170 470ZM294 47Q367 62 367 131Q367 184 294 226V47Z" />
<glyph unicode="%" glyph-name="percent" horiz-adv-x="749" d="M31 490T31 551T76 656T181 701Q242 701 288 657T334 551T288 446T181 401Q121 401 76 445ZM90 553Q90 517 117 487T182 456Q224 456 249 486T275 553Q275 589 247 616T182 643Q144 643 117 617T90
553ZM161 91Q161 102 172 116L240 212L467 555Q517 631 528 653Q541 648 553 640Q581 620 581 607Q581 596 572 584L503 487L277 145Q227 69 216 47Q200 54 182 65Q161 79 161 91ZM406 76T406 137T451 242T556 287Q617 287 663 243T709 137T663 32T556 -13Q496
-13 451 31ZM465 139Q465 103 492 73T557 42Q599 42 624 72T650 139Q650 175 622 202T557 229Q519 229 492 203T465 139Z" />
<glyph unicode="&amp;" glyph-name="ampersand" horiz-adv-x="772" d="M43 171Q43 225 75 276T172 364Q114 456 114 531Q114 618 177 666T324 715Q417 715 465 668T513 550Q513 517 500 487T467 438T430 405T398 384L384 378L379 382Q410 443 410 528Q410 594
382 630T312 667Q268 667 242 633T216 546Q216 478 288 385T469 202Q473 209 487 235T507 269T526 300T547 331T568 356T593 380T618 396T648 408T680 412Q724 412 724 371L722 349Q715 350 702 350Q687 350 673 348T646 338T623 324T601 305T582 283T563 257T545
230T526 200T508 171Q648 64 731 44Q721 -10 663 -10Q579 -10 447 85Q363 -15 242 -15Q156 -15 100 40T43 171ZM155 202Q155 137 192 92T289 47Q354 47 410 113Q344 164 282 228Q229 281 190 335Q155 282 155 202Z" />
<glyph unicode="&apos;" glyph-name="quotesingle" horiz-adv-x="179" d="M45 761Q57 765 88 765Q115 765 122 759T130 731Q130 711 129 673T127 620V607Q127 561 131 530Q115 526 93 526Q65 526 56 533T47 560T48 618T50 671V692Q50 728 45 761Z" />
<glyph unicode="(" glyph-name="parenleft" horiz-adv-x="324" d="M57 274Q57 447 122 572T288 715L291 711Q244 670 195 550T146 274Q146 111 198 -27T296 -203L293 -207Q231 -200 177 -134T90 41T57 274Z" />
<glyph unicode=")" glyph-name="parenright" horiz-adv-x="324" d="M28 -203Q73 -165 125 -27T178 274Q178 430 129 550T33 711L36 715Q136 697 201 572T267 274Q267 150 234 41T147 -134T31 -207L28 -203Z" />
<glyph unicode="*" glyph-name="asterisk" horiz-adv-x="533" d="M37 591Q37 617 52 641Q64 643 76 643Q126 643 173 612T237 533L233 529Q163 557 91 557Q71 557 47 553Q37 570 37 591ZM46 389Q62 434 109 466T206 498Q223 498 232 496L234 490Q191 457 161 416T120
341Q73 341 46 389ZM194 722Q219 762 273 762Q309 718 309 655Q309 588 272 547L267 549Q259 603 238 649T194 722ZM225 365Q225 432 262 473L267 471Q275 417 296 371T340 298Q315 258 261 258Q225 300 225 365ZM297 487L301 490Q368 463 442 463Q471 463 487
467Q497 447 497 429Q497 406 482 379Q470 377 458 377Q407 377 360 408T297 487ZM301 529Q344 563 373 604T414 679Q461 679 488 631Q472 586 425 554T328 521Q314 521 302 524L301 529Z" />
<glyph unicode="+" glyph-name="plus" horiz-adv-x="444" d="M43 291Q43 334 66 334Q122 329 188 329V362Q188 443 183 471Q203 475 228 475Q260 475 260 461Q257 400 256 329H288Q369 329 397 334Q401 314 401 289Q401 257 387 257Q327 260 256 261V236Q256 148
260 120Q244 117 226 117Q183 117 183 140Q187 195 188 261H162Q74 261 46 257Q43 273 43 291Z" />
<glyph unicode="," glyph-name="comma" horiz-adv-x="236" d="M-6 -85L-1 -80Q16 -90 33 -90Q62 -90 81 -71T101 -23Q101 -10 93 -1T75 12T57 28T48 61Q48 89 66 107T112 125Q150 125 169 96T189 22Q189 -34 158 -76T68 -119Q44 -119 26 -111T0 -94L-6 -85Z" />
<glyph unicode="-" glyph-name="hyphen" horiz-adv-x="504" d="M73 276Q73 319 96 319Q159 314 230 314H318Q399 314 427 319Q431 299 431 274Q431 242 417 242Q356 245 284 246H192Q104 246 76 242Q73 258 73 276Z" />
<glyph unicode="." glyph-name="period" horiz-adv-x="229" d="M47 57Q47 85 67 105T114 125Q142 125 162 105T182 57Q182 30 162 10T114 -10Q87 -10 67 10T47 57Z" />
<glyph unicode="/" glyph-name="slash" horiz-adv-x="275" d="M28 -138Q28 -132 156 591Q169 671 169 700Q189 700 214 696Q243 691 243 677Q243 673 216 515T155 170T116 -53Q102 -138 101 -168Q98 -168 93 -168T76 -167T54 -163T36 -154T28 -138Z" />
<glyph unicode="0" glyph-name="zero" horiz-adv-x="602" d="M63 291Q63 435 125 522T301 610Q415 610 477 528T539 307Q539 161 477 73T301 -15Q187 -15 125 68T63 291ZM160 316Q160 206 197 135T304 64Q363 64 402 125T442 282Q442 390 405 460T296 531Q239
531 200 471T160 316Z" />
<glyph unicode="1" glyph-name="one" horiz-adv-x="452" d="M46 17Q46 40 65 42Q144 52 161 62Q169 125 169 207V472Q169 512 155 530T102 552L84 554Q55 557 51 563Q48 568 48 579L53 605Q83 600 161 600Q217 600 283 602T378 605Q385 605 390 603T397 595T400
585T401 572T402 560L376 558Q316 553 298 538T280 463V168L284 64Q310 51 392 42Q407 40 407 21L406 -5Q379 0 293 0H166Q74 0 47 -5Q46 7 46 17Z" />
<glyph unicode="2" glyph-name="two" horiz-adv-x="542" d="M37 -1Q43 32 53 48Q70 76 106 110T177 176T246 243T301 323T323 413Q323 463 297 498T210 534Q132 534 71 459L66 462Q72 531 125 570T252 610Q348 610 399 555T451 424Q451 372 426 325T360 241T278
177T196 120T137 72L139 69H140Q205 89 407 89Q470 89 485 72T508 -8Q408 0 273 0H199Q187 0 163 0T125 1Q78 1 42 -4L37 -1Z" />
<glyph unicode="3" glyph-name="three" horiz-adv-x="532" d="M48 -8L53 -3Q108 -54 189 -54Q260 -54 300 -11T340 93Q340 157 297 206T175 260Q156 260 156 270L164 299L222 308Q260 314 287 352T315 430Q315 473 287 503T201 534Q123 534 62 459L57 464Q64 529
118 569T243 610Q334 610 386 562T438 442Q438 393 402 352T313 294L314 289Q386 273 425 223T465 111Q465 20 399 -50T219 -120Q157 -120 109 -95T48 -8Z" />
<glyph unicode="4" glyph-name="four" horiz-adv-x="569" d="M18 179L288 596Q326 605 343 605Q378 605 400 589T422 543Q422 329 421 220Q459 220 487 223T524 230L532 233Q533 204 533 199Q533 186 531 177T525 161T515 150T503 143T485 140T467 139T445 139T421
139Q421 112 422 55T423 -35Q423 -74 410 -88T368 -103Q360 -103 297 -93Q310 -73 312 143Q303 143 283 143T249 144H71Q54 144 41 153T23 170L18 179ZM117 216L119 212Q173 224 239 224Q262 224 312 222Q309 492 308 507H303L117 216Z" />
<glyph unicode="5" glyph-name="five" horiz-adv-x="527" d="M48 -10L53 -8Q108 -52 185 -52T306 2T351 131Q351 206 308 259T184 312Q140 312 78 299L73 303L97 600H227Q282 600 324 601T388 603T422 606T439 609L442 610Q442 512 363 512Q193 512 159 527L151
357Q188 366 235 366Q280 366 320 355T396 319T454 247T476 135Q476 29 401 -45T214 -120Q154 -120 104 -92T48 -10Z" />
<glyph unicode="6" glyph-name="six" horiz-adv-x="597" d="M76 324Q76 378 88 433T125 538T185 628T272 691T382 715Q421 715 450 704T492 677T512 644T520 617L521 606L515 603Q510 609 501 617T464 640T410 654Q340 654 292 601T223 471T202 306Q202 190 237
110T339 29Q382 29 405 73T429 182Q429 271 386 330T244 396L241 401Q269 435 329 435Q432 435 489 374T547 226Q547 133 488 59T324 -15Q197 -15 137 78T76 324Z" />
<glyph unicode="7" glyph-name="seven" horiz-adv-x="535" d="M20 610Q44 600 240 600Q485 600 517 605Q517 597 507 567T483 513Q389 341 235 -9Q207 -72 173 -93T83 -115L52 -110V-105Q87 -80 138 -8Q188 60 275 239T393 507L390 511Q349 500 99 500Q59 500
40 530T20 610Z" />
<glyph unicode="8" glyph-name="eight" horiz-adv-x="593" d="M66 164Q66 204 80 236T116 287T158 317T194 334L208 338L213 333Q177 281 177 198Q177 125 204 78T292 30Q343 30 373 65T404 152Q404 203 380 241T321 299T243 341T166 382T106 437T82 522Q82 600
146 657T302 715Q408 715 465 667T522 537Q522 500 507 469T471 420T429 390T393 372L378 367L372 371Q407 429 407 523Q407 592 375 631T298 670Q258 670 230 637T201 541Q201 496 219 463T265 408T329 371T399 339T462 305T509 257T527 188Q527 105 466 45T295
-15Q186 -15 126 37T66 164Z" />
<glyph unicode="9" glyph-name="nine" horiz-adv-x="597" d="M49 369Q49 462 108 536T272 610Q399 610 459 517T520 271Q520 217 508 162T471 57T411 -33T324 -96T214 -120Q175 -120 146 -109T104 -82T84 -50T76 -22L75 -11L81 -8Q86 -14 95 -22T132 -45T186 -59Q256
-59 304 -6T373 124T394 289Q394 405 359 485T257 566Q214 566 191 522T167 413Q167 324 210 265T352 199L355 194Q327 160 267 160Q164 160 107 221T49 369Z" />
<glyph unicode=":" glyph-name="colon" horiz-adv-x="271" d="M68 52Q68 80 88 100T135 120Q163 120 183 100T203 52Q203 25 183 5T135 -15Q108 -15 88 5T68 52ZM68 447Q68 475 88 495T135 515Q163 515 183 495T203 447Q203 420 183 400T135 380Q108 380 88 400T68 447Z" />
<glyph unicode=";" glyph-name="semicolon" horiz-adv-x="275" d="M16 -85L21 -80Q38 -90 55 -90Q84 -90 103 -71T123 -23Q123 -10 115 -1T97 12T79 28T70 61Q70 89 88 107T134 125Q172 125 191 96T211 22Q211 -34 180 -76T90 -119Q66 -119 48 -111T22 -94L16
-85ZM67 447Q67 475 87 495T134 515Q162 515 182 495T202 447Q202 420 182 400T134 380Q107 380 87 400T67 447Z" />
<glyph unicode="&lt;" glyph-name="less" horiz-adv-x="437" d="M36 308Q36 320 46 326Q312 468 350 500Q385 463 385 440Q385 436 369 425T322 396T263 364T195 328T136 297V292Q175 267 241 233T347 176T388 148Q388 137 379 121T362 94L353 84Q310 120 67 249Q55
255 46 273T36 308Z" />
<glyph unicode="=" glyph-name="equal" horiz-adv-x="517" d="M79 219Q79 262 102 262Q165 257 236 257H324Q405 257 433 262Q437 242 437 217Q437 185 423 185Q362 188 290 189H198Q110 189 82 185Q79 201 79 219ZM79 375Q79 418 102 418Q165 413 236 413H324Q405
413 433 418Q437 398 437 373Q437 341 423 341Q362 344 290 345H198Q110 345 82 341Q79 357 79 375Z" />
<glyph unicode="&gt;" glyph-name="greater" horiz-adv-x="437" d="M49 148Q49 154 89 176T196 232T301 292V297Q282 307 243 328T175 364T116 396T69 424T52 440Q52 450 61 465T78 490L87 500Q125 468 391 326Q401 320 401 308Q401 291 392 273T370 249Q127 120
84 84Q49 123 49 148Z" />
<glyph unicode="?" glyph-name="question" horiz-adv-x="390" d="M56 678Q56 695 71 761H76Q88 723 179 694Q358 638 358 540Q358 505 336 473T283 416T221 365T167 308T145 241T163 181Q137 177 131 177Q85 177 85 244Q85 281 101 314T141 372T188 419T228 463T245
506Q245 532 216 546T151 568T86 603T56 678ZM66 26T66 51T84 94T127 113T170 95T189 51T171 8T127 -10T84 8Z" />
<glyph unicode="@" glyph-name="at" horiz-adv-x="981" d="M53 206Q53 300 84 389T174 552T325 670T530 715Q703 715 817 608T932 303Q932 231 903 156T814 25T678 -31Q632 -31 596 -4T558 69L554 72Q530 27 492 6T413 -15Q344 -15 300 45T255 188Q255 328 342
421T557 515Q626 515 673 500Q657 310 657 189Q657 150 658 129T663 84T678 49T706 38Q759 38 802 105T846 279Q846 368 818 439T743 553T639 618T520 641Q430 641 357 606T239 513T170 383T146 234Q146 141 176 58T274 -83T432 -143Q456 -143 476 -139Q472 -164
469 -175T458 -202T436 -223T398 -229Q319 -229 252 -191T143 -90T77 50T53 206ZM371 204Q371 153 394 108T465 62Q560 62 560 291L557 471Q550 471 543 471T515 465T478 450T441 421T406 374T381 303T371 204Z" />
<glyph unicode="A" glyph-name="A" horiz-adv-x="648" d="M8 0V5Q36 26 73 130L282 713Q286 713 293 712T319 704T356 686T391 650T419 592Q454 478 508 320T596 86Q618 37 625 23T642 5V0Q604 -10 569 -10Q494 -10 477 50Q447 154 421 233Q359 235 321 235Q261
235 177 231Q166 198 155 161T138 103T124 61T110 27T94 7T73 -6T44 -10Q36 -10 27 -8T13 -2L8 0ZM193 286Q257 284 300 284Q337 284 403 286Q333 493 296 587H291Q260 496 193 286Z" />
<glyph unicode="B" glyph-name="B" horiz-adv-x="648" d="M92 702Q131 700 172 700H296Q415 700 473 654T531 538Q531 495 507 451T437 376V371Q507 354 552 311T597 200Q597 109 534 49T363 -12Q339 -12 265 -6T97 0Q108 28 108 277Q108 451 102 595Q97 692 92
702ZM222 315Q222 303 222 278T223 239Q223 220 223 197T225 144T226 97Q227 70 260 58T332 46Q375 46 403 58T445 92T463 135T468 186Q468 233 448 266T392 317T316 343T223 352Q223 346 223 334T222 315ZM223 398Q330 396 394 383Q427 441 427 499Q427 567 390
607T257 647H237L226 646Q226 600 225 509T223 398Z" />
<glyph unicode="C" glyph-name="C" horiz-adv-x="703" d="M55 326Q55 426 97 513T223 658T417 715Q494 715 567 688T641 620Q641 604 629 580T601 540H595Q558 598 504 628T392 659Q302 659 240 585T178 374Q178 295 204 229T289 118T426 73Q556 73 654 155L657
152Q643 83 569 34T400 -15Q314 -15 247 13T138 90T76 199T55 326Z" />
<glyph unicode="D" glyph-name="D" horiz-adv-x="792" d="M92 700H314Q380 700 438 690T551 655T647 592T711 492T736 351Q736 196 639 94T396 -9Q362 -9 275 -5T97 0Q108 28 108 277Q108 451 102 595Q101 622 100 643T97 674T94 690T92 698V700ZM223 281Q223
190 226 97Q227 50 364 50Q476 50 541 131T607 332Q607 416 579 479T502 577T396 630T275 647Q242 647 226 646Q223 404 223 281Z" />
<glyph unicode="E" glyph-name="E" horiz-adv-x="582" d="M92 700H276Q344 700 399 702T476 708L497 710Q494 686 492 676T482 651T458 632T416 627Q363 627 316 631T247 639L226 643Q226 595 224 397H378Q396 397 411 399T432 404L437 407Q435 367 424 350T377
333L223 339V235Q223 205 225 148T227 66L410 71Q507 74 544 93Q545 82 545 65Q545 19 527 7T450 -5L97 0Q108 28 108 277Q108 451 102 595Q101 622 100 643T97 674T94 690T92 698V700Z" />
<glyph unicode="F" glyph-name="F" horiz-adv-x="515" d="M91 700H275Q343 700 398 702T474 708L496 710Q493 686 491 676T481 651T457 632T415 627Q364 627 317 631T247 639L225 643Q225 593 223 391H377Q395 391 410 393T430 398L436 401Q434 361 423 344T376
327L222 333V239Q222 212 224 152T226 58Q226 -10 161 -10Q156 -10 94 0Q107 28 107 277Q107 451 101 595Q100 622 99 643T96 674T93 690T92 698L91 700Z" />
<glyph unicode="G" glyph-name="G" horiz-adv-x="729" d="M55 329Q55 426 96 512T222 657T418 715Q497 715 573 689T649 620Q649 603 637 577T609 535H603Q564 594 509 625T396 657Q305 657 242 584T178 375Q178 292 206 219T293 98T433 49Q493 49 542 64Q547
106 547 157Q547 311 531 323Q544 328 578 328Q665 328 665 260Q665 233 662 172T659 84L661 1L656 -4Q640 -1 622 -1Q589 -1 511 -8T411 -15Q323 -15 253 13T141 91T77 200T55 329Z" />
<glyph unicode="H" glyph-name="H" horiz-adv-x="796" d="M91 701Q122 710 146 710Q181 710 203 694T225 648Q225 600 223 402Q275 398 384 398Q481 398 577 402Q576 490 572 595Q570 638 568 664T564 696L562 701Q593 710 617 710Q652 710 674 694T696 648Q696
604 694 521T692 395Q692 64 705 0Q696 -1 684 -4T661 -8T636 -10Q600 -10 586 10T572 73Q572 114 574 205T577 339Q517 343 405 343Q316 343 222 339V239Q222 212 224 152T226 58Q226 -10 161 -10Q156 -10 94 0Q107 28 107 277Q107 451 101 595Q99 638 97 664T92
696L91 701Z" />
<glyph unicode="I" glyph-name="I" horiz-adv-x="323" d="M89 701Q120 710 144 710Q179 710 201 694T223 648Q223 604 221 521T219 395Q219 135 236 2Q174 -8 169 -8Q104 -8 104 60V368Q104 488 99 595Q97 638 95 664T90 696L89 701Z" />
<glyph unicode="J" glyph-name="J" horiz-adv-x="324" d="M17 -205Q76 -163 91 -60T107 334Q107 451 101 595Q99 638 97 664T92 696L91 701Q122 710 146 710Q181 710 203 694T225 648Q225 616 224 488T222 318Q222 272 221 143T220 -14Q220 -112 164 -161T19 -210L17
-205Z" />
<glyph unicode="K" glyph-name="K" horiz-adv-x="660" d="M91 701Q122 710 136 710Q172 710 198 693T225 648Q225 633 224 535T222 376H227Q391 535 444 597T504 703Q526 704 535 704Q568 704 582 697T596 673Q596 664 588 650T561 615T525 577T477 531T428 486T374
438T325 395V390Q334 377 350 355T410 276T493 171T579 77T655 14V7Q616 -6 557 -6Q515 -6 470 28T388 112T320 212T264 298T230 338L222 340V239Q222 212 224 152T226 58Q226 -10 161 -10Q156 -10 94 0Q107 28 107 277Q107 451 101 595Q99 638 97 664T92 696L91
701Z" />
<glyph unicode="L" glyph-name="L" horiz-adv-x="555" d="M91 701Q120 710 136 710Q172 710 198 693T225 648Q225 585 223 491T220 363Q220 163 222 66L405 71Q502 74 539 93Q540 82 540 65Q540 19 522 7T445 -5L96 0Q107 28 107 277Q107 467 101 595Q99 638 97
664T92 696L91 701Z" />
<glyph unicode="M" glyph-name="M" horiz-adv-x="874" d="M91 700Q115 708 149 708Q215 708 226 689Q233 676 248 649T268 614L396 388Q432 324 443 294H448Q457 319 486 376T564 525T632 654Q647 683 664 695T709 708Q745 708 770 703Q770 659 770 548T769 395Q769
133 786 0Q724 -10 719 -10Q654 -10 654 58V568L650 571Q647 563 604 481L503 288Q490 264 475 224T451 156L442 128H426Q408 128 405 135Q381 190 316 302L233 446Q181 536 168 566L164 562Q164 485 168 314T173 59Q173 16 167 4T136 -9Q127 -9 116 -7T98 -2L92
1Q107 28 107 277Q107 451 101 595Q100 622 99 643T96 674T93 690T92 698L91 700Z" />
<glyph unicode="N" glyph-name="N" horiz-adv-x="763" d="M91 700Q115 708 142 708Q183 708 194 691Q238 626 300 552L494 318Q581 212 594 185L598 189Q596 226 595 383T590 595Q588 638 586 664T582 696L580 701Q597 710 617 710Q647 710 655 697T663 653Q663
597 661 470T658 259Q658 40 667 0Q645 -6 618 -6Q589 -6 571 21Q537 74 461 165L263 402Q174 510 168 533L164 529Q164 452 168 297T173 59Q173 16 167 4T136 -9Q127 -9 116 -7T98 -2L92 1Q107 28 107 277Q107 451 101 595Q100 622 99 643T96 674T93 690T92 698L91
700Z" />
<glyph unicode="O" glyph-name="O" horiz-adv-x="821" d="M56 333Q56 408 79 476T147 597T261 683T418 715Q529 715 610 667T728 546T766 387Q766 309 743 238T675 110T561 19T404 -15Q240 -15 148 87T56 333ZM185 357Q185 275 211 204T291 87T418 40Q486 40 537
88T613 208T637 363Q637 439 611 505T531 616T403 660Q335 660 284 615T209 503T185 357Z" />
<glyph unicode="P" glyph-name="P" horiz-adv-x="584" d="M89 703Q127 700 151 700H293Q421 700 488 640T555 496Q555 390 470 330T274 269Q243 269 220 273Q222 109 236 0Q174 -10 169 -10Q104 -10 104 58V368Q104 488 99 595Q97 638 95 665T90 698L89 703ZM219
320Q231 318 254 318Q336 318 383 368T430 487Q430 553 385 600T254 647H223Q219 478 219 395V320Z" />
<glyph unicode="Q" glyph-name="Q" horiz-adv-x="821" d="M56 333Q56 408 79 476T147 597T261 683T418 715Q529 715 610 667T728 546T766 387Q766 312 745 244T683 120T579 29T436 -13V-19Q490 -62 570 -92T734 -122Q813 -122 850 -103L855 -106Q860 -134 860
-150Q860 -196 831 -210T735 -225Q700 -225 656 -215T560 -182T457 -116T371 -14Q222 -3 139 96T56 333ZM185 357Q185 275 211 204T291 87T418 40Q486 40 537 88T613 208T637 363Q637 439 611 505T531 616T403 660Q335 660 284 615T209 503T185 357Z" />
<glyph unicode="R" glyph-name="R" horiz-adv-x="657" d="M92 702Q131 700 172 700H296Q421 700 488 650T555 520Q555 470 539 432T498 373T450 339T410 322L393 319V314Q412 286 442 243T541 117T646 14V7Q587 -6 558 -6Q514 -6 473 25T401 102T343 194T287 277T236
321L222 325Q222 324 224 224T227 58Q227 -10 162 -10Q156 -10 94 0Q107 28 107 277Q107 488 102 595Q97 692 92 702ZM222 373Q254 362 308 362Q366 362 401 395T437 499Q437 565 394 606T257 647H226Q222 535 222 373Z" />
<glyph unicode="S" glyph-name="S" horiz-adv-x="589" d="M51 82Q51 98 75 141H82Q85 137 91 131T118 109T162 81T221 58T295 48Q363 48 394 78T426 154Q426 197 389 229T299 285T194 335T104 405T67 510Q67 604 141 659T317 715Q350 715 393 709T476 684T516
639Q516 597 477 558H470Q467 562 462 569T440 594T404 625T356 650T296 661Q245 661 212 629T179 549Q179 506 216 476T305 423T411 376T501 306T538 197Q538 99 461 42T281 -15Q205 -15 128 12T51 82Z" />
<glyph unicode="T" glyph-name="T" horiz-adv-x="599" d="M14 662Q14 705 37 705Q373 700 474 700Q526 700 583 710Q587 685 587 660Q587 627 568 627Q473 628 363 629Q363 600 361 520T359 395Q359 133 376 0Q314 -10 309 -10Q244 -10 244 58V368Q244 487 239
594Q237 622 237 630Q173 631 133 631Q80 631 17 622Q14 644 14 662Z" />
<glyph unicode="U" glyph-name="U" horiz-adv-x="749" d="M84 701Q121 710 139 710Q174 710 196 694T218 648Q218 615 218 478T217 297Q217 176 266 111T403 45Q489 45 538 110T588 297Q588 583 577 701Q607 710 622 710Q648 710 654 696T661 648Q661 604 657
478T653 310Q653 -15 378 -15Q248 -15 172 63T96 304Q96 408 95 486T92 603T88 664T85 693T84 701Z" />
<glyph unicode="V" glyph-name="V" horiz-adv-x="665" d="M8 695Q31 708 99 708Q127 708 151 691T183 643Q203 560 258 402T364 115H368L427 294Q454 377 491 496Q538 644 556 676T617 708Q631 708 642 705T658 700L663 697V692Q659 689 652 682T624 642T588 563L415
83L386 -15Q381 -15 373 -14T342 -6T300 12T261 48T231 105Q124 461 56 607Q43 635 31 657T14 687L8 695Z" />
<glyph unicode="W" glyph-name="W" horiz-adv-x="1007" d="M8 695Q31 708 99 708Q127 708 151 691T183 643Q204 559 259 400T363 116H368Q465 381 465 444Q465 479 446 542T407 650L388 695Q398 708 461 708Q489 708 514 691T545 643Q564 555 613 394T705 116H710Q768
285 831 493Q878 643 896 675T959 708Q973 708 984 705T1000 700L1004 697V692Q966 663 930 563L757 83L728 -15Q723 -15 715 -14T683 -6T641 12T602 48T573 105L507 340H502Q499 318 492 297L415 83L386 -15Q381 -15 373 -15T343 -8T301 10T262 46T231 105Q115
480 56 607Q43 635 31 657T14 687L8 695Z" />
<glyph unicode="X" glyph-name="X" horiz-adv-x="674" d="M32 695V700Q71 708 118 708Q153 708 174 700T205 683T234 647Q250 626 266 597T309 516T355 429H360L490 646Q510 680 530 694T587 708Q619 708 638 700V695Q576 661 390 366Q465 234 528 145T618 31L643
7V2Q605 -8 571 -8Q541 -8 520 -1T480 19T436 68T386 145T316 266H311Q200 79 181 53Q143 -1 107 -7Q100 -8 91 -8Q60 -8 34 3V8Q94 37 277 330Q273 338 242 396T192 485T143 565T85 646T32 695Z" />
<glyph unicode="Y" glyph-name="Y" horiz-adv-x="648" d="M12 695V700Q40 708 88 708Q135 708 152 698T186 656Q256 529 348 405H353Q389 462 424 522T475 611T510 665T545 699T584 708Q596 708 610 706T632 702L640 700V695Q606 668 577 630Q543 587 472 479T382
336Q382 128 399 0Q336 -10 332 -10Q267 -10 267 58V334Q246 356 207 414T123 543T61 639Q52 652 40 666T20 688L12 695Z" />
<glyph unicode="Z" glyph-name="Z" horiz-adv-x="601" d="M40 710Q104 700 300 700H534V684Q534 642 515 613Q445 505 362 354T238 120Q227 100 203 68L205 64Q227 75 485 75Q541 75 554 59T565 -10Q498 0 287 0H54Q54 6 54 13T53 25Q53 59 67 82Q115 156 226
354T377 634L375 638Q344 627 118 627Q76 627 58 646T40 710Z" />
<glyph unicode="[" glyph-name="bracketleft" horiz-adv-x="342" d="M93 -132Q98 498 98 596Q98 672 93 700H310Q314 688 314 666Q314 636 300 636H169Q166 156 166 -41V-87H310Q314 -99 314 -119Q314 -155 300 -155H136Q93 -155 93 -132Z" />
<glyph unicode="\" glyph-name="backslash" horiz-adv-x="286" d="M27 688Q59 701 85 701Q102 701 105 691Q107 685 134 526T194 184T233 -38Q249 -126 258 -152Q231 -163 209 -163Q183 -163 179 -148Q176 -137 149 20T89 365T52 581Q37 660 27 688Z" />
<glyph unicode="]" glyph-name="bracketright" horiz-adv-x="341" d="M28 -119Q28 -99 32 -87H176V-41Q176 156 173 636H42Q28 636 28 666Q28 688 32 700H249Q244 672 244 596L249 -132Q249 -155 206 -155H42Q28 -155 28 -119Z" />
<glyph unicode="^" glyph-name="asciicircum" horiz-adv-x="493" d="M38 401Q69 438 209 700Q216 712 238 712Q274 712 289 684Q289 683 306 652T342 586T384 511T426 440T454 398Q418 363 393 363Q386 363 383 368Q300 527 247 615H242L109 371Q106 366 99 366Q89
366 74 375T48 392L38 401Z" />
<glyph unicode="_" glyph-name="underscore" horiz-adv-x="611" d="M28 -53Q28 -10 51 -10Q114 -15 185 -15H470Q551 -15 579 -10Q583 -30 583 -55Q583 -87 569 -87Q508 -84 436 -83H147Q59 -83 31 -87Q28 -71 28 -53Z" />
<glyph unicode="`" glyph-name="grave" horiz-adv-x="400" d="M92 701Q95 706 100 714T125 735T169 749Q223 627 307 580V575Q298 571 276 571Q229 571 167 612T92 701Z" />
<glyph unicode="a" glyph-name="a" horiz-adv-x="505" d="M36 119Q36 170 62 209T132 268T219 298T308 309V318Q308 385 288 417T212 449Q141 449 74 389L70 393Q82 440 136 477T255 515Q306 515 339 501T389 460T410 406T416 339Q416 313 415 253T413 164V152Q413
41 463 41Q472 41 481 44T496 52L501 55L505 52Q504 49 502 45T491 31T471 12T439 -3T394 -10Q359 -10 335 6T309 60L305 62Q287 29 251 7T169 -15Q108 -15 72 23T36 119ZM149 138Q149 96 168 76T216 56Q244 56 274 77T305 125Q305 144 306 193T308 269Q287 265
275 263T235 250T192 228T163 192T149 138Z" />
<glyph unicode="b" glyph-name="b" horiz-adv-x="572" d="M56 757L59 761Q91 761 112 758T149 744T172 724T184 692T189 651T190 597T188 522T182 460L180 437L183 436Q185 439 188 444T204 463T234 487T280 506T344 515Q428 515 478 450T528 287Q528 151 453
68T234 -15Q168 -15 122 9T76 76Q76 104 77 156T78 232Q78 269 78 345T77 458Q77 736 56 757ZM181 193Q181 153 182 130T190 81T210 43T248 31Q324 31 366 100T408 264Q408 338 379 394T300 451Q255 451 224 419T186 330Q181 287 181 193Z" />
<glyph unicode="c" glyph-name="c" horiz-adv-x="522" d="M40 234Q40 352 116 433T312 515Q338 515 372 509T440 486T473 444Q473 414 438 377H433Q431 381 427 387T408 408T378 436T338 458T290 468Q244 468 212 436T168 362T156 272Q156 181 202 120T323 59Q357
59 397 75T462 108L485 124L489 120Q487 115 484 106T464 73T426 32T366 0T281 -15Q181 -15 111 57T40 234Z" />
<glyph unicode="d" glyph-name="d" horiz-adv-x="596" d="M44 215Q44 348 119 429T338 511Q364 511 392 506Q392 567 388 645Q386 686 382 714T374 750L370 757L373 761Q433 760 467 745T502 687Q502 642 500 540T497 375Q497 254 502 107Q504 41 547 41Q556 41
565 44T580 52L585 55L589 52Q588 49 586 45T575 31T555 12T523 -3T478 -10Q442 -10 418 6T393 62L389 64Q387 61 384 56T367 37T338 13T293 -6T233 -15Q147 -15 96 48T44 215ZM164 240Q164 210 168 181T184 120T219 69T275 49Q316 49 342 77T379 139T390 213Q393
312 393 335V428Q393 464 324 464Q249 464 207 398T164 240Z" />
<glyph unicode="e" glyph-name="e" horiz-adv-x="514" d="M43 127T43 237T109 431T280 515Q372 515 418 473T464 372Q464 325 433 293T361 249T271 236Q245 236 218 243T176 257L161 264L157 262Q157 170 198 115T316 60Q352 60 391 74T452 102L473 117L478 112Q477
107 474 99T455 68T420 29T362 -1T276 -15Q175 -15 109 56ZM158 310Q158 306 172 301T208 291T251 286Q289 286 317 308T345 373Q345 413 326 441T267 469Q235 469 208 437T170 369T158 310Z" />
<glyph unicode="f" glyph-name="f" horiz-adv-x="341" d="M13 -217Q48 -203 65 -175T93 -51T104 233Q104 362 96 399T58 448L32 458V500Q67 500 83 512T100 560Q100 670 154 725T301 780Q375 780 420 748T466 664L461 661Q429 713 337 713Q287 713 249 681T210
574V547L207 500H279Q297 500 310 502T328 508L333 510Q334 504 334 483Q334 453 321 443T278 432Q274 432 245 432T211 433Q207 381 207 320Q207 274 208 161T210 -30Q210 -122 163 -176T48 -231Q28 -231 13 -222V-217Z" />
<glyph unicode="g" glyph-name="g" horiz-adv-x="516" d="M38 321Q38 402 101 456T261 510Q318 510 363 494Q399 495 414 523T434 601Q438 601 447 600T460 599T473 597T485 593T494 588T502 582T507 572T509 559Q509 525 479 503T407 470Q465 426 465 342Q465
260 402 207T242 153Q210 153 196 155Q181 133 181 120Q181 100 212 89T287 72T377 54T453 13T484 -65Q484 -136 417 -183T245 -230Q152 -230 96 -187T40 -95Q40 -79 47 -69T71 -55T96 -51T125 -50Q126 -71 133 -92T156 -135T200 -172T269 -186Q318 -186 354 -165T391
-103Q391 -79 363 -66T293 -46T211 -29T142 6T113 71Q113 120 160 162Q38 194 38 321ZM149 342Q149 279 175 239T255 198Q297 198 325 234T353 321Q353 384 327 424T247 465Q206 465 178 429T149 342Z" />
<glyph unicode="h" glyph-name="h" horiz-adv-x="610" d="M67 0Q70 3 73 13T83 94T90 277V458Q90 735 68 757L71 761Q103 761 124 758T161 744T184 724T196 692T201 651T202 597Q202 502 190 430L194 429Q211 467 262 491T369 515Q416 515 447 504T492 471T510
428T515 376Q515 340 513 266T511 146Q511 123 512 110T517 78T533 50T561 41Q570 41 579 44T594 52L599 55L603 52Q602 49 600 45T589 31T569 12T537 -3T492 -10Q454 -10 428 9T402 71T403 191T405 324Q405 349 404 363T399 397T385 427T359 446T317 454Q272 454
235 416T197 311Q197 267 199 187T201 58Q201 -10 138 -10Q115 -10 67 0Z" />
<glyph unicode="i" glyph-name="i" horiz-adv-x="292" d="M62 501Q93 510 111 510Q146 510 171 493T196 446Q196 389 194 284T191 146Q191 123 192 110T197 78T213 50T241 41Q250 41 259 44T274 52L279 55L283 52Q282 49 280 45T269 31T249 12T217 -3T172 -10Q134
-10 108 9T82 71Q82 100 84 157T86 242Q86 344 80 408T69 487T62 501ZM70 662Q70 690 90 710T137 730Q165 730 185 710T205 662Q205 635 185 615T137 595Q110 595 90 615T70 662Z" />
<glyph unicode="j" glyph-name="j" horiz-adv-x="277" d="M-2 -205Q39 -172 54 -145T78 -33T88 234Q88 299 84 395Q82 438 77 464T68 496L64 501Q95 510 113 510Q148 510 173 493T198 448Q198 416 196 338T194 218Q194 172 196 93T198 -14Q198 -112 144 -161T0
-210L-2 -205ZM72 662Q72 690 92 710T139 730Q167 730 187 710T207 662Q207 635 187 615T139 595Q112 595 92 615T72 662Z" />
<glyph unicode="k" glyph-name="k" horiz-adv-x="542" d="M66 0Q77 9 84 108T91 297Q91 514 85 645Q83 686 79 714T70 750L67 757L70 761Q130 760 164 745T199 687Q199 637 197 533T195 375V293H200L213 306Q229 322 249 342T280 373T306 399T327 420T344 437T357
453T366 466T373 478T377 488T380 500Q409 508 434 508Q482 508 482 488Q482 471 456 446T373 378T285 306V302Q461 67 542 8V3Q518 -7 463 -7Q415 -7 368 32T292 119T238 208T203 253L196 255Q196 223 198 159T200 58Q200 -10 137 -10Q126 -10 66 0Z" />
<glyph unicode="l" glyph-name="l" horiz-adv-x="291" d="M62 757L65 761Q125 760 159 745T194 687Q194 637 192 533T190 375Q190 224 194 107Q196 41 239 41Q248 41 257 44T272 52L277 55L281 52Q280 49 278 45T267 31T247 12T215 -3T170 -10Q132 -10 106 10T80
77Q80 114 82 224T85 397Q85 538 80 645Q78 686 74 714T66 750L62 757Z" />
<glyph unicode="m" glyph-name="m" horiz-adv-x="888" d="M68 0Q72 2 77 23T87 104T92 245Q92 299 88 395Q86 438 81 464T72 496L68 501Q99 510 117 510Q151 510 173 495T195 455L191 430L195 429Q209 465 254 487T350 510Q416 510 449 488T486 430L490 429Q506
465 552 487T648 510Q737 510 765 473T794 371Q794 336 792 264T790 146Q790 123 791 110T796 78T812 50T840 41Q849 41 858 44T873 52L878 55L882 52Q881 49 879 45T868 31T848 12T816 -3T771 -10Q734 -10 708 9T681 71Q681 112 682 189T684 319Q684 351 682 368T673
407T647 439T599 449Q567 449 545 429T512 378T497 322T493 273Q493 272 494 185T495 94Q495 77 493 63T489 40T481 22T474 10T464 -1T456 -10Q437 -7 429 -5T407 4T389 26T383 67Q383 108 384 187T386 319Q386 344 385 358T380 392T366 422T340 441T298 449Q262
449 230 412T198 311Q198 267 200 187T202 58Q202 -10 139 -10Q116 -10 68 0Z" />
<glyph unicode="n" glyph-name="n" horiz-adv-x="611" d="M68 0Q72 2 77 23T87 104T92 245Q92 299 88 395Q86 438 81 464T72 496L68 501Q99 510 117 510Q151 510 173 495T195 455L191 430L195 429Q212 467 263 491T370 515Q417 515 448 504T493 470T511 425T516
371Q516 336 514 264T512 146Q512 123 513 110T518 78T534 50T562 41Q571 41 580 44T595 52L600 55L604 52Q603 49 601 45T590 31T570 12T538 -3T493 -10Q456 -10 430 9T403 71Q403 112 404 189T406 319Q406 345 405 360T400 395T386 427T360 446T318 454Q273 454
236 416T198 311Q198 267 200 187T202 58Q202 -10 139 -10Q116 -10 68 0Z" />
<glyph unicode="o" glyph-name="o" horiz-adv-x="600" d="M41 238Q41 352 111 433T305 515Q424 515 491 445T559 277Q559 158 489 72T295 -15Q175 -15 108 59T41 238ZM163 255Q163 163 200 97T305 31Q368 31 402 98T437 259Q437 345 400 407T294 469Q231 469 197
406T163 255Z" />
<glyph unicode="p" glyph-name="p" horiz-adv-x="590" d="M68 501Q99 510 117 510Q151 510 174 494T198 455Q198 446 196 438L201 436Q203 439 206 444T222 463T252 487T298 506T362 515Q446 515 496 450T546 287Q546 153 471 71T252 -11Q230 -11 202 -6Q201 -23
201 -54Q201 -105 205 -147T214 -206L219 -222Q156 -232 149 -232Q119 -232 104 -216T88 -155Q88 -119 89 5T91 241Q91 440 68 501ZM199 68Q199 36 266 36Q342 36 384 104T426 264Q426 338 397 394T318 451Q273 451 242 419T204 330Q199 287 199 193V68Z" />
<glyph unicode="q" glyph-name="q" horiz-adv-x="576" d="M44 204Q44 344 119 429T338 515Q405 515 452 493T500 430Q500 401 499 310T498 194Q498 143 499 74T500 -52Q500 -103 504 -145T514 -204L518 -220Q456 -230 448 -230Q417 -230 400 -213T383 -153Q383
-3 387 37L389 56L386 57Q384 54 381 49T364 32T334 11T290 -7T229 -15Q144 -15 94 48T44 204ZM164 239Q164 166 193 108T271 49Q323 49 356 93T392 220Q393 247 393 316Q393 352 391 375T383 422T362 457T324 469Q249 469 207 400T164 239Z" />
<glyph unicode="r" glyph-name="r" horiz-adv-x="404" d="M65 501Q96 510 114 510Q150 510 172 493T195 446L188 409L192 408Q212 453 256 481T343 510Q392 510 392 471T380 400L375 398Q319 426 295 426Q195 426 195 234Q195 146 200 88T210 16T218 0Q156 -10
148 -10Q117 -10 101 6T85 67Q85 98 87 156T90 241Q90 332 84 396T73 479T65 501Z" />
<glyph unicode="s" glyph-name="s" horiz-adv-x="440" d="M40 56Q40 76 60 111H65Q72 103 84 91T136 59T221 39Q266 39 287 59T309 108Q309 136 282 157T217 195T141 230T76 284T49 366Q49 434 104 474T234 515Q278 515 331 501T385 459Q385 425 349 387H344Q342
390 338 396T322 416T296 442T261 462T219 471Q185 471 163 450T141 395Q141 367 168 347T233 312T309 278T374 224T401 139Q401 68 344 27T210 -15Q154 -15 97 5T40 56Z" />
<glyph unicode="t" glyph-name="t" horiz-adv-x="387" d="M43 458V500Q73 500 128 545T194 617L217 609L197 500H279Q297 500 310 502T328 508L333 510Q334 504 334 483Q334 453 321 443T278 432L197 434Q194 316 194 240Q194 197 197 169T208 113T234 71T280
57Q302 57 328 68T370 92L386 104L391 100Q390 95 387 88T372 60T344 25T299 -2T236 -15Q153 -15 119 36T85 179Q85 215 87 278T89 357Q89 418 82 433T43 458Z" />
<glyph unicode="u" glyph-name="u" horiz-adv-x="599" d="M56 501Q94 510 105 510Q140 510 165 493T190 446Q190 406 189 330T187 201Q187 173 188 154T194 113T207 78T232 57T271 48Q315 48 343 83T382 163T392 256Q392 353 387 411Q384 441 380 463T372 494L370
501Q401 510 419 510Q456 510 480 493T505 445Q505 400 501 302T497 145Q497 41 547 41Q556 41 565 44T580 52L585 55L589 52Q588 49 586 45T575 31T555 12T523 -3T478 -10Q445 -10 421 7T397 61L398 70L393 71Q391 68 388 62T372 41T343 15T297 -5T233 -15Q144
-15 111 28T77 144Q77 164 78 209T79 281Q79 357 76 405Q70 480 56 501Z" />
<glyph unicode="v" glyph-name="v" horiz-adv-x="507" d="M1 495V500Q41 508 76 508Q144 508 155 466Q191 320 285 82H290Q316 158 337 227T367 336T386 412T399 463T411 491T430 505T460 508Q474 508 485 506T502 502L506 500V495Q481 478 454 403L303 -15Q299
-15 292 -14T264 -8T227 5T193 30T168 72Q87 336 41 435Q20 479 1 495Z" />
<glyph unicode="w" glyph-name="w" horiz-adv-x="797" d="M1 495V500Q41 508 76 508Q103 508 126 496T155 461Q188 325 285 81H290Q336 183 353 237T370 333Q370 360 357 401T331 471L318 499Q336 508 376 508Q404 508 427 496T455 461Q471 390 507 275T575 81H580V82Q606
158 627 227T657 336T676 412T689 463T701 491T720 505T750 508Q764 508 775 506T792 502L796 500V495Q771 480 744 405L593 -15Q589 -15 582 -14T554 -8T517 5T483 30T458 72L409 234H404Q394 196 332 61L297 -15Q293 -15 286 -14T260 -8T224 5T192 30T168 72Q87
336 41 435Q20 479 1 495Z" />
<glyph unicode="x" glyph-name="x" horiz-adv-x="506" d="M18 0V5Q57 25 200 236Q198 239 179 274T152 325T124 373T91 424T61 463T30 494V499Q62 508 105 508Q124 508 140 502T166 489T190 461T212 426T239 376T270 317Q317 391 356 463Q366 481 373 489T394
502T434 508Q450 508 462 506T478 500L482 498V493Q453 479 400 411T298 268Q298 267 300 265Q355 168 400 103T463 22L481 5V0Q442 -10 422 -10Q362 -10 333 21T229 186Q214 160 197 130T171 83T151 49T133 22T117 5T100 -6T81 -9Q40 -9 18 0Z" />
<glyph unicode="y" glyph-name="y" horiz-adv-x="507" d="M2 495V500Q42 508 77 508Q143 508 154 466Q169 404 210 284T286 76Q310 145 329 208T359 311T378 386T392 441T402 475T414 497T432 505T459 508Q473 508 484 506T500 502L505 500V495Q479 478 453 403L305
-15Q266 -124 209 -177T86 -230Q71 -230 61 -229T44 -221T33 -211T27 -195T24 -178T23 -155T22 -130Q67 -140 99 -140Q196 -140 240 -40L256 -3Q185 14 168 72Q87 334 42 435Q21 479 2 495Z" />
<glyph unicode="z" glyph-name="z" horiz-adv-x="475" d="M35 18Q35 43 46 59Q92 125 176 257T287 443L285 447Q231 437 81 437Q67 437 58 442T45 461T39 483T35 512Q86 500 243 500H427V488Q427 459 412 437Q356 356 170 58L172 54Q217 68 372 68Q422 68 433
54T451 -8Q389 0 224 0H36Q35 10 35 18Z" />
<glyph unicode="{" glyph-name="braceleft" horiz-adv-x="355" d="M34 262V284Q56 284 71 304T98 387T109 557Q109 638 157 682T263 727Q279 727 295 722T319 710L327 704L324 699Q265 698 231 660T197 548Q197 476 188 421T167 337T142 292T120 271L111 267V262Q114
262 120 260T141 240T167 192T187 97T197 -57Q197 -85 198 -103T205 -143T221 -177T251 -199T299 -208L324 -206L327 -211Q298 -245 234 -245Q175 -245 138 -200Q109 -163 109 -103Q109 10 103 85T86 196T63 245T34 262Z" />
<glyph unicode="|" glyph-name="bar" horiz-adv-x="262" d="M92 -143Q92 -58 94 245T97 591Q97 672 92 700Q115 704 135 704T162 698T169 676Q169 591 167 288T164 -58Q164 -139 169 -167Q153 -170 135 -170Q92 -170 92 -143Z" />
<glyph unicode="}" glyph-name="braceright" horiz-adv-x="355" d="M28 -211L31 -206Q43 -208 56 -208Q84 -208 103 -199T133 -178T150 -143T157 -103T158 -57Q158 31 167 96T188 192T213 239T235 260L244 262V267Q241 268 235 271T214 292T188 337T168 420T158
548Q158 616 127 655Q95 697 31 699L28 704Q65 727 101 727Q159 727 198 688Q246 640 246 557Q246 450 257 387T283 304T321 284V262Q304 258 293 245T270 196T252 85T246 -103Q246 -168 207 -206T116 -245Q57 -245 28 -211Z" />
<glyph unicode="~" glyph-name="asciitilde" horiz-adv-x="551" d="M55 222Q63 277 96 310T177 344Q223 344 290 321T392 297Q440 297 494 346L498 343Q490 288 457 255T376 221Q329 221 262 244T161 268Q113 268 59 219L55 222Z" />
<glyph unicode="&#xa1;" glyph-name="exclamdown" horiz-adv-x="268" d="M56 16Q56 84 84 231T113 454Q113 499 95 524Q121 528 127 528Q173 528 173 461Q173 435 173 367T172 259Q172 159 187 77T225 -32V-37Q191 -46 165 -46Q125 -46 91 -29T56 16ZM69 654Q69
679 87 697T131 715T174 697T192 654T174 611T131 592T88 610T69 654Z" />
<glyph unicode="&#xa2;" glyph-name="cent" horiz-adv-x="533" d="M47 284Q47 388 108 465T268 560Q268 638 264 665Q280 668 298 668Q321 668 321 645Q321 644 321 616T320 565Q369 564 424 546T480 494Q480 461 445 422H440Q438 425 435 430T419 450T394 477T361
500T320 516V109H330Q364 109 404 126T468 162L492 179L496 175Q494 170 491 162T474 131T442 92T392 58T320 36Q320 -42 324 -69Q308 -72 290 -72Q267 -72 267 -49L268 -19Q268 11 268 36Q174 44 111 114T47 284ZM163 322Q163 252 191 198T268 122V514Q215 501
189 445T163 322Z" />
<glyph unicode="&#xa3;" glyph-name="sterling" horiz-adv-x="564" d="M50 23Q50 28 78 67Q106 104 119 189L122 209L129 266Q104 266 54 264Q51 273 51 288Q51 325 71 325Q97 324 135 323Q135 328 138 359T142 410Q156 610 333 610Q398 610 438 578T478 494L473
491Q459 517 427 530T359 543Q267 543 255 419Q253 399 250 363T246 321H353Q412 321 436 325Q436 318 433 306T416 279T380 264Q334 264 240 266Q225 145 171 63L173 59Q227 68 337 68H397Q470 68 503 108H508Q514 67 514 56Q514 18 488 4T415 -10Q379 -10 302
-2T199 7Q165 7 132 3T82 -6L66 -10Q50 13 50 23Z" />
<glyph unicode="&#xa5;" glyph-name="yen" horiz-adv-x="596" d="M28 591V596Q56 604 104 604Q137 604 154 598T177 584T196 552Q266 417 317 343Q344 389 374 442T418 519T448 565T477 596T506 604T537 602T560 598L568 596V591Q534 564 505 526Q475 486 407
384Q465 386 491 389Q495 373 495 348Q495 327 481 327Q433 328 372 329L348 288V255H362Q456 255 491 260Q495 244 495 219Q495 198 481 198Q421 200 348 201Q350 91 362 -1Q312 -10 302 -10Q241 -10 241 49V202H236Q125 202 100 198Q97 206 97 221Q97 260 120
260Q174 258 241 256V287Q221 312 209 331Q128 331 100 327Q97 335 97 350Q97 389 120 389Q142 388 172 387L77 535Q68 548 56 562T36 584L28 591Z" />
<glyph unicode="&#xa6;" glyph-name="brokenbar" horiz-adv-x="273" d="M97 -142Q97 -110 99 -10T102 107Q102 188 97 216Q120 220 140 220T167 214T174 192Q174 160 172 60T169 -57Q169 -138 174 -166Q158 -169 140 -169Q97 -169 97 -142ZM97 342Q97 374 99 474T102
591Q102 672 97 700Q120 704 140 704T167 698T174 676Q174 644 172 544T169 427Q169 346 174 318Q158 315 140 315Q97 315 97 342Z" />
<glyph unicode="&#xa7;" glyph-name="section" horiz-adv-x="411" d="M28 -104L33 -102Q88 -154 163 -154H169Q172 -139 172 -88Q172 34 100 291Q72 389 61 444T49 555Q49 645 97 703T240 762Q291 762 332 736T374 659L369 657Q314 709 239 709H233Q230 698 230
643Q230 521 302 264Q330 166 341 111T353 0Q353 -90 305 -148T162 -207Q111 -207 70 -181T28 -104ZM109 556Q109 538 110 521T114 490T122 449T132 407T148 347T166 275Q186 196 195 157T213 62T222 -37Q222 -102 207 -147Q250 -133 271 -94T293 -1Q293 17 292
34T288 65T280 106T270 148T254 208T236 280Q216 359 207 398T189 493T180 592Q180 656 194 702Q151 689 130 649T109 556Z" />
<glyph unicode="&#xa8;" glyph-name="dieresis" horiz-adv-x="400" d="M44 645T44 669T61 710T103 728T144 711T162 669T145 628T103 610T62 627ZM237 645T237 669T254 710T295 728Q320 728 337 711T355 669T338 628T295 610Q272 610 255 627Z" />
<glyph unicode="&#xa9;" glyph-name="copyright" horiz-adv-x="837" d="M49 333Q49 503 157 608T441 714Q593 714 691 615T789 365Q789 195 681 90T397 -16Q245 -16 147 83T49 333ZM127 346Q127 216 211 129T421 42Q541 42 626 130T711 352Q711 482 627 569T419
656Q298 656 213 568T127 346ZM239 338Q239 422 296 482T439 542Q476 542 513 526T550 485Q550 453 515 426L510 429Q505 461 481 477T432 493Q384 493 354 453T324 365Q324 297 360 261T449 225Q524 225 566 278L571 275Q557 219 514 190T417 161Q346 161 293
208T239 338Z" />
<glyph unicode="&#xaa;" glyph-name="ordfeminine" horiz-adv-x="386" d="M38 454Q38 488 55 513T102 551T160 570T221 577V583Q221 626 208 646T159 667Q117 667 71 628L67 631Q75 661 110 685T186 710Q254 710 277 680T300 596Q300 579 300 541T299 484V476Q299
405 330 405Q336 405 342 407T351 412L354 414L358 411Q356 407 352 400T327 382T280 371Q222 371 221 417L219 418Q190 368 131 368Q87 368 63 393T38 454ZM117 466Q117 419 161 419Q189 419 218 445Q218 457 219 494T221 549Q160 538 138 517Q117 498 117 466Z"
/>
<glyph unicode="&#xab;" glyph-name="guillemotleft" horiz-adv-x="577" d="M47 267L48 277Q75 286 112 304T204 361T290 444H296Q301 429 301 411Q301 376 263 329T183 262V257Q223 238 262 190T301 107L296 74H290Q262 119 218 151T137 198T74 229T47 267ZM282
259L283 284Q301 291 323 302T380 333T449 383T505 444H511Q516 429 516 411Q516 376 478 329T398 262V257Q438 238 477 190T516 107L511 74H505Q480 117 439 148T365 193T307 223T282 259Z" />
<glyph unicode="&#xac;" glyph-name="logicalnot" horiz-adv-x="836" d="M31 302V303Q51 342 125 364Q150 372 181 372Q214 372 230 360L229 354Q208 347 187 336T148 311T118 286T94 263T79 248Q62 254 49 267Q31 288 31 302ZM155 603Q155 634 180 656H183Q228
656 280 606Q330 556 330 516V511L324 510Q308 525 288 537T246 558T210 572T178 581T158 587Q155 599 155 603ZM188 243V251Q212 257 252 281Q292 301 321 330Q277 356 244 399T210 487V490L216 494Q226 483 273 452Q318 427 351 417Q352 469 373 521T435 594L439
591Q434 564 434 521Q434 483 440 437Q523 472 567 472Q605 472 637 452V447Q600 434 574 417Q536 397 505 366Q550 336 583 295T616 208V206L609 204Q580 231 552 243Q518 263 476 278Q473 222 452 172T391 101L386 106Q392 132 392 177Q392 228 385 257Q323 226
258 226Q219 226 188 243ZM248 51Q248 80 257 109Q275 180 313 198L316 195Q311 167 311 141Q311 121 314 98T320 61T328 31T334 12Q316 -8 283 -8Q272 -8 261 -5Q248 16 248 51ZM488 688Q509 707 539 707Q553 707 561 705Q575 680 575 648Q575 620 566 591Q548
520 510 502L506 505Q511 528 511 559Q511 632 488 688ZM494 184V189L499 190Q516 175 536 163T577 142T613 128T646 119T666 113Q668 105 668 98Q668 66 644 44H640Q596 44 542 94Q494 144 494 184ZM593 341L594 346Q609 351 624 358T654 375T679 392T701 411T719
428T734 443T744 453Q763 445 775 433Q791 413 792 397Q775 366 730 347T641 328Q610 328 593 341Z" />
<glyph unicode="&#xae;" glyph-name="registered" horiz-adv-x="553" d="M35 521Q35 632 106 701T294 770Q392 770 455 705T518 542Q518 432 449 363T264 293Q164 293 100 358T35 521ZM87 529Q87 445 142 389T282 333Q358 333 413 390T469 534Q469 621 416 676T279
731Q199 731 143 674T87 529ZM181 408Q188 420 188 513Q188 583 186 631L181 673Q201 672 216 672H263Q310 672 335 653T360 603Q360 578 346 557T309 534L308 531Q318 527 333 502Q363 453 377 436T403 415V410Q385 404 362 404Q340 404 325 420T303 456T279 497T240
528V513Q240 503 241 477T242 431Q242 404 213 404Q208 404 197 406T181 408ZM240 549Q254 546 267 546Q313 546 313 595Q313 648 248 648H241Q240 617 240 549Z" />
<glyph unicode="&#xaf;" glyph-name="overscore" horiz-adv-x="400" d="M36 647Q36 690 59 690Q153 685 251 685Q332 685 360 690Q364 670 364 645Q364 613 350 613Q256 617 155 617Q67 617 39 613Q36 629 36 647Z" />
<glyph unicode="&#xb0;" glyph-name="degree" horiz-adv-x="373" d="M33 489T33 550T78 655T185 700Q247 700 293 656T340 550T294 445T185 400Q124 400 79 444ZM96 552Q96 516 122 486T186 455Q227 455 252 485T277 552Q277 588 249 615T186 642Q149 642 123
616T96 552Z" />
<glyph unicode="&#xb1;" glyph-name="plusminus" horiz-adv-x="442" d="M39 -53Q39 -10 62 -10Q186 -15 284 -15Q365 -15 393 -10Q397 -30 397 -55Q397 -87 383 -87Q259 -83 158 -83Q70 -83 42 -87Q39 -71 39 -53ZM42 291Q42 334 65 334Q122 331 187 330V361Q187
442 182 470Q202 474 227 474Q259 474 259 460Q256 398 255 329H287Q368 329 396 334Q400 314 400 289Q400 257 386 257Q324 259 255 260V235Q255 147 259 119Q243 116 225 116Q182 116 182 139Q184 196 186 261H161Q73 261 45 257Q42 273 42 291Z" />
<glyph unicode="&#xb2;" glyph-name="uni00B2" horiz-adv-x="333" d="M40 445Q43 470 59 492T97 532T139 567T174 608T188 658Q188 708 143 708Q120 708 99 696T69 672L60 660L56 665Q59 707 89 732T158 757Q207 757 234 731T261 668Q261 637 244 610T207 567T155
529T110 497L113 493Q143 502 237 502Q272 502 280 493T292 448Q293 443 293 440Q231 445 169 445H116Q72 445 44 442L40 445Z" />
<glyph unicode="&#xb3;" glyph-name="uni00B3" horiz-adv-x="296" d="M38 511L44 516Q75 488 121 488Q151 488 167 501T184 534Q184 555 165 571T112 590Q95 590 95 603L98 620L134 626Q154 629 166 642T179 671Q179 687 166 697T127 708Q104 708 84 696T56 672L47
660L43 665Q45 709 76 733T150 757Q193 757 220 737T248 682Q248 640 193 615V610Q256 593 256 540Q256 494 223 467T137 440Q103 440 76 458T38 511Z" />
<glyph unicode="&#xb4;" glyph-name="acute" horiz-adv-x="400" d="M92 575V580Q176 627 230 749Q245 749 258 744T280 732T295 718T304 706L307 701Q295 653 233 612T123 571Q101 571 92 575Z" />
<glyph unicode="&#xb5;" glyph-name="mu" horiz-adv-x="815" d="M38 343Q38 499 143 606T410 714Q566 714 672 610T778 355Q778 199 673 92T406 -16Q250 -16 144 88T38 343ZM99 346Q99 278 125 218Q126 249 160 289T228 345V351Q195 366 162 406T125 477Q99 417
99 346ZM139 194Q190 197 238 223T319 274T369 298Q380 298 385 294L392 288Q384 248 384 191Q384 102 409 40Q432 92 432 156Q432 178 429 211T426 257Q426 291 443 300L453 305Q483 277 548 240T676 195Q651 231 613 258T544 297T491 324T468 356L469 366Q507
378 572 415T677 503Q637 501 598 484T534 449T485 415T447 399Q440 399 432 404L424 409Q432 454 432 507Q432 595 408 659Q383 608 383 542Q383 520 386 486T390 440Q390 407 373 397L364 394Q242 491 139 503Q164 467 203 440T272 401T325 374T348 341L347 333Q307
319 243 282T139 194ZM152 169Q190 113 249 79T381 38Q356 53 338 97T320 181Q320 182 320 186T321 192L317 195Q272 161 198 161Q173 161 152 169ZM154 529Q173 537 198 537Q264 537 316 503L320 505Q319 512 319 515Q319 553 338 598T381 660Q312 654 253 620T154
529ZM434 38Q503 43 562 77T661 167Q643 161 619 161Q549 161 501 195L496 193V181Q496 143 478 98T434 38ZM435 660Q460 643 478 599T496 516V506L499 503Q549 537 618 537Q647 537 664 527Q626 584 567 619T435 660ZM588 346Q621 332 654 292T690 221Q717 283
717 352Q717 417 691 479Q689 449 656 409T588 352V346Z" />
<glyph unicode="&#xb6;" glyph-name="paragraph" horiz-adv-x="639" d="M42 427Q42 540 122 620T317 700H498Q602 700 613 708Q607 671 596 659T541 643Q536 248 536 228Q536 174 537 69T540 -120L541 -202H479Q483 304 483 367Q483 532 478 640H414Q409 450 409
228Q409 174 410 69T412 -120L414 -202H350Q351 -80 351 114L352 155L349 159Q323 148 291 148Q187 148 115 233T42 427Z" />
<glyph unicode="&#xb7;" glyph-name="middot" horiz-adv-x="245" d="M55 282Q55 310 75 330T122 350Q150 350 170 330T190 282Q190 255 170 235T122 215Q95 215 75 235T55 282Z" />
<glyph unicode="&#xb8;" glyph-name="cedilla" horiz-adv-x="400" d="M104 -180Q104 -169 108 -158L112 -156Q127 -179 179 -179Q204 -179 216 -168T228 -144Q228 -131 215 -124T187 -113T159 -101T146 -76Q146 -61 157 -42T178 -12L189 0Q194 4 203 4Q215 4 220
0Q198 -31 198 -49Q198 -58 213 -63T246 -71T280 -89T295 -131Q295 -174 265 -202T182 -231Q146 -231 125 -218T104 -180Z" />
<glyph unicode="&#xb9;" glyph-name="uni00B9" horiz-adv-x="269" d="M35 458Q35 466 42 470T65 476T88 481L98 484Q103 554 103 606Q103 687 97 701Q88 719 54 721Q39 722 37 727Q36 730 36 737L38 752H211Q234 752 234 734V720Q187 720 176 708T165 645Q165
495 166 485L178 482Q183 481 193 479T208 476T220 472T230 467T233 458L232 445H37Q35 454 35 458Z" />
<glyph unicode="&#xba;" glyph-name="ordmasculine" horiz-adv-x="404" d="M36 537Q36 615 91 662T217 710Q281 710 325 670T370 552Q370 470 315 421T188 372Q124 372 80 414T36 537ZM122 548Q122 484 147 446T207 408Q238 408 260 440T283 532Q283 598 257 638T197
678Q166 678 144 645T122 548Z" />
<glyph unicode="&#xbb;" glyph-name="guillemotright" horiz-adv-x="578" d="M63 107Q63 142 102 190T181 257V262Q140 282 102 329T63 411L68 444H74Q96 412 129 383T198 334T256 302T296 284Q297 269 297 259Q297 240 272 224T214 194T140 149T74 74H68Q63 88
63 107ZM278 107Q278 142 317 190T396 257V262Q355 282 317 329T278 411L283 444H289Q319 401 374 362T467 304T531 277Q532 271 532 267Q532 247 505 230T442 198T362 152T289 74H283Q278 88 278 107Z" />
<glyph unicode="&#xbc;" glyph-name="onequarter" horiz-adv-x="456" d="M53 380Q53 408 76 408Q139 403 210 403H298Q379 403 407 408Q411 394 411 378Q411 346 397 346Q336 350 264 350H172Q77 350 56 346Q53 362 53 380ZM86 108L220 307Q241 314 253 314Q270
314 281 304T293 276Q293 185 292 136Q327 136 346 141V117Q346 99 339 91T322 81T292 79V72Q292 65 292 53T293 33Q293 9 286 1T262 -7Q250 -7 220 -4Q227 20 228 82H122Q110 82 101 88T89 102L86 108ZM138 463Q138 471 145 475T168 481T191 486L201 489Q206 559
206 611Q206 692 200 706Q191 724 157 726Q142 727 140 732Q139 735 139 742L141 757H314Q337 757 337 739V725Q290 725 279 713T268 650Q268 500 269 490L281 487Q286 486 296 484T311 481T323 477T333 472T336 463L335 450H140Q138 459 138 463ZM152 139L155
135Q176 137 228 137Q228 217 230 248L225 250L152 139Z" />
<glyph unicode="&#xbd;" glyph-name="onehalf" horiz-adv-x="458" d="M50 383Q50 411 73 411Q136 406 207 406H295Q376 406 404 411Q408 397 408 381Q408 349 394 349Q333 353 261 353H169Q74 353 53 349Q50 365 50 383ZM107 0Q110 25 126 47T164 87T206 122T241
163T255 213Q255 263 210 263Q187 263 166 251T136 227L127 215L123 220Q126 262 156 287T225 312Q274 312 301 286T328 223Q328 192 311 165T274 122T222 84T177 52L180 48Q210 57 304 57Q339 57 347 48T359 3Q360 -2 360 -5Q298 0 236 0H183Q139 0 111 -3L107
0ZM135 463Q135 471 142 475T165 481T188 486L198 489Q203 559 203 611Q203 692 197 706Q188 724 154 726Q139 727 137 732Q136 735 136 742L138 757H311Q334 757 334 739V725Q287 725 276 713T265 650Q265 500 266 490L278 487Q283 486 293 484T308 481T320 477T330
472T333 463L332 450H137Q135 459 135 463Z" />
<glyph unicode="&#xbe;" glyph-name="threequarters" horiz-adv-x="440" d="M46 380Q46 408 69 408Q132 403 203 403Q372 403 400 408Q404 394 404 378Q404 346 390 346Q329 350 257 350Q70 350 49 346Q46 362 46 380ZM80 108L214 307Q235 314 247 314Q264 314
275 304T287 276Q287 185 286 136Q321 136 340 141V117Q340 99 333 91T316 81T286 79V72Q286 65 286 53T287 33Q287 9 280 1T256 -7Q244 -7 214 -4Q221 20 222 82H116Q104 82 95 88T83 102L80 108ZM116 511L122 516Q153 488 199 488Q229 488 245 501T262 534Q262
555 243 571T190 590Q173 590 173 603L176 620L212 626Q232 629 244 642T257 671Q257 687 244 697T205 708Q182 708 162 696T134 672L125 660L121 665Q123 709 154 733T228 757Q271 757 298 737T326 682Q326 640 271 615V610Q334 593 334 540Q334 494 301 467T215
440Q181 440 154 458T116 511ZM146 139L149 135Q170 137 222 137Q222 217 224 248L219 250L146 139Z" />
<glyph unicode="&#xbf;" glyph-name="questiondown" horiz-adv-x="386" d="M36 165Q36 200 58 232T111 289T173 340T227 397T249 464T231 524Q257 528 263 528Q309 528 309 461Q309 424 293 391T253 333T206 286T166 242T149 199Q149 173 178 159T243 137T308
102T338 27Q338 10 323 -56H318Q306 -18 215 11Q36 67 36 165ZM205 654Q205 679 223 697T267 715T310 697T328 654T310 611T267 592T224 610T205 654Z" />
<glyph unicode="&#xc0;" glyph-name="Agrave" horiz-adv-x="648" d="M8 0V5Q36 26 73 130L282 713Q286 713 293 712T319 704T356 686T391 650T419 592Q454 478 508 320T596 86Q618 37 625 23T642 5V0Q604 -10 569 -10Q494 -10 477 50Q447 154 421 233Q359 235
321 235Q261 235 177 231Q166 198 155 161T138 103T124 61T110 27T94 7T73 -6T44 -10Q36 -10 27 -8T13 -2L8 0ZM193 286Q257 284 300 284Q337 284 403 286Q333 493 296 587H291Q260 496 193 286ZM205 874Q208 879 213 887T238 908T282 922Q336 800 420 753V748Q411
744 389 744Q342 744 280 785T205 874Z" />
<glyph unicode="&#xc1;" glyph-name="Aacute" horiz-adv-x="648" d="M8 0V5Q36 26 73 130L282 713Q286 713 293 712T319 704T356 686T391 650T419 592Q454 478 508 320T596 86Q618 37 625 23T642 5V0Q604 -10 569 -10Q494 -10 477 50Q447 154 421 233Q359 235
321 235Q261 235 177 231Q166 198 155 161T138 103T124 61T110 27T94 7T73 -6T44 -10Q36 -10 27 -8T13 -2L8 0ZM193 286Q257 284 300 284Q337 284 403 286Q333 493 296 587H291Q260 496 193 286ZM205 748V753Q289 800 343 922Q358 922 371 917T393 905T408 891T418
879L420 874Q408 826 346 785T236 744Q214 744 205 748Z" />
<glyph unicode="&#xc2;" glyph-name="Acircumflex" horiz-adv-x="648" d="M8 0V5Q36 26 73 130L282 713Q286 713 293 712T319 704T356 686T391 650T419 592Q454 478 508 320T596 86Q618 37 625 23T642 5V0Q604 -10 569 -10Q494 -10 477 50Q447 154 421 233Q359
235 321 235Q261 235 177 231Q166 198 155 161T138 103T124 61T110 27T94 7T73 -6T44 -10Q36 -10 27 -8T13 -2L8 0ZM135 748V753Q175 776 210 814T259 877T283 922Q295 925 305 925Q329 925 347 906T377 862T417 805T485 753V748Q476 744 454 744Q421 744 376 773T312
831H307Q289 802 244 773T166 744Q144 744 135 748ZM193 286Q257 284 300 284Q337 284 403 286Q333 493 296 587H291Q260 496 193 286Z" />
<glyph unicode="&#xc3;" glyph-name="Atilde" horiz-adv-x="648" d="M8 0V5Q36 26 73 130L282 713Q286 713 293 712T319 704T356 686T391 650T419 592Q454 478 508 320T596 86Q618 37 625 23T642 5V0Q604 -10 569 -10Q494 -10 477 50Q447 154 421 233Q359 235
321 235Q261 235 177 231Q166 198 155 161T138 103T124 61T110 27T94 7T73 -6T44 -10Q36 -10 27 -8T13 -2L8 0ZM132 787Q140 830 171 855T250 881Q287 881 340 858T420 834Q453 834 492 868Q484 825 453 799T374 773Q336 773 283 797T204 821Q171 821 132 787ZM193
286Q257 284 300 284Q337 284 403 286Q333 493 296 587H291Q260 496 193 286Z" />
<glyph unicode="&#xc4;" glyph-name="Adieresis" horiz-adv-x="648" d="M8 0V5Q36 26 73 130L282 713Q286 713 293 712T319 704T356 686T391 650T419 592Q454 478 508 320T596 86Q618 37 625 23T642 5V0Q604 -10 569 -10Q494 -10 477 50Q447 154 421 233Q359 235
321 235Q261 235 177 231Q166 198 155 161T138 103T124 61T110 27T94 7T73 -6T44 -10Q36 -10 27 -8T13 -2L8 0ZM157 818T157 842T174 883T216 901T257 884T275 842T258 801T216 783T175 800ZM193 286Q257 284 300 284Q337 284 403 286Q333 493 296 587H291Q260
496 193 286ZM350 818T350 842T367 883T408 901Q433 901 450 884T468 842T451 801T408 783Q385 783 368 800Z" />
<glyph unicode="&#xc5;" glyph-name="Aring" horiz-adv-x="648" d="M8 0V5Q36 26 73 130L282 713Q286 713 293 712T319 704T356 686T391 650T419 592Q454 478 508 320T596 86Q618 37 625 23T642 5V0Q604 -10 569 -10Q494 -10 477 50Q447 154 421 233Q359 235 321
235Q261 235 177 231Q166 198 155 161T138 103T124 61T110 27T94 7T73 -6T44 -10Q36 -10 27 -8T13 -2L8 0ZM193 286Q257 284 300 284Q337 284 403 286Q333 493 296 587H291Q260 496 193 286ZM223 799T223 835T249 897T312 923T375 897T403 835T376 773T312 747T250
773ZM260 836Q260 815 275 797T313 779Q337 779 351 796T366 836Q366 857 350 873T313 889Q291 889 276 874T260 836Z" />
<glyph unicode="&#xc6;" glyph-name="AE" horiz-adv-x="871" d="M0 0Q9 8 18 20T34 40T49 66T61 90T75 118T87 144L344 708Q404 700 449 700H565Q633 700 688 702T765 708L786 710Q783 686 781 676T771 651T747 632T705 627Q652 627 605 631T536 639L515 643Q515
595 513 397H667Q685 397 700 399T720 404L726 407Q724 367 713 350T666 333L512 339V235Q512 205 514 148T516 66L699 71Q796 74 833 93Q834 82 834 65Q834 19 816 7T739 -5L386 0Q396 27 397 234H384Q272 234 200 231L159 127Q122 37 102 14T37 -10Q25 -10 16
-8T4 -2L0 0ZM221 286Q253 285 338 285H397Q393 545 391 595L388 646L381 648Q361 602 300 467T221 286Z" />
<glyph unicode="&#xc7;" glyph-name="Ccedilla" horiz-adv-x="703" d="M56 326Q56 426 98 513T224 658T418 715Q495 715 568 688T642 620Q642 604 630 580T602 540H596Q559 598 505 628T393 659Q303 659 241 585T179 374Q179 295 205 229T290 118T427 73Q557 73
655 155L658 152Q644 83 570 34T401 -15Q396 -15 388 -15T375 -14Q362 -33 362 -49Q362 -58 377 -63T410 -71T444 -89T459 -131Q459 -174 429 -202T346 -231Q310 -231 289 -218T268 -180Q268 -169 272 -158L276 -156Q291 -179 343 -179Q368 -179 380 -168T392 -144Q392
-131 379 -124T351 -113T323 -101T310 -76Q310 -51 342 -11Q203 7 130 102T56 326Z" />
<glyph unicode="&#xc8;" glyph-name="Egrave" horiz-adv-x="582" d="M92 700H276Q344 700 399 702T476 708L497 710Q494 686 492 676T482 651T458 632T416 627Q363 627 316 631T247 639L226 643Q226 595 224 397H378Q396 397 411 399T432 404L437 407Q435 367
424 350T377 333L223 339V235Q223 205 225 148T227 66L410 71Q507 74 544 93Q545 82 545 65Q545 19 527 7T450 -5L97 0Q108 28 108 277Q108 451 102 595Q101 622 100 643T97 674T94 690T92 698V700ZM200 874Q203 879 208 887T233 908T277 922Q331 800 415 753V748Q406
744 384 744Q337 744 275 785T200 874Z" />
<glyph unicode="&#xc9;" glyph-name="Eacute" horiz-adv-x="582" d="M92 700H276Q344 700 399 702T476 708L497 710Q494 686 492 676T482 651T458 632T416 627Q363 627 316 631T247 639L226 643Q226 595 224 397H378Q396 397 411 399T432 404L437 407Q435 367
424 350T377 333L223 339V235Q223 205 225 148T227 66L410 71Q507 74 544 93Q545 82 545 65Q545 19 527 7T450 -5L97 0Q108 28 108 277Q108 451 102 595Q101 622 100 643T97 674T94 690T92 698V700ZM200 748V753Q284 800 338 922Q353 922 366 917T388 905T403 891T412
879L415 874Q403 826 341 785T231 744Q209 744 200 748Z" />
<glyph unicode="&#xca;" glyph-name="Ecircumflex" horiz-adv-x="582" d="M92 700H276Q344 700 399 702T476 708L497 710Q494 686 492 676T482 651T458 632T416 627Q363 627 316 631T247 639L226 643Q226 595 224 397H378Q396 397 411 399T432 404L437 407Q435
367 424 350T377 333L223 339V235Q223 205 225 148T227 66L410 71Q507 74 544 93Q545 82 545 65Q545 19 527 7T450 -5L97 0Q108 28 108 277Q108 451 102 595Q101 622 100 643T97 674T94 690T92 698V700ZM130 748V753Q170 776 205 814T254 877T278 922Q290 925 300
925Q324 925 342 906T372 862T412 805T480 753V748Q471 744 449 744Q416 744 371 773T307 831H302Q284 802 239 773T161 744Q139 744 130 748Z" />
<glyph unicode="&#xcb;" glyph-name="Edieresis" horiz-adv-x="582" d="M92 700H276Q344 700 399 702T476 708L497 710Q494 686 492 676T482 651T458 632T416 627Q363 627 316 631T247 639L226 643Q226 595 224 397H378Q396 397 411 399T432 404L437 407Q435 367
424 350T377 333L223 339V235Q223 205 225 148T227 66L410 71Q507 74 544 93Q545 82 545 65Q545 19 527 7T450 -5L97 0Q108 28 108 277Q108 451 102 595Q101 622 100 643T97 674T94 690T92 698V700ZM152 818T152 842T169 883T211 901T252 884T270 842T253 801T211
783T170 800ZM345 818T345 842T362 883T403 901Q428 901 445 884T463 842T446 801T403 783Q380 783 363 800Z" />
<glyph unicode="&#xcc;" glyph-name="Igrave" horiz-adv-x="323" d="M49 874Q52 879 57 887T82 908T126 922Q180 800 264 753V748Q255 744 233 744Q186 744 124 785T49 874ZM89 701Q120 710 144 710Q179 710 201 694T223 648Q223 604 221 521T219 395Q219 135
236 2Q174 -8 169 -8Q104 -8 104 60V368Q104 488 99 595Q97 638 95 664T90 696L89 701Z" />
<glyph unicode="&#xcd;" glyph-name="Iacute" horiz-adv-x="323" d="M49 748V753Q133 800 187 922Q202 922 215 917T237 905T252 891T262 879L264 874Q252 826 190 785T80 744Q58 744 49 748ZM89 701Q120 710 144 710Q179 710 201 694T223 648Q223 604 221 521T219
395Q219 135 236 2Q174 -8 169 -8Q104 -8 104 60V368Q104 488 99 595Q97 638 95 664T90 696L89 701Z" />
<glyph unicode="&#xce;" glyph-name="Icircumflex" horiz-adv-x="323" d="M-21 748V753Q19 776 54 814T103 877T127 922Q139 925 149 925Q173 925 191 906T221 862T261 805T329 753V748Q320 744 298 744Q265 744 220 773T156 831H151Q133 802 88 773T10 744Q-12
744 -21 748ZM89 701Q120 710 144 710Q179 710 201 694T223 648Q223 604 221 521T219 395Q219 135 236 2Q174 -8 169 -8Q104 -8 104 60V368Q104 488 99 595Q97 638 95 664T90 696L89 701Z" />
<glyph unicode="&#xcf;" glyph-name="Idieresis" horiz-adv-x="323" d="M1 818T1 842T18 883T60 901T101 884T119 842T102 801T60 783T19 800ZM89 701Q120 710 144 710Q179 710 201 694T223 648Q223 604 221 521T219 395Q219 135 236 2Q174 -8 169 -8Q104 -8 104
60V368Q104 488 99 595Q97 638 95 664T90 696L89 701ZM194 818T194 842T211 883T252 901Q277 901 294 884T312 842T295 801T252 783Q229 783 212 800Z" />
<glyph unicode="&#xd0;" glyph-name="Eth" horiz-adv-x="815" d="M54 349Q54 375 61 383T89 391H130L125 595Q124 622 123 643T120 674T117 690T116 698L115 700H337Q403 700 461 690T574 655T670 592T734 492T759 351Q759 196 662 94T419 -9Q384 -9 298 -5T120
0Q131 28 131 277V319Q74 317 57 315Q54 331 54 349ZM246 281Q246 190 249 97Q250 50 387 50Q499 50 564 131T630 332Q630 416 602 479T525 577T419 630T298 647Q265 647 249 646Q247 508 246 387H319Q407 387 435 391Q438 375 438 357Q438 331 431 323T403 315Q373
315 315 316T246 318V281Z" />
<glyph unicode="&#xd1;" glyph-name="Ntilde" horiz-adv-x="763" d="M91 700Q115 708 142 708Q183 708 194 691Q238 626 300 552L494 318Q581 212 594 185L598 189Q596 226 595 383T590 595Q588 638 586 664T582 696L580 701Q597 710 617 710Q647 710 655 697T663
653Q663 597 661 470T658 259Q658 40 667 0Q645 -6 618 -6Q589 -6 571 21Q537 74 461 165L263 402Q174 510 168 533L164 529Q164 452 168 297T173 59Q173 16 167 4T136 -9Q127 -9 116 -7T98 -2L92 1Q107 28 107 277Q107 451 101 595Q100 622 99 643T96 674T93 690T92
698L91 700ZM199 787Q207 830 238 855T317 881Q354 881 407 858T487 834Q520 834 559 868Q551 825 520 799T441 773Q403 773 350 797T271 821Q238 821 199 787Z" />
<glyph unicode="&#xd2;" glyph-name="Ograve" horiz-adv-x="821" d="M56 333Q56 408 79 476T147 597T261 683T418 715Q529 715 610 667T728 546T766 387Q766 309 743 238T675 110T561 19T404 -15Q240 -15 148 87T56 333ZM185 357Q185 275 211 204T291 87T418 40Q486
40 537 88T613 208T637 363Q637 439 611 505T531 616T403 660Q335 660 284 615T209 503T185 357ZM306 874Q309 879 314 887T339 908T383 922Q437 800 521 753V748Q512 744 490 744Q443 744 381 785T306 874Z" />
<glyph unicode="&#xd3;" glyph-name="Oacute" horiz-adv-x="821" d="M56 333Q56 408 79 476T147 597T261 683T418 715Q529 715 610 667T728 546T766 387Q766 309 743 238T675 110T561 19T404 -15Q240 -15 148 87T56 333ZM185 357Q185 275 211 204T291 87T418 40Q486
40 537 88T613 208T637 363Q637 439 611 505T531 616T403 660Q335 660 284 615T209 503T185 357ZM306 748V753Q390 800 444 922Q459 922 472 917T494 905T509 891T518 879L521 874Q509 826 447 785T337 744Q315 744 306 748Z" />
<glyph unicode="&#xd4;" glyph-name="Ocircumflex" horiz-adv-x="821" d="M56 333Q56 408 79 476T147 597T261 683T418 715Q529 715 610 667T728 546T766 387Q766 309 743 238T675 110T561 19T404 -15Q240 -15 148 87T56 333ZM185 357Q185 275 211 204T291 87T418
40Q486 40 537 88T613 208T637 363Q637 439 611 505T531 616T403 660Q335 660 284 615T209 503T185 357ZM236 748V753Q276 776 311 814T360 877T384 922Q396 925 406 925Q430 925 448 906T478 862T518 805T586 753V748Q577 744 555 744Q522 744 477 773T413 831H408Q390
802 345 773T267 744Q245 744 236 748Z" />
<glyph unicode="&#xd5;" glyph-name="Otilde" horiz-adv-x="821" d="M56 333Q56 408 79 476T147 597T261 683T418 715Q529 715 610 667T728 546T766 387Q766 309 743 238T675 110T561 19T404 -15Q240 -15 148 87T56 333ZM185 357Q185 275 211 204T291 87T418 40Q486
40 537 88T613 208T637 363Q637 439 611 505T531 616T403 660Q335 660 284 615T209 503T185 357ZM233 787Q241 830 272 855T351 881Q388 881 441 858T521 834Q554 834 593 868Q585 825 554 799T475 773Q437 773 384 797T305 821Q272 821 233 787Z" />
<glyph unicode="&#xd6;" glyph-name="Odieresis" horiz-adv-x="821" d="M56 333Q56 408 79 476T147 597T261 683T418 715Q529 715 610 667T728 546T766 387Q766 309 743 238T675 110T561 19T404 -15Q240 -15 148 87T56 333ZM185 357Q185 275 211 204T291 87T418
40Q486 40 537 88T613 208T637 363Q637 439 611 505T531 616T403 660Q335 660 284 615T209 503T185 357ZM258 818T258 842T275 883T317 901T358 884T376 842T359 801T317 783T276 800ZM451 818T451 842T468 883T509 901Q534 901 551 884T569 842T552 801T509 783Q486
783 469 800Z" />
<glyph unicode="&#xd7;" glyph-name="multiply" horiz-adv-x="437" d="M47 414Q79 461 95 461Q103 461 116 449T162 400T218 340L241 363Q312 434 337 466Q385 436 385 415Q385 410 370 396T323 351T264 294L282 277Q299 261 323 237T363 197T389 175Q360 131
336 131Q330 131 319 142T268 195Q238 227 218 249L200 231Q114 145 98 124Q54 153 54 177Q54 185 86 215Q95 223 120 246Q151 275 172 295L150 318Q119 350 47 414Z" />
<glyph unicode="&#xd8;" glyph-name="Oslash" horiz-adv-x="821" d="M56 333Q56 408 79 476T147 597T261 683T418 715Q509 715 584 680Q618 734 632 764Q682 741 682 725Q682 722 647 670L634 652Q698 607 732 537T766 387Q766 309 743 238T675 110T561 19T404
-15Q300 -15 221 29Q179 -33 167 -59Q120 -39 120 -15Q120 -9 137 15L171 65Q56 164 56 333ZM185 357Q185 242 233 157L538 610Q480 660 403 660Q335 660 284 615T209 503T185 357ZM271 105Q331 40 418 40Q486 40 537 88T613 208T637 363Q637 481 577 567L271 105Z"
/>
<glyph unicode="&#xd9;" glyph-name="Ugrave" horiz-adv-x="749" d="M84 701Q121 710 139 710Q174 710 196 694T218 648Q218 615 218 478T217 297Q217 176 266 111T403 45Q489 45 538 110T588 297Q588 583 577 701Q607 710 622 710Q648 710 654 696T661 648Q661
604 657 478T653 310Q653 -15 378 -15Q248 -15 172 63T96 304Q96 408 95 486T92 603T88 664T85 693T84 701ZM279 874Q282 879 287 887T312 908T356 922H360Q414 800 498 753V748Q490 744 470 744H467H463Q416 744 354 785T279 874Z" />
<glyph unicode="&#xda;" glyph-name="Uacute" horiz-adv-x="749" d="M84 701Q121 710 139 710Q174 710 196 694T218 648Q218 615 218 478T217 297Q217 176 266 111T403 45Q489 45 538 110T588 297Q588 583 577 701Q607 710 622 710Q648 710 654 696T661 648Q661
604 657 478T653 310Q653 -15 378 -15Q248 -15 172 63T96 304Q96 408 95 486T92 603T88 664T85 693T84 701ZM279 748V753Q363 800 417 922Q432 922 445 917T467 905T482 891T492 879L494 874Q482 826 420 785T310 744Q288 744 279 748Z" />
<glyph unicode="&#xdb;" glyph-name="Ucircumflex" horiz-adv-x="749" d="M84 701Q121 710 139 710Q174 710 196 694T218 648Q218 615 218 478T217 297Q217 176 266 111T403 45Q489 45 538 110T588 297Q588 583 577 701Q607 710 622 710Q648 710 654 696T661 648Q661
604 657 478T653 310Q653 -15 378 -15Q248 -15 172 63T96 304Q96 408 95 486T92 603T88 664T85 693T84 701ZM209 748V753Q249 776 284 814T333 877T357 922Q369 925 379 925Q403 925 421 906T451 862T491 805T559 753V748Q550 744 528 744Q495 744 450 773T386
831H381Q363 802 318 773T240 744Q218 744 209 748Z" />
<glyph unicode="&#xdc;" glyph-name="Udieresis" horiz-adv-x="749" d="M84 701Q121 710 139 710Q174 710 196 694T218 648Q218 615 218 478T217 297Q217 176 266 111T403 45Q489 45 538 110T588 297Q588 583 577 701Q607 710 622 710Q648 710 654 696T661 648Q661
604 657 478T653 310Q653 -15 378 -15Q248 -15 172 63T96 304Q96 408 95 486T92 603T88 664T85 693T84 701ZM231 818T231 842T248 883T290 901T331 884T349 842T332 801T290 783T249 800ZM424 818T424 842T441 883T482 901Q507 901 524 884T542 842T525 801T482
783Q459 783 442 800Z" />
<glyph unicode="&#xdd;" glyph-name="Yacute" horiz-adv-x="648" d="M12 695V700Q40 708 88 708Q135 708 152 698T186 656Q256 529 348 405H353Q389 462 424 522T475 611T510 665T545 699T584 708Q596 708 610 706T632 702L640 700V695Q606 668 577 630Q543 587
472 479T382 336Q382 128 399 0Q336 -10 332 -10Q267 -10 267 58V334Q246 356 207 414T123 543T61 639Q52 652 40 666T20 688L12 695ZM226 748V753Q310 800 364 922Q379 922 392 917T414 905T429 891T438 879L441 874Q429 826 367 785T257 744Q235 744 226 748Z"
/>
<glyph unicode="&#xde;" glyph-name="Thorn" horiz-adv-x="580" d="M89 701Q120 710 144 710Q179 710 201 694T223 648Q223 597 222 572H287Q415 572 482 512T549 368Q549 262 464 202T268 141H223Q228 65 236 2Q174 -8 169 -8Q104 -8 104 60V368Q104 488 99 595Q97
638 95 664T90 696L89 701ZM219 395Q219 258 221 190H248Q332 190 380 240T429 359Q429 425 382 472T248 519H221Q219 435 219 395Z" />
<glyph unicode="&#xdf;" glyph-name="germandbls" horiz-adv-x="649" d="M12 -217Q47 -206 64 -177T92 -52T103 233Q103 368 95 407T57 458L31 468V500Q103 500 103 563Q103 652 175 703T341 755Q416 755 468 719T520 613Q520 578 499 544T451 488T404 438T382
386Q382 364 407 346T468 313T540 277T601 222T626 139Q626 67 572 26T445 -15Q400 -15 338 4T275 56Q275 81 300 121H305Q307 118 311 113T331 93T362 68T403 48T456 39Q496 39 515 59T534 108Q534 132 509 152T448 190T376 227T315 282T290 360Q290 391 302 415T331
457T366 493T396 541T408 607T387 674T328 705Q303 705 283 696T251 675T229 638T216 596T209 545T207 494T206 440Q206 377 206 225T207 -30Q207 -106 165 -168T48 -230Q30 -230 12 -222V-217Z" />
<glyph unicode="&#xe0;" glyph-name="agrave" horiz-adv-x="505" d="M36 119Q36 170 62 209T132 268T219 298T308 309V318Q308 385 288 417T212 449Q141 449 74 389L70 393Q82 440 136 477T255 515Q306 515 339 501T389 460T410 406T416 339Q416 313 415 253T413
164V152Q413 41 463 41Q472 41 481 44T496 52L501 55L505 52Q504 49 502 45T491 31T471 12T439 -3T394 -10Q359 -10 335 6T309 60L305 62Q287 29 251 7T169 -15Q108 -15 72 23T36 119ZM137 701Q140 706 145 714T170 735T214 749Q268 627 352 580V575Q343 571 321
571Q274 571 212 612T137 701ZM149 138Q149 96 168 76T216 56Q244 56 274 77T305 125Q305 144 306 193T308 269Q287 265 275 263T235 250T192 228T163 192T149 138Z" />
<glyph unicode="&#xe1;" glyph-name="aacute" horiz-adv-x="505" d="M36 119Q36 170 62 209T132 268T219 298T308 309V318Q308 385 288 417T212 449Q141 449 74 389L70 393Q82 440 136 477T255 515Q306 515 339 501T389 460T410 406T416 339Q416 313 415 253T413
164V152Q413 41 463 41Q472 41 481 44T496 52L501 55L505 52Q504 49 502 45T491 31T471 12T439 -3T394 -10Q359 -10 335 6T309 60L305 62Q287 29 251 7T169 -15Q108 -15 72 23T36 119ZM137 575V580Q221 627 275 749Q290 749 303 744T325 732T340 718T350 706L352
701Q340 653 278 612T168 571Q146 571 137 575ZM149 138Q149 96 168 76T216 56Q244 56 274 77T305 125Q305 144 306 193T308 269Q287 265 275 263T235 250T192 228T163 192T149 138Z" />
<glyph unicode="&#xe2;" glyph-name="acircumflex" horiz-adv-x="505" d="M36 119Q36 170 62 209T132 268T219 298T308 309V318Q308 385 288 417T212 449Q141 449 74 389L70 393Q82 440 136 477T255 515Q306 515 339 501T389 460T410 406T416 339Q416 313 415
253T413 164V152Q413 41 463 41Q472 41 481 44T496 52L501 55L505 52Q504 49 502 45T491 31T471 12T439 -3T394 -10Q359 -10 335 6T309 60L305 62Q287 29 251 7T169 -15Q108 -15 72 23T36 119ZM67 575V580Q107 603 142 641T191 704T215 749Q227 752 237 752Q261
752 279 733T309 689T349 632T417 580V575Q408 571 386 571Q353 571 308 600T244 658H239Q221 629 176 600T98 571Q76 571 67 575ZM149 138Q149 96 168 76T216 56Q244 56 274 77T305 125Q305 144 306 193T308 269Q287 265 275 263T235 250T192 228T163 192T149
138Z" />
<glyph unicode="&#xe3;" glyph-name="atilde" horiz-adv-x="505" d="M36 119Q36 170 62 209T132 268T219 298T308 309V318Q308 385 288 417T212 449Q141 449 74 389L70 393Q82 440 136 477T255 515Q306 515 339 501T389 460T410 406T416 339Q416 313 415 253T413
164V152Q413 41 463 41Q472 41 481 44T496 52L501 55L505 52Q504 49 502 45T491 31T471 12T439 -3T394 -10Q359 -10 335 6T309 60L305 62Q287 29 251 7T169 -15Q108 -15 72 23T36 119ZM64 614Q72 657 103 682T182 708Q219 708 272 685T352 661Q385 661 424 695Q416
652 385 626T306 600Q268 600 215 624T136 648Q103 648 64 614ZM149 138Q149 96 168 76T216 56Q244 56 274 77T305 125Q305 144 306 193T308 269Q287 265 275 263T235 250T192 228T163 192T149 138Z" />
<glyph unicode="&#xe4;" glyph-name="adieresis" horiz-adv-x="505" d="M36 119Q36 170 62 209T132 268T219 298T308 309V318Q308 385 288 417T212 449Q141 449 74 389L70 393Q82 440 136 477T255 515Q306 515 339 501T389 460T410 406T416 339Q416 313 415 253T413
164V152Q413 41 463 41Q472 41 481 44T496 52L501 55L505 52Q504 49 502 45T491 31T471 12T439 -3T394 -10Q359 -10 335 6T309 60L305 62Q287 29 251 7T169 -15Q108 -15 72 23T36 119ZM89 645T89 669T106 710T148 728T189 711T207 669T190 628T148 610T107 627ZM149
138Q149 96 168 76T216 56Q244 56 274 77T305 125Q305 144 306 193T308 269Q287 265 275 263T235 250T192 228T163 192T149 138ZM282 645T282 669T299 710T340 728Q365 728 382 711T400 669T383 628T340 610Q317 610 300 627Z" />
<glyph unicode="&#xe5;" glyph-name="aring" horiz-adv-x="505" d="M36 119Q36 170 62 209T132 268T219 298T308 309V318Q308 385 288 417T212 449Q141 449 74 389L70 393Q82 440 136 477T255 515Q306 515 339 501T389 460T410 406T416 339Q416 313 415 253T413
164V152Q413 41 463 41Q472 41 481 44T496 52L501 55L505 52Q504 49 502 45T491 31T471 12T439 -3T394 -10Q359 -10 335 6T309 60L305 62Q287 29 251 7T169 -15Q108 -15 72 23T36 119ZM149 138Q149 96 168 76T216 56Q244 56 274 77T305 125Q305 144 306 193T308
269Q287 265 275 263T235 250T192 228T163 192T149 138ZM155 626T155 662T181 724T244 750T307 724T335 662T308 600T244 574T182 600ZM192 663Q192 642 207 624T245 606Q269 606 283 623T298 663Q298 684 282 700T245 716Q223 716 208 701T192 663Z" />
<glyph unicode="&#xe6;" glyph-name="ae" horiz-adv-x="776" d="M36 119Q36 171 62 208T132 265T221 294T314 304V318Q314 384 291 416T212 449Q141 449 74 389L70 393Q82 440 136 477T255 515Q310 515 342 498T391 444H396Q454 515 542 515Q634 515 680 473T726
372Q726 306 668 275T533 244Q507 244 479 248T434 256L419 261Q419 171 461 116T578 60Q614 60 653 74T714 102L735 117L740 112Q739 107 736 99T717 68T682 29T624 -1T538 -15Q423 -15 357 72Q354 68 349 63T325 42T286 16T234 -5T169 -15Q108 -15 72 23T36 119ZM149
138Q149 96 168 76T216 56Q244 56 273 70T318 98L334 111Q308 160 308 237L309 264Q293 263 276 260T235 249T193 227T162 191T149 138ZM420 305Q420 303 434 301T470 296T513 294Q551 294 579 313T607 373T588 442T529 471Q497 471 470 437T432 365T420 305Z"
/>
<glyph unicode="&#xe7;" glyph-name="ccedilla" horiz-adv-x="523" d="M41 234Q41 352 117 433T313 515Q339 515 373 509T441 486T474 444Q474 414 439 377H434Q432 381 428 387T409 408T379 436T339 458T291 468Q245 468 213 436T169 362T157 272Q157 181 203
120T324 59Q358 59 398 75T462 108L486 124L490 120Q488 115 485 106T465 74T428 34T369 1T286 -15Q274 -35 274 -49Q274 -58 289 -63T322 -71T356 -89T371 -131Q371 -174 341 -202T258 -231Q222 -231 201 -218T180 -180Q180 -169 184 -158L188 -156Q203 -179 255
-179Q280 -179 292 -168T304 -144Q304 -131 291 -124T263 -113T235 -101T222 -76Q222 -49 253 -13Q162 -2 102 67T41 234Z" />
<glyph unicode="&#xe8;" glyph-name="egrave" horiz-adv-x="514" d="M43 127T43 237T109 431T280 515Q372 515 418 473T464 372Q464 325 433 293T361 249T271 236Q245 236 218 243T176 257L161 264L157 262Q157 170 198 115T316 60Q352 60 391 74T452 102L473
117L478 112Q477 107 474 99T455 68T420 29T362 -1T276 -15Q175 -15 109 56ZM158 310Q158 306 172 301T208 291T251 286Q289 286 317 308T345 373Q345 413 326 441T267 469Q235 469 208 437T170 369T158 310ZM164 701Q167 706 172 714T197 735T241 749Q295 627
379 580V575Q370 571 348 571Q301 571 239 612T164 701Z" />
<glyph unicode="&#xe9;" glyph-name="eacute" horiz-adv-x="514" d="M43 127T43 237T109 431T280 515Q372 515 418 473T464 372Q464 325 433 293T361 249T271 236Q245 236 218 243T176 257L161 264L157 262Q157 170 198 115T316 60Q352 60 391 74T452 102L473
117L478 112Q477 107 474 99T455 68T420 29T362 -1T276 -15Q175 -15 109 56ZM158 310Q158 306 172 301T208 291T251 286Q289 286 317 308T345 373Q345 413 326 441T267 469Q235 469 208 437T170 369T158 310ZM164 575V580Q248 627 302 749Q317 749 330 744T352
732T367 718T376 706L379 701Q367 653 305 612T195 571Q173 571 164 575Z" />
<glyph unicode="&#xea;" glyph-name="ecircumflex" horiz-adv-x="514" d="M43 127T43 237T109 431T280 515Q372 515 418 473T464 372Q464 325 433 293T361 249T271 236Q245 236 218 243T176 257L161 264L157 262Q157 170 198 115T316 60Q352 60 391 74T452 102L473
117L478 112Q477 107 474 99T455 68T420 29T362 -1T276 -15Q175 -15 109 56ZM94 575V580Q134 603 169 641T218 704T242 749Q254 752 264 752Q288 752 306 733T336 689T376 632T444 580V575Q435 571 413 571Q380 571 335 600T271 658H266Q248 629 203 600T125 571Q103
571 94 575ZM158 310Q158 306 172 301T208 291T251 286Q289 286 317 308T345 373Q345 413 326 441T267 469Q235 469 208 437T170 369T158 310Z" />
<glyph unicode="&#xeb;" glyph-name="edieresis" horiz-adv-x="514" d="M43 127T43 237T109 431T280 515Q372 515 418 473T464 372Q464 325 433 293T361 249T271 236Q245 236 218 243T176 257L161 264L157 262Q157 170 198 115T316 60Q352 60 391 74T452 102L473
117L478 112Q477 107 474 99T455 68T420 29T362 -1T276 -15Q175 -15 109 56ZM116 645T116 669T133 710T175 728T216 711T234 669T217 628T175 610T134 627ZM158 310Q158 306 172 301T208 291T251 286Q289 286 317 308T345 373Q345 413 326 441T267 469Q235 469
208 437T170 369T158 310ZM309 645T309 669T326 710T367 728Q392 728 409 711T427 669T410 628T367 610Q344 610 327 627Z" />
<glyph unicode="&#xec;" glyph-name="igrave" horiz-adv-x="292" d="M32 701Q35 706 40 714T65 735T109 749Q163 627 247 580V575Q238 571 216 571Q169 571 107 612T32 701ZM62 501Q93 510 111 510Q146 510 171 493T196 446Q196 389 194 284T191 146Q191 123 192
110T197 78T213 50T241 41Q250 41 259 44T274 52L279 55L283 52Q282 49 280 45T269 31T249 12T217 -3T172 -10Q134 -10 108 9T82 71Q82 100 84 157T86 242Q86 344 80 408T69 487T62 501Z" />
<glyph unicode="&#xed;" glyph-name="iacute" horiz-adv-x="292" d="M32 575V580Q116 627 170 749Q185 749 198 744T220 732T235 718T244 706L247 701Q235 653 173 612T63 571Q41 571 32 575ZM62 501Q93 510 111 510Q146 510 171 493T196 446Q196 389 194 284T191
146Q191 123 192 110T197 78T213 50T241 41Q250 41 259 44T274 52L279 55L283 52Q282 49 280 45T269 31T249 12T217 -3T172 -10Q134 -10 108 9T82 71Q82 100 84 157T86 242Q86 344 80 408T69 487T62 501Z" />
<glyph unicode="&#xee;" glyph-name="icircumflex" horiz-adv-x="292" d="M-38 575V580Q2 603 37 641T86 704T110 749Q122 752 132 752Q156 752 174 733T204 689T244 632T312 580V575Q303 571 281 571Q248 571 203 600T139 658H134Q116 629 71 600T-7 571Q-29
571 -38 575ZM62 501Q93 510 111 510Q146 510 171 493T196 446Q196 389 194 284T191 146Q191 123 192 110T197 78T213 50T241 41Q250 41 259 44T274 52L279 55L283 52Q282 49 280 45T269 31T249 12T217 -3T172 -10Q134 -10 108 9T82 71Q82 100 84 157T86 242Q86
344 80 408T69 487T62 501Z" />
<glyph unicode="&#xef;" glyph-name="idieresis" horiz-adv-x="292" d="M-16 645T-16 669T1 710T43 728T84 711T102 669T85 628T43 610T2 627ZM62 501Q93 510 111 510Q146 510 171 493T196 446Q196 389 194 284T191 146Q191 123 192 110T197 78T213 50T241 41Q250
41 259 44T274 52L279 55L283 52Q282 49 280 45T269 31T249 12T217 -3T172 -10Q134 -10 108 9T82 71Q82 100 84 157T86 242Q86 344 80 408T69 487T62 501ZM177 645T177 669T194 710T235 728Q260 728 277 711T295 669T278 628T235 610Q212 610 195 627Z" />
<glyph unicode="&#xf0;" glyph-name="eth" horiz-adv-x="586" d="M45 221Q45 340 116 409T293 479Q321 479 344 474T378 462L388 456L392 460Q376 548 333 616L242 572Q158 529 140 517Q131 528 125 541Q117 556 117 566Q117 580 139 590L294 663Q251 700 199
700Q173 700 147 687T108 662L94 649L88 652Q88 656 88 663T96 690T117 723T159 749T227 761Q313 761 381 706Q455 742 476 757Q485 746 492 732T499 708Q499 695 477 684Q460 675 426 659Q475 597 501 511T528 339Q528 235 505 159T425 34T280 -15Q164 -15 105
53T45 221ZM160 232Q160 150 192 90T280 29Q339 29 370 113T402 321Q402 373 386 397Q362 434 298 434Q236 434 198 380T160 232Z" />
<glyph unicode="&#xf1;" glyph-name="ntilde" horiz-adv-x="611" d="M68 0Q72 2 77 23T87 104T92 245Q92 299 88 395Q86 438 81 464T72 496L68 501Q99 510 117 510Q151 510 173 495T195 455L191 430L195 429Q212 467 263 491T370 515Q417 515 448 504T493 470T511
425T516 371Q516 336 514 264T512 146Q512 123 513 110T518 78T534 50T562 41Q571 41 580 44T595 52L600 55L604 52Q603 49 601 45T590 31T570 12T538 -3T493 -10Q456 -10 430 9T403 71Q403 112 404 189T406 319Q406 345 405 360T400 395T386 427T360 446T318 454Q273
454 236 416T198 311Q198 267 200 187T202 58Q202 -10 139 -10Q116 -10 68 0ZM135 614Q143 657 174 682T253 708Q290 708 343 685T423 661Q456 661 495 695Q487 652 456 626T377 600Q339 600 286 624T207 648Q174 648 135 614Z" />
<glyph unicode="&#xf2;" glyph-name="ograve" horiz-adv-x="600" d="M41 238Q41 352 111 433T305 515Q424 515 491 445T559 277Q559 158 489 72T295 -15Q175 -15 108 59T41 238ZM163 255Q163 163 200 97T305 31Q368 31 402 98T437 259Q437 345 400 407T294 469Q231
469 197 406T163 255ZM193 701Q196 706 201 714T226 735T270 749Q324 627 408 580V575Q399 571 377 571Q330 571 268 612T193 701Z" />
<glyph unicode="&#xf3;" glyph-name="oacute" horiz-adv-x="600" d="M41 238Q41 352 111 433T305 515Q424 515 491 445T559 277Q559 158 489 72T295 -15Q175 -15 108 59T41 238ZM163 255Q163 163 200 97T305 31Q368 31 402 98T437 259Q437 345 400 407T294 469Q231
469 197 406T163 255ZM193 575V580Q277 627 331 749Q346 749 359 744T381 732T396 718T406 706L408 701Q396 653 334 612T224 571Q202 571 193 575Z" />
<glyph unicode="&#xf4;" glyph-name="ocircumflex" horiz-adv-x="600" d="M41 238Q41 352 111 433T305 515Q424 515 491 445T559 277Q559 158 489 72T295 -15Q175 -15 108 59T41 238ZM123 575V580Q163 603 198 641T247 704T271 749Q283 752 293 752Q317 752 335
733T365 689T405 632T473 580V575Q464 571 442 571Q409 571 364 600T300 658H295Q277 629 232 600T154 571Q132 571 123 575ZM163 255Q163 163 200 97T305 31Q368 31 402 98T437 259Q437 345 400 407T294 469Q231 469 197 406T163 255Z" />
<glyph unicode="&#xf5;" glyph-name="otilde" horiz-adv-x="600" d="M41 238Q41 352 111 433T305 515Q424 515 491 445T559 277Q559 158 489 72T295 -15Q175 -15 108 59T41 238ZM120 614Q128 657 159 682T238 708Q275 708 328 685T408 661Q441 661 480 695Q472
652 441 626T362 600Q324 600 271 624T192 648Q159 648 120 614ZM163 255Q163 163 200 97T305 31Q368 31 402 98T437 259Q437 345 400 407T294 469Q231 469 197 406T163 255Z" />
<glyph unicode="&#xf6;" glyph-name="odieresis" horiz-adv-x="600" d="M41 238Q41 352 111 433T305 515Q424 515 491 445T559 277Q559 158 489 72T295 -15Q175 -15 108 59T41 238ZM145 645T145 669T162 710T204 728T245 711T263 669T246 628T204 610T163 627ZM163
255Q163 163 200 97T305 31Q368 31 402 98T437 259Q437 345 400 407T294 469Q231 469 197 406T163 255ZM338 645T338 669T355 710T396 728Q421 728 438 711T456 669T439 628T396 610Q373 610 356 627Z" />
<glyph unicode="&#xf7;" glyph-name="divide" horiz-adv-x="429" d="M35 294Q35 337 58 337Q121 332 192 332H280Q361 332 389 337Q393 317 393 292Q393 260 379 260Q318 263 246 264H154Q66 264 38 260Q35 276 35 294ZM149 125Q149 153 169 173T216 193Q244 193
264 173T284 125Q284 98 264 78T216 58Q189 58 169 78T149 125ZM149 465Q149 493 169 513T216 533Q244 533 264 513T284 465Q284 438 264 418T216 398Q189 398 169 418T149 465Z" />
<glyph unicode="&#xf8;" glyph-name="oslash" horiz-adv-x="604" d="M43 238Q43 352 113 433T307 515Q370 515 422 493L424 495Q464 555 479 589Q529 566 529 550Q529 548 494 495L472 463Q561 395 561 277Q561 158 491 72T297 -15Q228 -15 172 13Q170 11 170
10Q120 -66 109 -89Q62 -69 62 -45Q62 -39 79 -15L122 48Q43 121 43 238ZM165 255Q165 190 183 138L382 432Q347 469 296 469Q233 469 199 406T165 255ZM215 79Q252 31 307 31Q370 31 404 98T439 259Q439 326 415 380L215 79Z" />
<glyph unicode="&#xf9;" glyph-name="ugrave" horiz-adv-x="599" d="M56 501Q94 510 105 510Q140 510 165 493T190 446Q190 406 189 330T187 201Q187 173 188 154T194 113T207 78T232 57T271 48Q315 48 343 83T382 163T392 256Q392 353 387 411Q384 441 380 463T372
494L370 501Q401 510 419 510Q456 510 480 493T505 445Q505 400 501 302T497 145Q497 41 547 41Q556 41 565 44T580 52L585 55L589 52Q588 49 586 45T575 31T555 12T523 -3T478 -10Q445 -10 421 7T397 61L398 70L393 71Q391 68 388 62T372 41T343 15T297 -5T233
-15Q144 -15 111 28T77 144Q77 164 78 209T79 281Q79 357 76 405Q70 480 56 501ZM175 701Q178 706 183 714T208 735T252 749Q306 627 390 580V575Q381 571 359 571Q312 571 250 612T175 701Z" />
<glyph unicode="&#xfa;" glyph-name="uacute" horiz-adv-x="599" d="M56 501Q94 510 105 510Q140 510 165 493T190 446Q190 406 189 330T187 201Q187 173 188 154T194 113T207 78T232 57T271 48Q315 48 343 83T382 163T392 256Q392 353 387 411Q384 441 380 463T372
494L370 501Q401 510 419 510Q456 510 480 493T505 445Q505 400 501 302T497 145Q497 41 547 41Q556 41 565 44T580 52L585 55L589 52Q588 49 586 45T575 31T555 12T523 -3T478 -10Q445 -10 421 7T397 61L398 70L393 71Q391 68 388 62T372 41T343 15T297 -5T233
-15Q144 -15 111 28T77 144Q77 164 78 209T79 281Q79 357 76 405Q70 480 56 501ZM175 575V580Q259 627 313 749Q328 749 341 744T363 732T378 718T388 706L390 701Q378 653 316 612T206 571Q184 571 175 575Z" />
<glyph unicode="&#xfb;" glyph-name="ucircumflex" horiz-adv-x="599" d="M56 501Q94 510 105 510Q140 510 165 493T190 446Q190 406 189 330T187 201Q187 173 188 154T194 113T207 78T232 57T271 48Q315 48 343 83T382 163T392 256Q392 353 387 411Q384 441 380
463T372 494L370 501Q401 510 419 510Q456 510 480 493T505 445Q505 400 501 302T497 145Q497 41 547 41Q556 41 565 44T580 52L585 55L589 52Q588 49 586 45T575 31T555 12T523 -3T478 -10Q445 -10 421 7T397 61L398 70L393 71Q391 68 388 62T372 41T343 15T297
-5T233 -15Q144 -15 111 28T77 144Q77 164 78 209T79 281Q79 357 76 405Q70 480 56 501ZM105 575V580Q145 603 180 641T229 704T253 749Q265 752 275 752Q299 752 317 733T347 689T387 632T455 580V575Q446 571 424 571Q391 571 346 600T282 658H277Q259 629 214
600T136 571Q114 571 105 575Z" />
<glyph unicode="&#xfc;" glyph-name="udieresis" horiz-adv-x="599" d="M56 501Q94 510 105 510Q140 510 165 493T190 446Q190 406 189 330T187 201Q187 173 188 154T194 113T207 78T232 57T271 48Q315 48 343 83T382 163T392 256Q392 353 387 411Q384 441 380
463T372 494L370 501Q401 510 419 510Q456 510 480 493T505 445Q505 400 501 302T497 145Q497 41 547 41Q556 41 565 44T580 52L585 55L589 52Q588 49 586 45T575 31T555 12T523 -3T478 -10Q445 -10 421 7T397 61L398 70L393 71Q391 68 388 62T372 41T343 15T297
-5T233 -15Q144 -15 111 28T77 144Q77 164 78 209T79 281Q79 357 76 405Q70 480 56 501ZM127 645T127 669T144 710T186 728T227 711T245 669T228 628T186 610T145 627ZM320 645T320 669T337 710T378 728Q403 728 420 711T438 669T421 628T378 610Q355 610 338 627Z"
/>
<glyph unicode="&#xfd;" glyph-name="yacute" horiz-adv-x="507" d="M2 495V500Q42 508 77 508Q143 508 154 466Q169 404 210 284T286 76Q310 145 329 208T359 311T378 386T392 441T402 475T414 497T432 505T459 508Q473 508 484 506T500 502L505 500V495Q479
478 453 403L305 -15Q266 -124 209 -177T86 -230Q71 -230 61 -229T44 -221T33 -211T27 -195T24 -178T23 -155T22 -130Q67 -140 99 -140Q196 -140 240 -40L256 -3Q185 14 168 72Q87 334 42 435Q21 479 2 495ZM164 575V580Q248 627 302 749Q317 749 330 744T352 732T367
718T376 706L379 701Q367 653 305 612T195 571Q173 571 164 575Z" />
<glyph unicode="&#xfe;" glyph-name="thorn" horiz-adv-x="587" d="M67 757L70 761Q102 761 123 758T160 744T183 724T195 692T200 651T201 597Q201 561 199 522T195 460L193 438L198 436Q220 474 265 494T359 515Q443 515 493 450T543 287Q543 153 468 71T249
-11Q227 -11 199 -6Q198 -23 198 -54Q198 -105 202 -147T212 -206L216 -222Q154 -232 146 -232Q116 -232 101 -216T85 -155Q85 -119 86 5T88 241Q88 512 85 627T67 757ZM196 68Q196 36 263 36Q339 36 381 104T423 264Q423 337 392 395T315 454Q268 454 236 423T197
330Q196 287 196 193V68Z" />
<glyph unicode="&#xff;" glyph-name="ydieresis" horiz-adv-x="507" d="M2 495V500Q42 508 77 508Q143 508 154 466Q169 404 210 284T286 76Q310 145 329 208T359 311T378 386T392 441T402 475T414 497T432 505T459 508Q473 508 484 506T500 502L505 500V495Q479
478 453 403L305 -15Q266 -124 209 -177T86 -230Q71 -230 61 -229T44 -221T33 -211T27 -195T24 -178T23 -155T22 -130Q67 -140 99 -140Q196 -140 240 -40L256 -3Q185 14 168 72Q87 334 42 435Q21 479 2 495ZM116 645T116 669T133 710T175 728T216 711T234 669T217
628T175 610T134 627ZM309 645T309 669T326 710T367 728Q392 728 409 711T427 669T410 628T367 610Q344 610 327 627Z" />
<glyph unicode="&#x100;" glyph-name="Amacron" horiz-adv-x="648" d="M8 0V5Q36 26 73 130L282 713Q286 713 293 712T319 704T356 686T391 650T419 592Q454 478 508 320T596 86Q618 37 625 23T642 5V0Q604 -10 569 -10Q494 -10 477 50Q447 154 421 233Q359 235
321 235Q261 235 177 231Q166 198 155 161T138 103T124 61T110 27T94 7T73 -6T44 -10Q36 -10 27 -8T13 -2L8 0ZM148 820Q148 863 171 863Q265 858 363 858Q444 858 472 863Q476 843 476 818Q476 786 462 786Q368 790 267 790Q179 790 151 786Q148 802 148 820ZM193
286Q257 284 300 284Q337 284 403 286Q333 493 296 587H291Q260 496 193 286Z" />
<glyph unicode="&#x101;" glyph-name="amacron" horiz-adv-x="505" d="M36 119Q36 170 62 209T132 268T219 298T308 309V318Q308 385 288 417T212 449Q141 449 74 389L70 393Q82 440 136 477T255 515Q306 515 339 501T389 460T410 406T416 339Q416 313 415 253T413
164V152Q413 41 463 41Q472 41 481 44T496 52L501 55L505 52Q504 49 502 45T491 31T471 12T439 -3T394 -10Q359 -10 335 6T309 60L305 62Q287 29 251 7T169 -15Q108 -15 72 23T36 119ZM80 647Q80 690 103 690Q197 685 295 685Q376 685 404 690Q408 670 408 645Q408
613 394 613Q300 617 199 617Q111 617 83 613Q80 629 80 647ZM149 138Q149 96 168 76T216 56Q244 56 274 77T305 125Q305 144 306 193T308 269Q287 265 275 263T235 250T192 228T163 192T149 138Z" />
<glyph unicode="&#x102;" glyph-name="Abreve" horiz-adv-x="648" d="M8 0V5Q36 26 73 130L282 713Q286 713 293 712T319 704T356 686T391 650T419 592Q454 478 508 320T596 86Q618 37 625 23T642 5V0Q604 -10 569 -10Q494 -10 477 50Q447 154 421 233Q359 235
321 235Q261 235 177 231Q166 198 155 161T138 103T124 61T110 27T94 7T73 -6T44 -10Q36 -10 27 -8T13 -2L8 0ZM156 896Q156 917 188 917L227 912V891Q227 854 249 826T312 798Q351 798 373 826T396 892V912Q416 917 431 917Q468 917 468 896Q468 822 422 782T312
741T202 781T156 896ZM193 286Q257 284 300 284Q337 284 403 286Q333 493 296 587H291Q260 496 193 286Z" />
<glyph unicode="&#x103;" glyph-name="abreve" horiz-adv-x="505" d="M36 119Q36 170 62 209T132 268T219 298T308 309V318Q308 385 288 417T212 449Q141 449 74 389L70 393Q82 440 136 477T255 515Q306 515 339 501T389 460T410 406T416 339Q416 313 415 253T413
164V152Q413 41 463 41Q472 41 481 44T496 52L501 55L505 52Q504 49 502 45T491 31T471 12T439 -3T394 -10Q359 -10 335 6T309 60L305 62Q287 29 251 7T169 -15Q108 -15 72 23T36 119ZM88 723Q88 744 120 744L159 739V718Q159 681 181 653T244 625Q283 625 305
653T328 719V739Q348 744 363 744Q400 744 400 723Q400 649 354 609T244 568T134 608T88 723ZM149 138Q149 96 168 76T216 56Q244 56 274 77T305 125Q305 144 306 193T308 269Q287 265 275 263T235 250T192 228T163 192T149 138Z" />
<glyph unicode="&#x104;" glyph-name="Aogonek" horiz-adv-x="648" d="M8 0V5Q36 26 73 130L282 713Q286 713 293 712T319 704T356 686T391 650T419 592Q454 478 508 320T596 86Q618 37 625 23T642 5V0Q638 -3 632 -7T608 -27T577 -57T554 -93T543 -132Q543 -179
591 -179Q615 -179 637 -169L642 -173Q634 -200 607 -216T549 -232Q511 -232 485 -209T459 -140Q459 -107 481 -78T558 -15V-10Q531 -9 508 6T477 50Q447 154 421 233Q359 235 321 235Q261 235 177 231Q166 198 155 161T138 103T124 61T110 27T94 7T73 -6T44 -10Q36
-10 27 -8T13 -2L8 0ZM193 286Q257 284 300 284Q337 284 403 286Q333 493 296 587H291Q260 496 193 286Z" />
<glyph unicode="&#x105;" glyph-name="aogonek" horiz-adv-x="505" d="M36 119Q36 170 62 209T132 268T219 298T308 309V318Q308 385 288 417T212 449Q141 449 74 389L70 393Q82 440 136 477T255 515Q306 515 339 501T389 460T410 406T416 339Q416 313 415 253T413
164V152Q413 41 463 41Q472 41 481 44T496 52L501 55L505 52L497 39Q488 25 463 3T429 -30Q376 -96 376 -132Q376 -179 424 -179Q448 -179 470 -169L475 -173Q467 -200 440 -216T382 -232Q344 -232 318 -209T292 -140Q292 -78 385 -15V-10Q355 -8 333 8T309 60L305
62Q287 29 251 7T169 -15Q108 -15 72 23T36 119ZM149 138Q149 96 168 76T216 56Q244 56 274 77T305 125Q305 144 306 193T308 269Q287 265 275 263T235 250T192 228T163 192T149 138Z" />
<glyph unicode="&#x106;" glyph-name="Cacute" horiz-adv-x="703" d="M55 326Q55 426 97 513T223 658T417 715Q494 715 567 688T641 620Q641 604 629 580T601 540H595Q558 598 504 628T392 659Q302 659 240 585T178 374Q178 295 204 229T289 118T426 73Q556 73
654 155L657 152Q643 83 569 34T400 -15Q314 -15 247 13T138 90T76 199T55 326ZM258 748V753Q342 800 396 922Q411 922 424 917T446 905T461 891T470 879L473 874Q461 826 399 785T289 744Q267 744 258 748Z" />
<glyph unicode="&#x107;" glyph-name="cacute" horiz-adv-x="522" d="M40 234Q40 352 116 433T312 515Q338 515 372 509T440 486T473 444Q473 414 438 377H433Q431 381 427 387T408 408T378 436T338 458T290 468Q244 468 212 436T168 362T156 272Q156 181 202
120T323 59Q357 59 397 75T462 108L485 124L489 120Q487 115 484 106T464 73T426 32T366 0T281 -15Q181 -15 111 57T40 234ZM165 575V580Q249 627 303 749Q318 749 331 744T353 732T368 718T378 706L380 701Q368 653 306 612T196 571Q174 571 165 575Z" />
<glyph unicode="&#x108;" glyph-name="Ccircumflex" horiz-adv-x="703" d="M55 326Q55 426 97 513T223 658T417 715Q494 715 567 688T641 620Q641 604 629 580T601 540H595Q558 598 504 628T392 659Q302 659 240 585T178 374Q178 295 204 229T289 118T426 73Q556
73 654 155L657 152Q643 83 569 34T400 -15Q314 -15 247 13T138 90T76 199T55 326ZM188 748V753Q228 776 263 814T312 877T336 922Q348 925 358 925Q382 925 400 906T430 862T470 805T538 753V748Q529 744 507 744Q474 744 429 773T365 831H360Q342 802 297 773T219
744Q197 744 188 748Z" />
<glyph unicode="&#x109;" glyph-name="ccircumflex" horiz-adv-x="522" d="M40 234Q40 352 116 433T312 515Q338 515 372 509T440 486T473 444Q473 414 438 377H433Q431 381 427 387T408 408T378 436T338 458T290 468Q244 468 212 436T168 362T156 272Q156 181
202 120T323 59Q357 59 397 75T462 108L485 124L489 120Q487 115 484 106T464 73T426 32T366 0T281 -15Q181 -15 111 57T40 234ZM95 575V580Q135 603 170 641T219 704T243 749Q255 752 265 752Q289 752 307 733T337 689T377 632T445 580V575Q436 571 414 571Q381
571 336 600T272 658H267Q249 629 204 600T126 571Q104 571 95 575Z" />
<glyph unicode="&#x10a;" glyph-name="Cdotaccent" horiz-adv-x="703" d="M55 326Q55 426 97 513T223 658T417 715Q494 715 567 688T641 620Q641 604 629 580T601 540H595Q558 598 504 628T392 659Q302 659 240 585T178 374Q178 295 204 229T289 118T426 73Q556
73 654 155L657 152Q643 83 569 34T400 -15Q314 -15 247 13T138 90T76 199T55 326ZM299 835Q299 863 319 883T366 903Q394 903 414 883T434 835Q434 808 414 788T366 768Q339 768 319 788T299 835Z" />
<glyph unicode="&#x10b;" glyph-name="cdotaccent" horiz-adv-x="522" d="M40 234Q40 352 116 433T312 515Q338 515 372 509T440 486T473 444Q473 414 438 377H433Q431 381 427 387T408 408T378 436T338 458T290 468Q244 468 212 436T168 362T156 272Q156 181
202 120T323 59Q357 59 397 75T462 108L485 124L489 120Q487 115 484 106T464 73T426 32T366 0T281 -15Q181 -15 111 57T40 234ZM206 662Q206 690 226 710T273 730Q301 730 321 710T341 662Q341 635 321 615T273 595Q246 595 226 615T206 662Z" />
<glyph unicode="&#x10c;" glyph-name="Ccaron" horiz-adv-x="703" d="M55 326Q55 426 97 513T223 658T417 715Q494 715 567 688T641 620Q641 604 629 580T601 540H595Q558 598 504 628T392 659Q302 659 240 585T178 374Q178 295 204 229T289 118T426 73Q556 73
654 155L657 152Q643 83 569 34T400 -15Q314 -15 247 13T138 90T76 199T55 326ZM201 918Q210 922 232 922Q262 922 304 893T363 835H368Q384 864 427 893T500 922Q522 922 531 918Q493 898 467 866T429 807T401 761T361 741Q351 741 339 744Q285 866 201 918Z"
/>
<glyph unicode="&#x10d;" glyph-name="ccaron" horiz-adv-x="522" d="M40 234Q40 352 116 433T312 515Q338 515 372 509T440 486T473 444Q473 414 438 377H433Q431 381 427 387T408 408T378 436T338 458T290 468Q244 468 212 436T168 362T156 272Q156 181 202
120T323 59Q357 59 397 75T462 108L485 124L489 120Q487 115 484 106T464 73T426 32T366 0T281 -15Q181 -15 111 57T40 234ZM108 745Q117 749 139 749Q169 749 211 720T270 662H275Q291 691 334 720T407 749Q429 749 438 745Q400 725 374 693T336 634T308 588T268
568Q258 568 246 571Q192 693 108 745Z" />
<glyph unicode="&#x10e;" glyph-name="Dcaron" horiz-adv-x="792" d="M92 700H314Q380 700 438 690T551 655T647 592T711 492T736 351Q736 196 639 94T396 -9Q362 -9 275 -5T97 0Q108 28 108 277Q108 451 102 595Q101 622 100 643T97 674T94 690T92 698V700ZM223
281Q223 190 226 97Q227 50 364 50Q476 50 541 131T607 332Q607 416 579 479T502 577T396 630T275 647Q242 647 226 646Q223 404 223 281ZM224 918Q233 922 255 922Q285 922 327 893T386 835H391Q407 864 450 893T523 922Q545 922 554 918Q516 898 490 866T452
807T424 761T384 741Q374 741 362 744Q308 866 224 918Z" />
<glyph unicode="&#x10f;" glyph-name="dcaron" horiz-adv-x="626" d="M44 215Q44 348 119 429T338 511Q364 511 392 506Q392 567 388 645Q386 686 382 714T374 750L370 757L373 761Q433 760 467 745T502 687Q502 642 500 540T497 375Q497 254 502 107Q504 41 547
41Q556 41 565 44T580 52L585 55L589 52Q588 49 586 45T575 31T555 12T523 -3T478 -10Q442 -10 418 6T393 62L389 64Q387 61 384 56T367 37T338 13T293 -6T233 -15Q147 -15 96 48T44 215ZM164 240Q164 210 168 181T184 120T219 69T275 49Q316 49 342 77T379 139T390
213Q393 312 393 335V428Q393 464 324 464Q249 464 207 398T164 240ZM556 596L560 599Q572 592 585 592Q610 592 626 606T643 642Q643 654 632 661T609 678T597 708Q597 729 612 743T652 757Q683 757 699 734T715 678Q715 635 692 603T623 570Q601 570 584 576T562
590L556 596Z" />
<glyph unicode="&#x110;" glyph-name="Dcroat" horiz-adv-x="792" d="M92 700H314Q380 700 438 690T551 655T647 592T711 492T736 351Q736 196 639 94T396 -9Q362 -9 275 -5T97 0Q108 28 108 277Q108 451 102 595Q101 622 100 643T97 674T94 690T92 698V700ZM223
281Q223 190 226 97Q227 50 364 50Q476 50 541 131T607 332Q607 416 579 479T502 577T396 630T275 647Q242 647 226 646Q223 404 223 281ZM224 820Q224 863 247 863Q341 858 439 858Q520 858 548 863Q552 843 552 818Q552 786 538 786Q444 790 343 790Q255 790
227 786Q224 802 224 820Z" />
<glyph unicode="&#x111;" glyph-name="" horiz-adv-x="596" d="M44 215Q44 348 119 429T338 511Q364 511 392 506Q392 537 390 589H339Q251 589 223 585Q220 601 220 619Q220 662 243 662Q306 657 377 657H387Q385 693 381 718T373 750L370 757L373 761Q433 760
467 745T502 687V657Q542 657 574 662Q578 642 578 617Q578 585 564 585Q537 586 501 587Q497 457 497 375Q497 254 502 107Q504 41 547 41Q556 41 565 44T580 52L585 55L589 52Q588 49 586 45T575 31T555 12T523 -3T478 -10Q442 -10 418 6T393 62L389 64Q387 61
384 56T367 37T338 13T293 -6T233 -15Q147 -15 96 48T44 215ZM164 240Q164 210 168 181T184 120T219 69T275 49Q316 49 342 77T379 139T390 213Q393 312 393 335V428Q393 464 324 464Q249 464 207 398T164 240Z" />
<glyph unicode="&#x112;" glyph-name="Emacron" horiz-adv-x="582" d="M92 700H276Q344 700 399 702T476 708L497 710Q494 686 492 676T482 651T458 632T416 627Q363 627 316 631T247 639L226 643Q226 595 224 397H378Q396 397 411 399T432 404L437 407Q435 367
424 350T377 333L223 339V235Q223 205 225 148T227 66L410 71Q507 74 544 93Q545 82 545 65Q545 19 527 7T450 -5L97 0Q108 28 108 277Q108 451 102 595Q101 622 100 643T97 674T94 690T92 698V700ZM143 820Q143 863 166 863Q260 858 358 858Q439 858 467 863Q471
843 471 818Q471 786 457 786Q363 790 262 790Q174 790 146 786Q143 802 143 820Z" />
<glyph unicode="&#x113;" glyph-name="emacron" horiz-adv-x="514" d="M43 127T43 237T109 431T280 515Q372 515 418 473T464 372Q464 325 433 293T361 249T271 236Q245 236 218 243T176 257L161 264L157 262Q157 170 198 115T316 60Q352 60 391 74T452 102L473
117L478 112Q477 107 474 99T455 68T420 29T362 -1T276 -15Q175 -15 109 56ZM107 647Q107 690 130 690Q224 685 322 685Q403 685 431 690Q435 670 435 645Q435 613 421 613Q327 617 226 617Q138 617 110 613Q107 629 107 647ZM158 310Q158 306 172 301T208 291T251
286Q289 286 317 308T345 373Q345 413 326 441T267 469Q235 469 208 437T170 369T158 310Z" />
<glyph unicode="&#x114;" glyph-name="Ebreve" horiz-adv-x="582" d="M92 700H276Q344 700 399 702T476 708L497 710Q494 686 492 676T482 651T458 632T416 627Q363 627 316 631T247 639L226 643Q226 595 224 397H378Q396 397 411 399T432 404L437 407Q435 367
424 350T377 333L223 339V235Q223 205 225 148T227 66L410 71Q507 74 544 93Q545 82 545 65Q545 19 527 7T450 -5L97 0Q108 28 108 277Q108 451 102 595Q101 622 100 643T97 674T94 690T92 698V700ZM151 896Q151 917 183 917L222 912V891Q222 854 244 826T307 798Q346
798 368 826T391 892V912Q411 917 426 917Q463 917 463 896Q463 822 417 782T307 741T197 781T151 896Z" />
<glyph unicode="&#x115;" glyph-name="ebreve" horiz-adv-x="514" d="M43 127T43 237T109 431T280 515Q372 515 418 473T464 372Q464 325 433 293T361 249T271 236Q245 236 218 243T176 257L161 264L157 262Q157 170 198 115T316 60Q352 60 391 74T452 102L473
117L478 112Q477 107 474 99T455 68T420 29T362 -1T276 -15Q175 -15 109 56ZM115 723Q115 744 147 744L186 739V718Q186 681 208 653T271 625Q310 625 332 653T355 719V739Q375 744 390 744Q427 744 427 723Q427 649 381 609T271 568T161 608T115 723ZM158 310Q158
306 172 301T208 291T251 286Q289 286 317 308T345 373Q345 413 326 441T267 469Q235 469 208 437T170 369T158 310Z" />
<glyph unicode="&#x116;" glyph-name="Edotaccent" horiz-adv-x="582" d="M92 700H276Q344 700 399 702T476 708L497 710Q494 686 492 676T482 651T458 632T416 627Q363 627 316 631T247 639L226 643Q226 595 224 397H378Q396 397 411 399T432 404L437 407Q435
367 424 350T377 333L223 339V235Q223 205 225 148T227 66L410 71Q507 74 544 93Q545 82 545 65Q545 19 527 7T450 -5L97 0Q108 28 108 277Q108 451 102 595Q101 622 100 643T97 674T94 690T92 698V700ZM241 835Q241 863 261 883T308 903Q336 903 356 883T376 835Q376
808 356 788T308 768Q281 768 261 788T241 835Z" />
<glyph unicode="&#x117;" glyph-name="edotaccent" horiz-adv-x="514" d="M43 127T43 237T109 431T280 515Q372 515 418 473T464 372Q464 325 433 293T361 249T271 236Q245 236 218 243T176 257L161 264L157 262Q157 170 198 115T316 60Q352 60 391 74T452 102L473
117L478 112Q477 107 474 99T455 68T420 29T362 -1T276 -15Q175 -15 109 56ZM158 310Q158 306 172 301T208 291T251 286Q289 286 317 308T345 373Q345 413 326 441T267 469Q235 469 208 437T170 369T158 310ZM205 662Q205 690 225 710T272 730Q300 730 320 710T340
662Q340 635 320 615T272 595Q245 595 225 615T205 662Z" />
<glyph unicode="&#x118;" glyph-name="Eogonek" horiz-adv-x="582" d="M92 700H276Q344 700 399 702T476 708L497 710Q494 686 492 676T482 651T458 632T416 627Q363 627 316 631T247 639L226 643Q226 595 224 397H378Q396 397 411 399T432 404L437 407Q435 367
424 350T377 333L223 339V235Q223 205 225 148T227 66L410 71Q507 74 544 93Q545 82 545 65Q545 30 535 16Q531 10 519 -1T501 -20Q440 -96 440 -132Q440 -179 488 -179Q512 -179 534 -169L539 -173Q531 -200 504 -216T446 -232Q408 -232 382 -209T356 -140Q356
-105 387 -67T463 -9V-4L450 -5L97 0Q108 28 108 277Q108 451 102 595Q101 622 100 643T97 674T94 690T92 698V700Z" />
<glyph unicode="&#x119;" glyph-name="eogonek" horiz-adv-x="514" d="M43 127T43 237T109 431T280 515Q372 515 418 473T464 372Q464 325 433 293T361 249T271 236Q245 236 218 243T176 257L161 264L157 262Q157 170 198 115T316 60Q352 60 391 74T452 102L473
117L478 112Q473 97 461 77Q443 48 404 18Q361 -14 340 -42Q296 -98 296 -132Q296 -179 344 -179Q368 -179 390 -169L395 -173Q387 -200 360 -216T302 -232Q264 -232 238 -209T212 -140Q212 -81 299 -19V-14Q287 -15 276 -15Q175 -15 109 56ZM158 310Q158 306 172
301T208 291T251 286Q289 286 317 308T345 373Q345 413 326 441T267 469Q235 469 208 437T170 369T158 310Z" />
<glyph unicode="&#x11a;" glyph-name="Ecaron" horiz-adv-x="582" d="M92 700H276Q344 700 399 702T476 708L497 710Q494 686 492 676T482 651T458 632T416 627Q363 627 316 631T247 639L226 643Q226 595 224 397H378Q396 397 411 399T432 404L437 407Q435 367
424 350T377 333L223 339V235Q223 205 225 148T227 66L410 71Q507 74 544 93Q545 82 545 65Q545 19 527 7T450 -5L97 0Q108 28 108 277Q108 451 102 595Q101 622 100 643T97 674T94 690T92 698V700ZM143 918Q152 922 174 922Q204 922 246 893T305 835H310Q326 864
369 893T442 922Q464 922 473 918Q435 898 409 866T371 807T343 761T303 741Q293 741 281 744Q227 866 143 918Z" />
<glyph unicode="&#x11b;" glyph-name="ecaron" horiz-adv-x="514" d="M43 127T43 237T109 431T280 515Q372 515 418 473T464 372Q464 325 433 293T361 249T271 236Q245 236 218 243T176 257L161 264L157 262Q157 170 198 115T316 60Q352 60 391 74T452 102L473
117L478 112Q477 107 474 99T455 68T420 29T362 -1T276 -15Q175 -15 109 56ZM107 745Q116 749 138 749Q168 749 210 720T269 662H274Q290 691 333 720T406 749Q428 749 437 745Q399 725 373 693T335 634T307 588T267 568Q257 568 245 571Q191 693 107 745ZM158
310Q158 306 172 301T208 291T251 286Q289 286 317 308T345 373Q345 413 326 441T267 469Q235 469 208 437T170 369T158 310Z" />
<glyph unicode="&#x11c;" glyph-name="Gcircumflex" horiz-adv-x="729" d="M55 329Q55 426 96 512T222 657T418 715Q497 715 573 689T649 620Q649 603 637 577T609 535H603Q564 594 509 625T396 657Q305 657 242 584T178 375Q178 292 206 219T293 98T433 49Q493
49 542 64Q547 106 547 157Q547 311 531 323Q544 328 578 328Q665 328 665 260Q665 233 662 172T659 84L661 1L656 -4Q640 -1 622 -1Q589 -1 511 -8T411 -15Q323 -15 253 13T141 91T77 200T55 329ZM217 748V753Q257 776 292 814T341 877T365 922Q377 925 387 925Q411
925 429 906T459 862T499 805T567 753V748Q558 744 536 744Q503 744 458 773T394 831H389Q371 802 326 773T248 744Q226 744 217 748Z" />
<glyph unicode="&#x11d;" glyph-name="gcircumflex" horiz-adv-x="509" d="M38 321Q38 402 101 456T261 510Q360 510 412 467T465 342Q465 260 402 207T242 153Q210 153 196 155Q181 133 181 120Q181 100 212 89T287 72T377 54T453 13T484 -65Q484 -136 417 -183T245
-230Q152 -230 96 -187T40 -95Q40 -79 47 -69T71 -55T96 -51T125 -50Q126 -71 133 -92T156 -135T200 -172T269 -186Q318 -186 354 -165T391 -103Q391 -79 363 -66T293 -46T211 -29T142 6T113 71Q113 120 160 162Q38 194 38 321ZM79 575V580Q119 603 154 641T203
704T227 749Q239 752 249 752Q273 752 291 733T321 689T361 632T429 580V575Q420 571 398 571Q365 571 320 600T256 658H251Q233 629 188 600T110 571Q88 571 79 575ZM149 342Q149 279 175 239T255 198Q297 198 325 234T353 321Q353 384 327 424T247 465Q206 465
178 429T149 342Z" />
<glyph unicode="&#x11e;" glyph-name="Gbreve" horiz-adv-x="729" d="M55 329Q55 426 96 512T222 657T418 715Q497 715 573 689T649 620Q649 603 637 577T609 535H603Q564 594 509 625T396 657Q305 657 242 584T178 375Q178 292 206 219T293 98T433 49Q493 49
542 64Q547 106 547 157Q547 311 531 323Q544 328 578 328Q665 328 665 260Q665 233 662 172T659 84L661 1L656 -4Q640 -1 622 -1Q589 -1 511 -8T411 -15Q323 -15 253 13T141 91T77 200T55 329ZM238 896Q238 917 270 917L309 912V891Q309 854 331 826T394 798Q433
798 455 826T478 892V912Q498 917 513 917Q550 917 550 896Q550 822 504 782T394 741T284 781T238 896Z" />
<glyph unicode="&#x11f;" glyph-name="gbreve" horiz-adv-x="509" d="M38 321Q38 402 101 456T261 510Q360 510 412 467T465 342Q465 260 402 207T242 153Q210 153 196 155Q181 133 181 120Q181 100 212 89T287 72T377 54T453 13T484 -65Q484 -136 417 -183T245
-230Q152 -230 96 -187T40 -95Q40 -79 47 -69T71 -55T96 -51T125 -50Q126 -71 133 -92T156 -135T200 -172T269 -186Q318 -186 354 -165T391 -103Q391 -79 363 -66T293 -46T211 -29T142 6T113 71Q113 120 160 162Q38 194 38 321ZM100 723Q100 744 132 744L171 739V718Q171
681 193 653T256 625Q295 625 317 653T340 719V739Q360 744 375 744Q412 744 412 723Q412 649 366 609T256 568T146 608T100 723ZM149 342Q149 279 175 239T255 198Q297 198 325 234T353 321Q353 384 327 424T247 465Q206 465 178 429T149 342Z" />
<glyph unicode="&#x120;" glyph-name="Gdotaccent" horiz-adv-x="729" d="M55 329Q55 426 96 512T222 657T418 715Q497 715 573 689T649 620Q649 603 637 577T609 535H603Q564 594 509 625T396 657Q305 657 242 584T178 375Q178 292 206 219T293 98T433 49Q493
49 542 64Q547 106 547 157Q547 311 531 323Q544 328 578 328Q665 328 665 260Q665 233 662 172T659 84L661 1L656 -4Q640 -1 622 -1Q589 -1 511 -8T411 -15Q323 -15 253 13T141 91T77 200T55 329ZM328 835Q328 863 348 883T395 903Q423 903 443 883T463 835Q463
808 443 788T395 768Q368 768 348 788T328 835Z" />
<glyph unicode="&#x121;" glyph-name="gdotaccent" horiz-adv-x="516" d="M38 321Q38 402 101 456T261 510Q318 510 363 494Q399 495 414 523T434 601Q438 601 447 600T460 599T473 597T485 593T494 588T502 582T507 572T509 559Q509 525 479 503T407 470Q465
426 465 342Q465 260 402 207T242 153Q210 153 196 155Q181 133 181 120Q181 100 212 89T287 72T377 54T453 13T484 -65Q484 -136 417 -183T245 -230Q152 -230 96 -187T40 -95Q40 -79 47 -69T71 -55T96 -51T125 -50Q126 -71 133 -92T156 -135T200 -172T269 -186Q318
-186 354 -165T391 -103Q391 -79 363 -66T293 -46T211 -29T142 6T113 71Q113 120 160 162Q38 194 38 321ZM149 342Q149 279 175 239T255 198Q297 198 325 234T353 321Q353 384 327 424T247 465Q206 465 178 429T149 342ZM190 662Q190 690 210 710T257 730Q285 730
305 710T325 662Q325 635 305 615T257 595Q230 595 210 615T190 662Z" />
<glyph unicode="&#x122;" glyph-name="Gcommaaccent" horiz-adv-x="729" d="M55 329Q55 426 96 512T222 657T418 715Q497 715 573 689T649 620Q649 603 637 577T609 535H603Q564 594 509 625T396 657Q305 657 242 584T178 375Q178 292 206 219T293 98T433 49Q493
49 542 64Q547 106 547 157Q547 311 531 323Q544 328 578 328Q665 328 665 260Q665 233 662 172T659 84L661 1L656 -4Q640 -1 622 -1Q589 -1 511 -8T411 -15Q323 -15 253 13T141 91T77 200T55 329ZM287 -205L291 -202Q303 -209 316 -209Q341 -209 357 -195T374
-159Q374 -147 363 -140T340 -123T328 -93Q328 -72 343 -58T383 -44Q414 -44 430 -67T446 -123Q446 -166 423 -198T354 -231Q332 -231 315 -225T292 -212L287 -205Z" />
<glyph unicode="&#x123;" glyph-name="gcommaaccent" horiz-adv-x="516" d="M38 321Q38 402 101 456T261 510Q318 510 363 494Q399 495 414 523T434 601Q438 601 447 600T460 599T473 597T485 593T494 588T502 582T507 572T509 559Q509 525 479 503T407 470Q465
426 465 342Q465 260 402 207T242 153Q210 153 196 155Q181 133 181 120Q181 100 212 89T287 72T377 54T453 13T484 -65Q484 -136 417 -183T245 -230Q152 -230 96 -187T40 -95Q40 -79 47 -69T71 -55T96 -51T125 -50Q126 -71 133 -92T156 -135T200 -172T269 -186Q318
-186 354 -165T391 -103Q391 -79 363 -66T293 -46T211 -29T142 6T113 71Q113 120 160 162Q38 194 38 321ZM149 342Q149 279 175 239T255 198Q297 198 325 234T353 321Q353 384 327 424T247 465Q206 465 178 429T149 342ZM190 644Q190 687 213 719T282 752Q304 752
321 746T344 732L349 726L345 723Q333 730 320 730Q295 730 279 716T262 680Q262 668 273 661T296 644T308 614Q308 593 293 579T253 565Q222 565 206 588T190 644Z" />
<glyph unicode="&#x124;" glyph-name="Hcircumflex" horiz-adv-x="796" d="M91 701Q122 710 146 710Q181 710 203 694T225 648Q225 600 223 402Q275 398 384 398Q481 398 577 402Q576 490 572 595Q570 638 568 664T564 696L562 701Q593 710 617 710Q652 710 674
694T696 648Q696 604 694 521T692 395Q692 64 705 0Q696 -1 684 -4T661 -8T636 -10Q600 -10 586 10T572 73Q572 114 574 205T577 339Q517 343 405 343Q316 343 222 339V239Q222 212 224 152T226 58Q226 -10 161 -10Q156 -10 94 0Q107 28 107 277Q107 451 101 595Q99
638 97 664T92 696L91 701ZM221 748V753Q261 776 296 814T345 877T369 922Q381 925 391 925Q415 925 433 906T463 862T503 805T571 753V748Q562 744 540 744Q507 744 462 773T398 831H393Q375 802 330 773T252 744Q230 744 221 748Z" />
<glyph unicode="&#x125;" glyph-name="hcircumflex" horiz-adv-x="610" d="M-36 748V753Q4 776 39 814T88 877T112 922Q124 925 134 925Q158 925 176 906T206 862T246 805T314 753V748Q305 744 283 744Q250 744 205 773T141 831H136Q118 802 73 773T-5 744Q-27
744 -36 748ZM67 0Q70 3 73 13T83 94T90 277V458Q90 685 68 707L71 711Q103 711 124 708T161 694T184 674T196 642T201 601T202 547Q202 477 190 430L194 429Q211 467 262 491T369 515Q416 515 447 504T492 471T510 428T515 376Q515 340 513 266T511 146Q511 123
512 110T517 78T533 50T561 41Q570 41 579 44T594 52L599 55L603 52Q602 49 600 45T589 31T569 12T537 -3T492 -10Q454 -10 428 9T402 71T403 191T405 324Q405 349 404 363T399 397T385 427T359 446T317 454Q272 454 235 416T197 311Q197 267 199 187T201 58Q201
-10 138 -10Q115 -10 67 0Z" />
<glyph unicode="&#x126;" glyph-name="Hbar" horiz-adv-x="836" d="M56 545Q56 588 79 588Q97 588 123 587V595Q121 638 119 664T114 696L113 701Q144 710 168 710Q203 710 225 694T247 648V586Q586 583 594 583V595Q592 638 590 664T586 696L584 701Q615 710
639 710Q674 710 696 694T718 648Q718 604 717 583Q759 584 780 588Q784 568 784 543Q784 511 770 511H715Q714 472 714 395Q714 64 727 0Q718 -1 706 -4T683 -8T658 -10Q622 -10 608 10T594 73Q594 114 596 205T599 339Q539 343 427 343Q338 343 244 339V239Q244
212 246 152T248 58Q248 -10 183 -10Q178 -10 116 0Q129 28 129 277Q129 351 125 515Q73 513 59 511Q56 527 56 545ZM245 402Q297 398 406 398Q503 398 599 402L597 512L246 515Q246 497 246 459T245 402Z" />
<glyph unicode="&#x127;" glyph-name="hbar" horiz-adv-x="610" d="M20 630Q20 673 43 673Q60 672 84 671Q79 746 68 757L71 761Q142 760 168 740T200 668H235Q316 668 344 673Q348 653 348 628Q348 596 334 596Q275 598 202 599V597Q202 502 190 430L194 429Q211
467 262 491T369 515Q416 515 447 504T492 471T510 428T515 376Q515 340 513 266T511 146Q511 123 512 110T517 78T533 50T561 41Q570 41 579 44T594 52L599 55L603 52Q602 49 600 45T589 31T569 12T537 -3T492 -10Q454 -10 428 9T402 71T403 191T405 324Q405 349
404 363T399 397T385 427T359 446T317 454Q272 454 235 416T197 311Q197 267 199 187T201 58Q201 -10 138 -10Q115 -10 67 0Q70 3 73 13T83 94T90 277V458Q90 496 88 600Q37 598 23 596Q20 612 20 630Z" />
<glyph unicode="&#x128;" glyph-name="Itilde" horiz-adv-x="323" d="M-24 787Q-16 830 15 855T94 881Q131 881 184 858T264 834Q297 834 336 868Q328 825 297 799T218 773Q180 773 127 797T48 821Q15 821 -24 787ZM89 701Q120 710 144 710Q179 710 201 694T223
648Q223 604 221 521T219 395Q219 135 236 2Q174 -8 169 -8Q104 -8 104 60V368Q104 488 99 595Q97 638 95 664T90 696L89 701Z" />
<glyph unicode="&#x129;" glyph-name="itilde" horiz-adv-x="292" d="M-41 614Q-33 657 -2 682T77 708Q114 708 167 685T247 661Q280 661 319 695Q311 652 280 626T201 600Q163 600 110 624T31 648Q-2 648 -41 614ZM62 501Q93 510 111 510Q146 510 171 493T196
446Q196 389 194 284T191 146Q191 123 192 110T197 78T213 50T241 41Q250 41 259 44T274 52L279 55L283 52Q282 49 280 45T269 31T249 12T217 -3T172 -10Q134 -10 108 9T82 71Q82 100 84 157T86 242Q86 344 80 408T69 487T62 501Z" />
<glyph unicode="&#x12b;" glyph-name="imacron" horiz-adv-x="292" d="M-25 647Q-25 690 -2 690Q92 685 190 685Q271 685 299 690Q303 670 303 645Q303 613 289 613Q195 617 94 617Q6 617 -22 613Q-25 629 -25 647ZM62 501Q93 510 111 510Q146 510 171 493T196
446Q196 389 194 284T191 146Q191 123 192 110T197 78T213 50T241 41Q250 41 259 44T274 52L279 55L283 52Q282 49 280 45T269 31T249 12T217 -3T172 -10Q134 -10 108 9T82 71Q82 100 84 157T86 242Q86 344 80 408T69 487T62 501Z" />
<glyph unicode="&#x12e;" glyph-name="Iogonek" horiz-adv-x="323" d="M68 -140Q68 -108 91 -78T169 -13V-8Q104 -8 104 60V368Q104 488 99 595Q97 638 95 664T90 696L89 701Q120 710 144 710Q179 710 201 694T223 648Q223 604 221 521T219 395Q219 135 236 2Q227
-7 213 -22T176 -73T152 -132Q152 -179 200 -179Q224 -179 246 -169L251 -173Q243 -200 216 -216T158 -232Q120 -232 94 -209T68 -140Z" />
<glyph unicode="&#x12f;" glyph-name="iogonek" horiz-adv-x="292" d="M62 501Q93 510 111 510Q146 510 171 493T196 446Q196 389 194 284T191 146Q191 123 192 110T197 78T213 50T241 41Q250 41 259 44T274 52L279 55L283 52Q279 41 267 29Q258 20 247 11T233
0Q222 -9 201 -36Q153 -94 153 -132Q153 -179 201 -179Q225 -179 247 -169L252 -173Q244 -200 217 -216T159 -232Q121 -232 95 -209T69 -140Q69 -78 163 -14V-9Q130 -8 106 11T82 71Q82 100 84 157T86 242Q86 344 80 408T69 487T62 501ZM70 662Q70 690 90 710T137
730Q165 730 185 710T205 662Q205 635 185 615T137 595Q110 595 90 615T70 662Z" />
<glyph unicode="&#x130;" glyph-name="Idot" horiz-adv-x="323" d="M89 701Q120 710 144 710Q179 710 201 694T223 648Q223 604 221 521T219 395Q219 135 236 2Q174 -8 169 -8Q104 -8 104 60V368Q104 488 99 595Q97 638 95 664T90 696L89 701ZM90 835Q90 863 110
883T157 903Q185 903 205 883T225 835Q225 808 205 788T157 768Q130 768 110 788T90 835Z" />
<glyph unicode="&#x131;" glyph-name="dotlessi" horiz-adv-x="292" d="M62 501Q93 510 111 510Q146 510 171 493T196 446Q196 389 194 284T191 146Q191 123 192 110T197 78T213 50T241 41Q250 41 259 44T274 52L279 55L283 52Q282 49 280 45T269 31T249 12T217
-3T172 -10Q134 -10 108 9T82 71Q82 100 84 157T86 242Q86 344 80 408T69 487T62 501Z" />
<glyph unicode="&#x132;" glyph-name="IJ" horiz-adv-x="641" d="M89 701Q120 710 144 710Q179 710 201 694T223 648Q223 604 221 521T219 395Q219 135 236 2Q174 -8 169 -8Q104 -8 104 60V368Q104 488 99 595Q97 638 95 664T90 696L89 701ZM334 -205Q393 -163
408 -60T424 334Q424 451 418 595Q416 638 414 664T410 696L408 701Q439 710 463 710Q498 710 520 694T542 648Q542 616 541 488T539 318Q539 272 538 143T537 -14Q537 -112 481 -161T336 -210L334 -205Z" />
<glyph unicode="&#x133;" glyph-name="ij" horiz-adv-x="570" d="M62 501Q93 510 111 510Q146 510 171 493T196 446Q196 389 194 284T191 146Q191 123 192 110T197 78T213 50T241 41Q250 41 259 44T274 52L279 55L283 52Q282 49 280 45T269 31T249 12T217 -3T172
-10Q134 -10 108 9T82 71Q82 100 84 157T86 242Q86 344 80 408T69 487T62 501ZM70 662Q70 690 90 710T137 730Q165 730 185 710T205 662Q205 635 185 615T137 595Q110 595 90 615T70 662ZM291 -205Q332 -172 347 -145T371 -33T381 234Q381 299 377 395Q375 438
370 464T361 496L357 501Q388 510 406 510Q441 510 466 493T491 448Q491 416 489 338T487 218Q487 172 489 93T491 -14Q491 -112 437 -161T293 -210L291 -205ZM365 662Q365 690 385 710T432 730Q460 730 480 710T500 662Q500 635 480 615T432 595Q405 595 385 615T365
662Z" />
<glyph unicode="&#x134;" glyph-name="Jcircumflex" horiz-adv-x="324" d="M-20 748V753Q20 776 55 814T104 877T128 922Q140 925 150 925Q174 925 192 906T222 862T262 805T330 753V748Q321 744 299 744Q266 744 221 773T157 831H152Q134 802 89 773T11 744Q-11
744 -20 748ZM17 -205Q76 -163 91 -60T107 334Q107 451 101 595Q99 638 97 664T92 696L91 701Q122 710 146 710Q181 710 203 694T225 648Q225 616 224 488T222 318Q222 272 221 143T220 -14Q220 -112 164 -161T19 -210L17 -205Z" />
<glyph unicode="&#x135;" glyph-name="jcircumflex" horiz-adv-x="277" d="M-36 575V580Q4 603 39 641T88 704T112 749Q124 752 134 752Q158 752 176 733T206 689T246 632T314 580V575Q305 571 283 571Q250 571 205 600T141 658H136Q118 629 73 600T-5 571Q-27
571 -36 575ZM-2 -205Q39 -172 54 -145T78 -33T88 234Q88 299 84 395Q82 438 77 464T68 496L64 501Q95 510 113 510Q148 510 173 493T198 448Q198 416 196 338T194 218Q194 172 196 93T198 -14Q198 -112 144 -161T0 -210L-2 -205Z" />
<glyph unicode="&#x136;" glyph-name="Kcommaaccent" horiz-adv-x="660" d="M91 701Q122 710 136 710Q172 710 198 693T225 648Q225 633 224 535T222 376H227Q391 535 444 597T504 703Q526 704 535 704Q568 704 582 697T596 673Q596 664 588 650T561 615T525 577T477
531T428 486T374 438T325 395V390Q334 377 350 355T410 276T493 171T579 77T655 14V7Q616 -6 557 -6Q515 -6 470 28T388 112T320 212T264 298T230 338L222 340V239Q222 212 224 152T226 58Q226 -10 161 -10Q156 -10 94 0Q107 28 107 277Q107 451 101 595Q99 638
97 664T92 696L91 701ZM243 -205L247 -202Q259 -209 272 -209Q297 -209 313 -195T330 -159Q330 -147 319 -140T296 -123T284 -93Q284 -72 299 -58T339 -44Q370 -44 386 -67T402 -123Q402 -166 379 -198T310 -231Q288 -231 271 -225T248 -212L243 -205Z" />
<glyph unicode="&#x137;" glyph-name="kcommaaccent" horiz-adv-x="542" d="M66 0Q77 9 84 108T91 297Q91 514 85 645Q83 686 79 714T70 750L67 757L70 761Q130 760 164 745T199 687Q199 637 197 533T195 375V293H200L213 306Q229 322 249 342T280 373T306 399T327
420T344 437T357 453T366 466T373 478T377 488T380 500Q409 508 434 508Q482 508 482 488Q482 471 456 446T373 378T285 306V302Q461 67 542 8V3Q518 -7 463 -7Q415 -7 368 32T292 119T238 208T203 253L196 255Q196 223 198 159T200 58Q200 -10 137 -10Q126 -10
66 0ZM181 -205L185 -202Q197 -209 210 -209Q235 -209 251 -195T268 -159Q268 -147 257 -140T234 -123T222 -93Q222 -72 237 -58T277 -44Q308 -44 324 -67T340 -123Q340 -166 317 -198T248 -231Q226 -231 209 -225T186 -212L181 -205Z" />
<glyph unicode="&#x138;" glyph-name="kgreenlandic" horiz-adv-x="539" d="M70 0Q92 82 92 321Q92 394 87 439T78 492L73 501Q104 510 120 510Q154 510 175 495T197 455Q197 398 199 278H202L215 291Q320 396 352 434T389 500Q418 508 443 508Q491 508 491 488Q491
471 465 444T375 365T287 291V287Q449 70 535 8V3Q511 -7 456 -7Q408 -7 363 30T290 112T238 196T205 238L200 239Q202 123 202 58Q202 -10 139 -10Q118 -10 70 0Z" />
<glyph unicode="&#x139;" glyph-name="Lacute" horiz-adv-x="555" d="M56 748V753Q140 800 194 922Q209 922 222 917T244 905T259 891T268 879L271 874Q259 826 197 785T87 744Q65 744 56 748ZM91 701Q120 710 136 710Q172 710 198 693T225 648Q225 585 223 491T220
363Q220 163 222 66L405 71Q502 74 539 93Q540 82 540 65Q540 19 522 7T445 -5L96 0Q107 28 107 277Q107 467 101 595Q99 638 97 664T92 696L91 701Z" />
<glyph unicode="&#x13a;" glyph-name="lacute" horiz-adv-x="290" d="M33 748V753Q117 800 171 922Q186 922 199 917T221 905T236 891T246 879L248 874Q236 826 174 785T64 744Q42 744 33 748ZM62 707L65 711Q125 710 159 695T194 637Q194 593 192 498T190 355Q190
214 194 107Q196 41 239 41Q248 41 257 44T272 52L277 55L281 52Q280 49 278 45T267 31T247 12T215 -3T170 -10Q132 -10 106 10T80 77Q80 112 82 215T85 377Q85 498 80 595Q78 636 74 664T66 700L62 707Z" />
<glyph unicode="&#x13b;" glyph-name="Lcommaaccent" horiz-adv-x="555" d="M91 701Q120 710 136 710Q172 710 198 693T225 648Q225 585 223 491T220 363Q220 163 222 66L405 71Q502 74 539 93Q540 82 540 65Q540 19 522 7T445 -5L96 0Q107 28 107 277Q107 467
101 595Q99 638 97 664T92 696L91 701ZM217 -205L221 -202Q233 -209 246 -209Q271 -209 287 -195T304 -159Q304 -147 293 -140T270 -123T258 -93Q258 -72 273 -58T313 -44Q344 -44 360 -67T376 -123Q376 -166 353 -198T284 -231Q262 -231 245 -225T222 -212L217
-205Z" />
<glyph unicode="&#x13c;" glyph-name="lcommaaccent" horiz-adv-x="291" d="M43 -205L47 -202Q59 -209 72 -209Q97 -209 113 -195T130 -159Q130 -147 119 -140T96 -123T84 -93Q84 -72 99 -58T139 -44Q170 -44 186 -67T202 -123Q202 -166 179 -198T110 -231Q88
-231 71 -225T48 -212L43 -205ZM62 757L65 761Q125 760 159 745T194 687Q194 637 192 533T190 375Q190 224 194 107Q196 41 239 41Q248 41 257 44T272 52L277 55L281 52Q280 49 278 45T267 31T247 12T215 -3T170 -10Q132 -10 106 10T80 77Q80 114 82 224T85 397Q85
538 80 645Q78 686 74 714T66 750L62 757Z" />
<glyph unicode="&#x13d;" glyph-name="Lcaron" horiz-adv-x="555" d="M91 701Q120 710 136 710Q172 710 198 693T225 648Q225 585 223 491T220 363Q220 163 222 66L405 71Q502 74 539 93Q540 82 540 65Q540 19 522 7T445 -5L96 0Q107 28 107 277Q107 467 101 595Q99
638 97 664T92 696L91 701ZM293 596L297 599Q309 592 322 592Q347 592 363 606T380 642Q380 654 369 661T346 678T334 708Q334 729 349 743T389 757Q420 757 436 734T452 678Q452 635 429 603T360 570Q338 570 321 576T298 590L293 596Z" />
<glyph unicode="&#x13e;" glyph-name="lcaron" horiz-adv-x="321" d="M62 757L65 761Q125 760 159 745T194 687Q194 637 192 533T190 375Q190 224 194 107Q196 41 239 41Q248 41 257 44T272 52L277 55L281 52Q280 49 278 45T267 31T247 12T215 -3T170 -10Q132
-10 106 10T80 77Q80 114 82 224T85 397Q85 538 80 645Q78 686 74 714T66 750L62 757ZM245 596L249 599Q261 592 274 592Q299 592 315 606T332 642Q332 654 321 661T298 678T286 708Q286 729 301 743T341 757Q372 757 388 734T404 678Q404 635 381 603T312 570Q290
570 273 576T250 590L245 596Z" />
<glyph unicode="&#x13f;" glyph-name="Ldot" horiz-adv-x="555" d="M91 701Q120 710 136 710Q172 710 198 693T225 648Q225 585 223 491T220 363Q220 163 222 66L405 71Q502 74 539 93Q540 82 540 65Q540 19 522 7T445 -5L96 0Q107 28 107 277Q107 467 101 595Q99
638 97 664T92 696L91 701ZM354 396Q354 424 374 444T421 464Q449 464 469 444T489 396Q489 369 469 349T421 329Q394 329 374 349T354 396Z" />
<glyph unicode="&#x140;" glyph-name="ldot" horiz-adv-x="397" d="M62 757L65 761Q125 760 159 745T194 687Q194 637 192 533T190 375Q190 224 194 107Q196 41 239 41Q248 41 257 44T272 52L277 55L281 52Q280 49 278 45T267 31T247 12T215 -3T170 -10Q132 -10
106 10T80 77Q80 114 82 224T85 397Q85 538 80 645Q78 686 74 714T66 750L62 757ZM271 395Q271 423 291 443T338 463Q366 463 386 443T406 395Q406 368 386 348T338 328Q311 328 291 348T271 395Z" />
<glyph unicode="&#x141;" glyph-name="Lslash" horiz-adv-x="586" d="M45 326Q45 340 67 350L137 384Q135 526 132 595Q130 638 128 664T124 696L122 701Q151 710 167 710Q203 710 229 693T256 648Q256 600 254 523T252 437L302 462Q310 466 333 477T372 497T404
517Q413 506 420 492T427 468Q427 455 405 444L251 371V363Q251 163 253 66L436 71Q533 74 570 93Q571 82 571 65Q571 19 553 7T476 -5L127 0Q138 28 138 277V315Q79 284 68 277Q59 288 53 301Q45 316 45 326Z" />
<glyph unicode="&#x142;" glyph-name="lslash" horiz-adv-x="331" d="M27 375Q27 389 49 399L104 425Q103 540 99 645Q97 686 93 714T84 750L81 757L84 761Q144 760 178 745T213 687Q213 656 213 621T211 542T210 474Q259 497 286 517Q295 506 302 492T309 468Q309
455 287 444L209 406V375Q209 224 213 107Q215 41 258 41Q267 41 276 44T291 52L296 55L300 52Q299 49 297 45T286 31T266 12T234 -3T189 -10Q151 -10 125 10T99 77Q99 114 101 211T104 357Q79 345 50 326Q41 337 35 350Q27 365 27 375Z" />
<glyph unicode="&#x143;" glyph-name="Nacute" horiz-adv-x="763" d="M91 700Q115 708 142 708Q183 708 194 691Q238 626 300 552L494 318Q581 212 594 185L598 189Q596 226 595 383T590 595Q588 638 586 664T582 696L580 701Q597 710 617 710Q647 710 655 697T663
653Q663 597 661 470T658 259Q658 40 667 0Q645 -6 618 -6Q589 -6 571 21Q537 74 461 165L263 402Q174 510 168 533L164 529Q164 452 168 297T173 59Q173 16 167 4T136 -9Q127 -9 116 -7T98 -2L92 1Q107 28 107 277Q107 451 101 595Q100 622 99 643T96 674T93 690T92
698L91 700ZM272 748V753Q356 800 410 922Q425 922 438 917T460 905T475 891T484 879L487 874Q475 826 413 785T303 744Q281 744 272 748Z" />
<glyph unicode="&#x144;" glyph-name="nacute" horiz-adv-x="611" d="M68 0Q72 2 77 23T87 104T92 245Q92 299 88 395Q86 438 81 464T72 496L68 501Q99 510 117 510Q151 510 173 495T195 455L191 430L195 429Q212 467 263 491T370 515Q417 515 448 504T493 470T511
425T516 371Q516 336 514 264T512 146Q512 123 513 110T518 78T534 50T562 41Q571 41 580 44T595 52L600 55L604 52Q603 49 601 45T590 31T570 12T538 -3T493 -10Q456 -10 430 9T403 71Q403 112 404 189T406 319Q406 345 405 360T400 395T386 427T360 446T318 454Q273
454 236 416T198 311Q198 267 200 187T202 58Q202 -10 139 -10Q116 -10 68 0ZM208 575V580Q292 627 346 749Q361 749 374 744T396 732T411 718T420 706L423 701Q411 653 349 612T239 571Q217 571 208 575Z" />
<glyph unicode="&#x145;" glyph-name="Ncommaaccent" horiz-adv-x="763" d="M91 700Q115 708 142 708Q183 708 194 691Q238 626 300 552L494 318Q581 212 594 185L598 189Q596 226 595 383T590 595Q588 638 586 664T582 696L580 701Q597 710 617 710Q647 710 655
697T663 653Q663 597 661 470T658 259Q658 40 667 0Q645 -6 618 -6Q589 -6 571 21Q537 74 461 165L263 402Q174 510 168 533L164 529Q164 452 168 297T173 59Q173 16 167 4T136 -9Q127 -9 116 -7T98 -2L92 1Q107 28 107 277Q107 451 101 595Q100 622 99 643T96
674T93 690T92 698L91 700ZM283 -205L287 -202Q299 -209 312 -209Q337 -209 353 -195T370 -159Q370 -147 359 -140T336 -123T324 -93Q324 -72 339 -58T379 -44Q410 -44 426 -67T442 -123Q442 -166 419 -198T350 -231Q328 -231 311 -225T288 -212L283 -205Z" />
<glyph unicode="&#x146;" glyph-name="ncommaaccent" horiz-adv-x="611" d="M68 0Q72 2 77 23T87 104T92 245Q92 299 88 395Q86 438 81 464T72 496L68 501Q99 510 117 510Q151 510 173 495T195 455L191 430L195 429Q212 467 263 491T370 515Q417 515 448 504T493
470T511 425T516 371Q516 336 514 264T512 146Q512 123 513 110T518 78T534 50T562 41Q571 41 580 44T595 52L600 55L604 52Q603 49 601 45T590 31T570 12T538 -3T493 -10Q456 -10 430 9T403 71Q403 112 404 189T406 319Q406 345 405 360T400 395T386 427T360 446T318
454Q273 454 236 416T198 311Q198 267 200 187T202 58Q202 -10 139 -10Q116 -10 68 0ZM210 -205L214 -202Q226 -209 239 -209Q264 -209 280 -195T297 -159Q297 -147 286 -140T263 -123T251 -93Q251 -72 266 -58T306 -44Q337 -44 353 -67T369 -123Q369 -166 346
-198T277 -231Q255 -231 238 -225T216 -212L210 -205Z" />
<glyph unicode="&#x147;" glyph-name="Ncaron" horiz-adv-x="763" d="M91 700Q115 708 142 708Q183 708 194 691Q238 626 300 552L494 318Q581 212 594 185L598 189Q596 226 595 383T590 595Q588 638 586 664T582 696L580 701Q597 710 617 710Q647 710 655 697T663
653Q663 597 661 470T658 259Q658 40 667 0Q645 -6 618 -6Q589 -6 571 21Q537 74 461 165L263 402Q174 510 168 533L164 529Q164 452 168 297T173 59Q173 16 167 4T136 -9Q127 -9 116 -7T98 -2L92 1Q107 28 107 277Q107 451 101 595Q100 622 99 643T96 674T93 690T92
698L91 700ZM215 918Q224 922 246 922Q276 922 318 893T377 835H382Q398 864 441 893T514 922Q536 922 545 918Q507 898 481 866T443 807T415 761T375 741Q365 741 353 744Q299 866 215 918Z" />
<glyph unicode="&#x148;" glyph-name="ncaron" horiz-adv-x="611" d="M68 0Q72 2 77 23T87 104T92 245Q92 299 88 395Q86 438 81 464T72 496L68 501Q99 510 117 510Q151 510 173 495T195 455L191 430L195 429Q212 467 263 491T370 515Q417 515 448 504T493 470T511
425T516 371Q516 336 514 264T512 146Q512 123 513 110T518 78T534 50T562 41Q571 41 580 44T595 52L600 55L604 52Q603 49 601 45T590 31T570 12T538 -3T493 -10Q456 -10 430 9T403 71Q403 112 404 189T406 319Q406 345 405 360T400 395T386 427T360 446T318 454Q273
454 236 416T198 311Q198 267 200 187T202 58Q202 -10 139 -10Q116 -10 68 0ZM151 745Q160 749 182 749Q212 749 254 720T313 662H318Q334 691 377 720T450 749Q472 749 481 745Q443 725 417 693T379 634T351 588T311 568Q301 568 289 571Q235 693 151 745Z" />
<glyph unicode="&#x149;" glyph-name="napostrophe" horiz-adv-x="611" d="M68 0Q72 2 77 23T87 104T92 245Q92 299 88 395Q86 438 81 464T72 496L68 501Q99 510 117 510Q151 510 173 495T195 455L191 430L195 429Q212 467 263 491T370 515Q417 515 448 504T493
470T511 425T516 371Q516 336 514 264T512 146Q512 123 513 110T518 78T534 50T562 41Q571 41 580 44T595 52L600 55L604 52Q603 49 601 45T590 31T570 12T538 -3T493 -10Q456 -10 430 9T403 71Q403 112 404 189T406 319Q406 345 405 360T400 395T386 427T360 446T318
454Q273 454 236 416T198 311Q198 267 200 187T202 58Q202 -10 139 -10Q116 -10 68 0ZM210 -205L214 -202Q226 -209 239 -209Q264 -209 280 -195T297 -159Q297 -147 286 -140T263 -123T251 -93Q251 -72 266 -58T306 -44Q337 -44 353 -67T369 -123Q369 -166 346
-198T277 -231Q255 -231 238 -225T216 -212L210 -205Z" />
<glyph unicode="&#x14a;" glyph-name="Eng" horiz-adv-x="765" d="M91 700Q115 708 142 708Q183 708 194 691Q238 626 300 552L494 318Q581 212 594 185L598 189Q596 226 595 383T590 595Q588 638 586 664T582 696L580 701Q597 710 617 710Q647 710 655 697T663
653Q663 551 663 365T662 38Q662 -56 620 -106T516 -160L514 -155Q537 -137 557 -90T577 -7Q577 19 553 53Q543 68 530 84T495 125T461 165L263 402Q174 510 168 533L164 529Q164 452 168 297T173 59Q173 16 167 4T136 -9Q127 -9 116 -7T98 -2L92 1Q107 28 107
277Q107 451 101 595Q100 622 99 643T96 674T93 690T92 698L91 700Z" />
<glyph unicode="&#x14b;" glyph-name="eng" horiz-adv-x="593" d="M68 0Q72 2 77 23T87 104T92 245Q92 299 88 395Q86 438 81 464T72 496L68 501Q99 510 117 510Q151 510 173 495T195 455L191 430L195 429Q212 467 263 491T370 515Q417 515 448 504T493 470T511
425T516 371Q516 318 515 207T514 36Q514 -60 466 -110T353 -160L351 -155Q376 -130 389 -47T404 107T406 295Q406 328 405 347T400 389T386 425T360 445T318 454Q273 454 236 416T198 311Q198 267 200 187T202 58Q202 -10 139 -10Q116 -10 68 0Z" />
<glyph unicode="&#x14c;" glyph-name="Omacron" horiz-adv-x="821" d="M56 333Q56 408 79 476T147 597T261 683T418 715Q529 715 610 667T728 546T766 387Q766 309 743 238T675 110T561 19T404 -15Q240 -15 148 87T56 333ZM185 357Q185 275 211 204T291 87T418
40Q486 40 537 88T613 208T637 363Q637 439 611 505T531 616T403 660Q335 660 284 615T209 503T185 357ZM249 820Q249 863 272 863Q366 858 464 858Q545 858 573 863Q577 843 577 818Q577 786 563 786Q469 790 368 790Q280 790 252 786Q249 802 249 820Z" />
<glyph unicode="&#x14d;" glyph-name="omacron" horiz-adv-x="600" d="M41 238Q41 352 111 433T305 515Q424 515 491 445T559 277Q559 158 489 72T295 -15Q175 -15 108 59T41 238ZM136 647Q136 690 159 690Q253 685 351 685Q432 685 460 690Q464 670 464 645Q464
613 450 613Q356 617 255 617Q167 617 139 613Q136 629 136 647ZM163 255Q163 163 200 97T305 31Q368 31 402 98T437 259Q437 345 400 407T294 469Q231 469 197 406T163 255Z" />
<glyph unicode="&#x14e;" glyph-name="Obreve" horiz-adv-x="821" d="M56 333Q56 408 79 476T147 597T261 683T418 715Q529 715 610 667T728 546T766 387Q766 309 743 238T675 110T561 19T404 -15Q240 -15 148 87T56 333ZM185 357Q185 275 211 204T291 87T418
40Q486 40 537 88T613 208T637 363Q637 439 611 505T531 616T403 660Q335 660 284 615T209 503T185 357ZM257 896Q257 917 289 917L328 912V891Q328 854 350 826T413 798Q452 798 474 826T497 892V912Q517 917 532 917Q569 917 569 896Q569 822 523 782T413 741T303
781T257 896Z" />
<glyph unicode="&#x14f;" glyph-name="obreve" horiz-adv-x="600" d="M41 238Q41 352 111 433T305 515Q424 515 491 445T559 277Q559 158 489 72T295 -15Q175 -15 108 59T41 238ZM144 723Q144 744 176 744L215 739V718Q215 681 237 653T300 625Q339 625 361 653T384
719V739Q404 744 419 744Q456 744 456 723Q456 649 410 609T300 568T190 608T144 723ZM163 255Q163 163 200 97T305 31Q368 31 402 98T437 259Q437 345 400 407T294 469Q231 469 197 406T163 255Z" />
<glyph unicode="&#x150;" glyph-name="Ohungarumlaut" horiz-adv-x="821" d="M56 333Q56 408 79 476T147 597T261 683T418 715Q529 715 610 667T728 546T766 387Q766 309 743 238T675 110T561 19T404 -15Q240 -15 148 87T56 333ZM185 357Q185 275 211 204T291
87T418 40Q486 40 537 88T613 208T637 363Q637 439 611 505T531 616T403 660Q335 660 284 615T209 503T185 357ZM215 748V753Q299 800 353 922Q368 922 381 917T403 905T418 891T428 879L430 874Q418 826 356 785T246 744Q224 744 215 748ZM398 748V753Q482 800
536 922Q560 922 579 910T606 886L613 874Q601 826 539 785T429 744Q407 744 398 748Z" />
<glyph unicode="&#x151;" glyph-name="ohungarumlaut" horiz-adv-x="600" d="M41 238Q41 352 111 433T305 515Q424 515 491 445T559 277Q559 158 489 72T295 -15Q175 -15 108 59T41 238ZM102 575V580Q186 627 240 749Q255 749 268 744T290 732T305 718T314 706L317
701Q305 653 243 612T133 571Q111 571 102 575ZM163 255Q163 163 200 97T305 31Q368 31 402 98T437 259Q437 345 400 407T294 469Q231 469 197 406T163 255ZM285 575V580Q369 627 423 749Q438 749 451 744T473 732T488 718T498 706L500 701Q488 653 426 612T316
571Q294 571 285 575Z" />
<glyph unicode="&#x152;" glyph-name="OE" horiz-adv-x="1121" d="M57 331Q57 496 158 605T439 715Q560 715 639 626L631 700H815Q883 700 938 702T1015 708L1036 710Q1033 686 1031 676T1021 651T997 632T955 627Q902 627 855 631T786 639L765 643Q765 595 763
397H917Q936 397 950 399T970 404L976 407Q974 367 963 350T916 333L762 339V235Q762 209 764 153T766 66L949 71Q1046 74 1083 93Q1084 82 1084 65Q1084 19 1066 7T989 -5L649 0Q652 17 652 81V107Q556 -15 385 -15Q238 -15 148 82T57 331ZM186 349Q186 227 250
134T408 40Q510 40 578 135T647 356Q647 476 580 568T414 660Q318 660 252 566T186 349Z" />
<glyph unicode="&#x153;" glyph-name="oe" horiz-adv-x="920" d="M42 235Q42 355 119 435T314 515Q451 515 508 426H513Q577 515 686 515Q778 515 824 473T870 372Q870 325 839 293T767 249T677 236Q651 236 624 243T582 257L567 264L563 262Q563 170 604 115T722
60Q758 60 797 74T858 102L879 117L884 112Q883 107 880 99T861 68T826 29T768 -1T682 -15Q561 -15 500 83H495Q422 -15 290 -15Q170 -15 106 49T42 235ZM165 265Q165 165 200 97T306 29Q362 29 400 89T439 235Q439 299 425 350T378 436T296 471Q242 471 204 411T165
265ZM564 310Q564 306 578 301T614 291T657 286Q695 286 723 308T751 373Q751 413 732 442T673 471Q629 471 597 410T564 310Z" />
<glyph unicode="&#x154;" glyph-name="Racute" horiz-adv-x="657" d="M92 702Q131 700 172 700H296Q421 700 488 650T555 520Q555 470 539 432T498 373T450 339T410 322L393 319V314Q412 286 442 243T541 117T646 14V7Q587 -6 558 -6Q514 -6 473 25T401 102T343
194T287 277T236 321L222 325Q222 324 224 224T227 58Q227 -10 162 -10Q156 -10 94 0Q107 28 107 277Q107 488 102 595Q97 692 92 702ZM201 758V763Q285 810 339 932Q354 932 367 927T389 915T404 901T414 889L416 884Q404 836 342 795T232 754Q210 754 201 758ZM222
373Q254 362 308 362Q366 362 401 395T437 499Q437 565 394 606T257 647H226Q222 535 222 373Z" />
<glyph unicode="&#x155;" glyph-name="racute" horiz-adv-x="404" d="M65 501Q96 510 114 510Q150 510 172 493T195 446L188 409L192 408Q212 453 256 481T343 510Q392 510 392 471T380 400L375 398Q319 426 295 426Q195 426 195 234Q195 146 200 88T210 16T218
0Q156 -10 148 -10Q117 -10 101 6T85 67Q85 98 87 156T90 241Q90 332 84 396T73 479T65 501ZM121 575V580Q205 627 259 749Q274 749 287 744T309 732T324 718T334 706L336 701Q324 653 262 612T152 571Q130 571 121 575Z" />
<glyph unicode="&#x156;" glyph-name="Rcommaaccent" horiz-adv-x="657" d="M92 702Q131 700 172 700H296Q421 700 488 650T555 520Q555 470 539 432T498 373T450 339T410 322L393 319V314Q412 286 442 243T541 117T646 14V7Q587 -6 558 -6Q514 -6 473 25T401
102T343 194T287 277T236 321L222 325Q222 324 224 224T227 58Q227 -10 162 -10Q156 -10 94 0Q107 28 107 277Q107 488 102 595Q97 692 92 702ZM222 373Q254 362 308 362Q366 362 401 395T437 499Q437 565 394 606T257 647H226Q222 535 222 373ZM237 -205L241 -202Q253
-209 266 -209Q291 -209 307 -195T324 -159Q324 -147 313 -140T290 -123T278 -93Q278 -72 293 -58T333 -44Q364 -44 380 -67T396 -123Q396 -166 373 -198T304 -231Q282 -231 265 -225T242 -212L237 -205Z" />
<glyph unicode="&#x157;" glyph-name="rcommaaccent" horiz-adv-x="404" d="M56 -205L60 -202Q72 -209 85 -209Q110 -209 126 -195T143 -159Q143 -147 132 -140T109 -123T97 -93Q97 -72 112 -58T152 -44Q183 -44 199 -67T215 -123Q215 -166 192 -198T123 -231Q101
-231 84 -225T62 -212L56 -205ZM65 501Q96 510 114 510Q150 510 172 493T195 446L188 409L192 408Q212 453 256 481T343 510Q392 510 392 471T380 400L375 398Q319 426 295 426Q195 426 195 234Q195 146 200 88T210 16T218 0Q156 -10 148 -10Q117 -10 101 6T85
67Q85 98 87 156T90 241Q90 332 84 396T73 479T65 501Z" />
<glyph unicode="&#x158;" glyph-name="Rcaron" horiz-adv-x="657" d="M92 702Q131 700 172 700H296Q421 700 488 650T555 520Q555 470 539 432T498 373T450 339T410 322L393 319V314Q412 286 442 243T541 117T646 14V7Q587 -6 558 -6Q514 -6 473 25T401 102T343
194T287 277T236 321L222 325Q222 324 224 224T227 58Q227 -10 162 -10Q156 -10 94 0Q107 28 107 277Q107 488 102 595Q97 692 92 702ZM144 928Q153 932 175 932Q205 932 247 903T306 845H311Q327 874 370 903T443 932Q465 932 474 928Q436 908 410 876T372 817T344
771T304 751Q294 751 282 754Q228 876 144 928ZM222 373Q254 362 308 362Q366 362 401 395T437 499Q437 565 394 606T257 647H226Q222 535 222 373Z" />
<glyph unicode="&#x159;" glyph-name="rcaron" horiz-adv-x="404" d="M64 745Q73 749 95 749Q125 749 167 720T226 662H231Q247 691 290 720T363 749Q385 749 394 745Q356 725 330 693T292 634T264 588T224 568Q214 568 202 571Q148 693 64 745ZM65 501Q96 510
114 510Q150 510 172 493T195 446L188 409L192 408Q212 453 256 481T343 510Q392 510 392 471T380 400L375 398Q319 426 295 426Q195 426 195 234Q195 146 200 88T210 16T218 0Q156 -10 148 -10Q117 -10 101 6T85 67Q85 98 87 156T90 241Q90 332 84 396T73 479T65
501Z" />
<glyph unicode="&#x15a;" glyph-name="Sacute" horiz-adv-x="589" d="M51 82Q51 98 75 141H82Q85 137 91 131T118 109T162 81T221 58T295 48Q363 48 394 78T426 154Q426 197 389 229T299 285T194 335T104 405T67 510Q67 604 141 659T317 715Q350 715 393 709T476
684T516 639Q516 597 477 558H470Q467 562 462 569T440 594T404 625T356 650T296 661Q245 661 212 629T179 549Q179 506 216 476T305 423T411 376T501 306T538 197Q538 99 461 42T281 -15Q205 -15 128 12T51 82ZM189 748V753Q273 800 327 922Q342 922 355 917T377
905T392 891T402 879L404 874Q392 826 330 785T220 744Q198 744 189 748Z" />
<glyph unicode="&#x15b;" glyph-name="sacute" horiz-adv-x="440" d="M40 56Q40 76 60 111H65Q72 103 84 91T136 59T221 39Q266 39 287 59T309 108Q309 136 282 157T217 195T141 230T76 284T49 366Q49 434 104 474T234 515Q278 515 331 501T385 459Q385 425 349
387H344Q342 390 338 396T322 416T296 442T261 462T219 471Q185 471 163 450T141 395Q141 367 168 347T233 312T309 278T374 224T401 139Q401 68 344 27T210 -15Q154 -15 97 5T40 56ZM110 575V580Q194 627 248 749Q263 749 276 744T298 732T313 718T322 706L325
701Q313 653 251 612T141 571Q119 571 110 575Z" />
<glyph unicode="&#x15c;" glyph-name="Scircumflex" horiz-adv-x="589" d="M51 82Q51 98 75 141H82Q85 137 91 131T118 109T162 81T221 58T295 48Q363 48 394 78T426 154Q426 197 389 229T299 285T194 335T104 405T67 510Q67 604 141 659T317 715Q350 715 393
709T476 684T516 639Q516 597 477 558H470Q467 562 462 569T440 594T404 625T356 650T296 661Q245 661 212 629T179 549Q179 506 216 476T305 423T411 376T501 306T538 197Q538 99 461 42T281 -15Q205 -15 128 12T51 82ZM119 748V753Q159 776 194 814T243 877T267
922Q279 925 289 925Q313 925 331 906T361 862T401 805T469 753V748Q460 744 438 744Q405 744 360 773T296 831H291Q273 802 228 773T150 744Q128 744 119 748Z" />
<glyph unicode="&#x15d;" glyph-name="scircumflex" horiz-adv-x="440" d="M40 56Q40 76 60 111H65Q72 103 84 91T136 59T221 39Q266 39 287 59T309 108Q309 136 282 157T217 195T141 230T76 284T49 366Q49 434 104 474T234 515Q278 515 331 501T385 459Q385 425
349 387H344Q342 390 338 396T322 416T296 442T261 462T219 471Q185 471 163 450T141 395Q141 367 168 347T233 312T309 278T374 224T401 139Q401 68 344 27T210 -15Q154 -15 97 5T40 56ZM40 575V580Q80 603 115 641T164 704T188 749Q200 752 210 752Q234 752 252
733T282 689T322 632T390 580V575Q381 571 359 571Q326 571 281 600T217 658H212Q194 629 149 600T71 571Q49 571 40 575Z" />
<glyph unicode="&#x15e;" glyph-name="Scedilla" horiz-adv-x="589" d="M51 82Q51 98 75 141H82Q85 137 91 131T118 109T162 81T221 58T295 48Q363 48 394 78T426 154Q426 197 389 229T299 285T194 335T104 405T67 510Q67 604 141 659T317 715Q350 715 393 709T476
684T516 639Q516 597 477 558H470Q467 562 462 569T440 594T404 625T356 650T296 661Q245 661 212 629T179 549Q179 506 216 476T305 423T411 376T501 306T538 197Q538 101 465 45T291 -15Q279 -35 279 -49Q279 -58 294 -63T327 -71T361 -89T376 -131Q376 -174
346 -202T263 -231Q227 -231 206 -218T185 -180Q185 -169 189 -158L193 -156Q208 -179 260 -179Q285 -179 297 -168T309 -144Q309 -131 296 -124T268 -113T240 -101T227 -76Q227 -49 257 -14Q181 -9 116 16T51 82Z" />
<glyph unicode="&#x15f;" glyph-name="scedilla" horiz-adv-x="440" d="M40 56Q40 76 60 111H65Q72 103 84 91T136 59T221 39Q266 39 287 59T309 108Q309 136 282 157T217 195T141 230T76 284T49 366Q49 434 104 474T234 515Q278 515 331 501T385 459Q385 425
349 387H344Q342 390 338 396T322 416T296 442T261 462T219 471Q185 471 163 450T141 395Q141 367 168 347T233 312T309 278T374 224T401 139Q401 69 346 28T215 -15Q203 -35 203 -49Q203 -58 218 -63T251 -71T285 -89T300 -131Q300 -174 270 -202T187 -231Q151
-231 130 -218T109 -180Q109 -169 113 -158L117 -156Q132 -179 184 -179Q209 -179 221 -168T233 -144Q233 -131 220 -124T192 -113T164 -101T151 -76Q151 -51 182 -13Q128 -8 84 11T40 56Z" />
<glyph unicode="&#x160;" glyph-name="Scaron" horiz-adv-x="589" d="M51 82Q51 98 75 141H82Q85 137 91 131T118 109T162 81T221 58T295 48Q363 48 394 78T426 154Q426 197 389 229T299 285T194 335T104 405T67 510Q67 604 141 659T317 715Q350 715 393 709T476
684T516 639Q516 597 477 558H470Q467 562 462 569T440 594T404 625T356 650T296 661Q245 661 212 629T179 549Q179 506 216 476T305 423T411 376T501 306T538 197Q538 99 461 42T281 -15Q205 -15 128 12T51 82ZM132 918Q141 922 163 922Q193 922 235 893T294 835H299Q315
864 358 893T431 922Q453 922 462 918Q424 898 398 866T360 807T332 761T292 741Q282 741 270 744Q216 866 132 918Z" />
<glyph unicode="&#x161;" glyph-name="scaron" horiz-adv-x="440" d="M40 56Q40 76 60 111H65Q72 103 84 91T136 59T221 39Q266 39 287 59T309 108Q309 136 282 157T217 195T141 230T76 284T49 366Q49 434 104 474T234 515Q278 515 331 501T385 459Q385 425 349
387H344Q342 390 338 396T322 416T296 442T261 462T219 471Q185 471 163 450T141 395Q141 367 168 347T233 312T309 278T374 224T401 139Q401 68 344 27T210 -15Q154 -15 97 5T40 56ZM53 745Q62 749 84 749Q114 749 156 720T215 662H220Q236 691 279 720T352 749Q374
749 383 745Q345 725 319 693T281 634T253 588T213 568Q203 568 191 571Q137 693 53 745Z" />
<glyph unicode="&#x162;" glyph-name="Tcommaaccent" horiz-adv-x="599" d="M14 662Q14 705 37 705Q373 700 474 700Q526 700 583 710Q587 685 587 660Q587 627 568 627Q473 628 363 629Q363 600 361 520T359 395Q359 133 376 0Q368 -1 348 -5T316 -10Q301 -35
301 -49Q301 -58 316 -63T349 -71T383 -89T398 -131Q398 -174 368 -202T285 -231Q249 -231 228 -218T207 -180Q207 -169 211 -158L215 -156Q230 -179 282 -179Q307 -179 319 -168T331 -144Q331 -131 318 -124T290 -113T262 -101T249 -76Q249 -46 285 -7Q244 3 244
58V368Q244 487 239 594Q237 622 237 630Q173 631 133 631Q80 631 17 622Q14 644 14 662Z" />
<glyph unicode="&#x163;" glyph-name="tcommaaccent" horiz-adv-x="387" d="M43 458V500Q73 500 128 545T194 617L217 609L197 500H279Q297 500 310 502T328 508L333 510Q334 504 334 483Q334 453 321 443T278 432L197 434Q194 316 194 240Q194 197 197 169T208
113T234 71T280 57Q302 57 328 68T370 92L386 104L391 100Q390 95 387 88T372 60T344 25T299 -2T236 -15H232Q220 -35 220 -49Q220 -58 235 -63T268 -71T302 -89T317 -131Q317 -174 287 -202T204 -231Q168 -231 147 -218T126 -180Q126 -169 130 -158L134 -156Q149
-179 201 -179Q226 -179 238 -168T250 -144Q250 -131 237 -124T209 -113T181 -101T168 -76Q168 -49 200 -12Q85 8 85 179Q85 215 87 278T89 357Q89 418 82 433T43 458Z" />
<glyph unicode="&#x164;" glyph-name="Tcaron" horiz-adv-x="599" d="M14 662Q14 705 37 705Q373 700 474 700Q526 700 583 710Q587 685 587 660Q587 627 568 627Q473 628 363 629Q363 600 361 520T359 395Q359 133 376 0Q314 -10 309 -10Q244 -10 244 58V368Q244
487 239 594Q237 622 237 630Q173 631 133 631Q80 631 17 622Q14 644 14 662ZM137 918Q146 922 168 922Q198 922 240 893T299 835H304Q320 864 363 893T436 922Q458 922 467 918Q429 898 403 866T365 807T337 761T297 741Q287 741 275 744Q221 866 137 918Z" />
<glyph unicode="&#x165;" glyph-name="tcaron" horiz-adv-x="387" d="M43 458V500Q73 500 128 545T194 617L217 609L197 500H279Q297 500 310 502T328 508L333 510Q334 504 334 483Q334 453 321 443T278 432L197 434Q194 316 194 240Q194 197 197 169T208 113T234
71T280 57Q302 57 328 68T370 92L386 104L391 100Q390 95 387 88T372 60T344 25T299 -2T236 -15Q153 -15 119 36T85 179Q85 213 87 272T89 347Q89 414 82 430T43 458ZM261 596L265 599Q277 592 290 592Q315 592 331 606T348 642Q348 654 337 661T314 678T302 708Q302
729 317 743T357 757Q388 757 404 734T420 678Q420 635 397 603T328 570Q306 570 289 576T266 590L261 596Z" />
<glyph unicode="&#x166;" glyph-name="Tbar" horiz-adv-x="632" d="M30 662Q30 705 53 705Q389 700 490 700Q542 700 599 710Q603 685 603 660Q603 627 584 627Q489 628 379 629Q379 600 377 520T375 395H438Q519 395 547 400Q551 380 551 355Q551 323 537 323L375
325Q375 132 392 0Q330 -10 325 -10Q260 -10 260 58V327H202Q114 327 86 323Q83 339 83 357Q83 400 106 400Q179 398 260 397Q259 487 255 594Q253 622 253 630Q189 631 149 631Q96 631 33 622Q30 644 30 662Z" />
<glyph unicode="&#x167;" glyph-name="tbar" horiz-adv-x="412" d="M31 288Q31 331 54 331Q74 329 104 328V357Q104 418 97 433T58 458V500Q88 500 143 545T209 617L232 609L212 500H294Q312 500 325 502T344 508L348 510Q349 504 349 483Q349 453 336 443T293
432L212 434Q210 380 209 326H241Q322 326 350 331Q354 311 354 286Q354 254 340 254Q286 257 209 258V240Q209 197 212 169T223 113T249 71T295 57Q317 57 343 68T386 92L401 104L406 100Q405 95 402 88T387 60T359 25T314 -2T251 -15Q168 -15 134 36T100 179Q100
232 101 258Q50 256 34 254Q31 270 31 288Z" />
<glyph unicode="&#x168;" glyph-name="Utilde" horiz-adv-x="749" d="M84 701Q121 710 139 710Q174 710 196 694T218 648Q218 615 218 478T217 297Q217 176 266 111T403 45Q489 45 538 110T588 297Q588 583 577 701Q607 710 622 710Q648 710 654 696T661 648Q661
604 657 478T653 310Q653 -15 378 -15Q248 -15 172 63T96 304Q96 408 95 486T92 603T88 664T85 693T84 701ZM206 787Q214 830 245 855T324 881Q361 881 414 858T494 834Q527 834 566 868Q558 825 527 799T448 773Q410 773 357 797T278 821Q245 821 206 787Z" />
<glyph unicode="&#x169;" glyph-name="utilde" horiz-adv-x="599" d="M56 501Q94 510 105 510Q140 510 165 493T190 446Q190 406 189 330T187 201Q187 173 188 154T194 113T207 78T232 57T271 48Q315 48 343 83T382 163T392 256Q392 353 387 411Q384 441 380 463T372
494L370 501Q401 510 419 510Q456 510 480 493T505 445Q505 400 501 302T497 145Q497 41 547 41Q556 41 565 44T580 52L585 55L589 52Q588 49 586 45T575 31T555 12T523 -3T478 -10Q445 -10 421 7T397 61L398 70L393 71Q391 68 388 62T372 41T343 15T297 -5T233
-15Q144 -15 111 28T77 144Q77 164 78 209T79 281Q79 357 76 405Q70 480 56 501ZM102 614Q110 657 141 682T220 708Q257 708 310 685T390 661Q423 661 462 695Q454 652 423 626T344 600Q306 600 253 624T174 648Q141 648 102 614Z" />
<glyph unicode="&#x16a;" glyph-name="Umacron" horiz-adv-x="749" d="M84 701Q121 710 139 710Q174 710 196 694T218 648Q218 615 218 478T217 297Q217 176 266 111T403 45Q489 45 538 110T588 297Q588 583 577 701Q607 710 622 710Q648 710 654 696T661 648Q661
604 657 478T653 310Q653 -15 378 -15Q248 -15 172 63T96 304Q96 408 95 486T92 603T88 664T85 693T84 701ZM222 820Q222 863 245 863Q339 858 437 858Q518 858 546 863Q550 843 550 818Q550 786 536 786Q442 790 341 790Q253 790 225 786Q222 802 222 820Z" />
<glyph unicode="&#x16b;" glyph-name="umacron" horiz-adv-x="599" d="M56 501Q94 510 105 510Q140 510 165 493T190 446Q190 406 189 330T187 201Q187 173 188 154T194 113T207 78T232 57T271 48Q315 48 343 83T382 163T392 256Q392 353 387 411Q384 441 380
463T372 494L370 501Q401 510 419 510Q456 510 480 493T505 445Q505 400 501 302T497 145Q497 41 547 41Q556 41 565 44T580 52L585 55L589 52Q588 49 586 45T575 31T555 12T523 -3T478 -10Q445 -10 421 7T397 61L398 70L393 71Q391 68 388 62T372 41T343 15T297
-5T233 -15Q144 -15 111 28T77 144Q77 164 78 209T79 281Q79 357 76 405Q70 480 56 501ZM118 647Q118 690 141 690Q235 685 333 685Q414 685 442 690Q446 670 446 645Q446 613 432 613Q338 617 237 617Q149 617 121 613Q118 629 118 647Z" />
<glyph unicode="&#x16c;" glyph-name="Ubreve" horiz-adv-x="749" d="M84 701Q121 710 139 710Q174 710 196 694T218 648Q218 615 218 478T217 297Q217 176 266 111T403 45Q489 45 538 110T588 297Q588 583 577 701Q607 710 622 710Q648 710 654 696T661 648Q661
604 657 478T653 310Q653 -15 378 -15Q248 -15 172 63T96 304Q96 408 95 486T92 603T88 664T85 693T84 701ZM230 896Q230 917 262 917L301 912V891Q301 854 323 826T386 798Q425 798 447 826T470 892V912Q490 917 505 917Q542 917 542 896Q542 822 496 782T386
741T276 781T230 896Z" />
<glyph unicode="&#x16d;" glyph-name="ubreve" horiz-adv-x="599" d="M56 501Q94 510 105 510Q140 510 165 493T190 446Q190 406 189 330T187 201Q187 173 188 154T194 113T207 78T232 57T271 48Q315 48 343 83T382 163T392 256Q392 353 387 411Q384 441 380 463T372
494L370 501Q401 510 419 510Q456 510 480 493T505 445Q505 400 501 302T497 145Q497 41 547 41Q556 41 565 44T580 52L585 55L589 52Q588 49 586 45T575 31T555 12T523 -3T478 -10Q445 -10 421 7T397 61L398 70L393 71Q391 68 388 62T372 41T343 15T297 -5T233
-15Q144 -15 111 28T77 144Q77 164 78 209T79 281Q79 357 76 405Q70 480 56 501ZM126 723Q126 744 158 744L197 739V718Q197 681 219 653T282 625Q321 625 343 653T366 719V739Q386 744 401 744Q438 744 438 723Q438 649 392 609T282 568T172 608T126 723Z" />
<glyph unicode="&#x16e;" glyph-name="Uring" horiz-adv-x="749" d="M84 701Q121 710 139 710Q174 710 196 694T218 648Q218 615 218 478T217 297Q217 176 266 111T403 45Q489 45 538 110T588 297Q588 583 577 701Q607 710 622 710Q648 710 654 696T661 648Q661
604 657 478T653 310Q653 -15 378 -15Q248 -15 172 63T96 304Q96 408 95 486T92 603T88 664T85 693T84 701ZM297 799T297 835T323 897T386 923T449 897T477 835T450 773T386 747T324 773ZM334 836Q334 815 349 797T387 779Q411 779 425 796T440 836Q440 857 424
873T387 889Q365 889 350 874T334 836Z" />
<glyph unicode="&#x16f;" glyph-name="uring" horiz-adv-x="599" d="M56 501Q94 510 105 510Q140 510 165 493T190 446Q190 406 189 330T187 201Q187 173 188 154T194 113T207 78T232 57T271 48Q315 48 343 83T382 163T392 256Q392 353 387 411Q384 441 380 463T372
494L370 501Q401 510 419 510Q456 510 480 493T505 445Q505 400 501 302T497 145Q497 41 547 41Q556 41 565 44T580 52L585 55L589 52Q588 49 586 45T575 31T555 12T523 -3T478 -10Q445 -10 421 7T397 61L398 70L393 71Q391 68 388 62T372 41T343 15T297 -5T233
-15Q144 -15 111 28T77 144Q77 164 78 209T79 281Q79 357 76 405Q70 480 56 501ZM193 626T193 662T219 724T282 750T345 724T373 662T346 600T282 574T220 600ZM230 663Q230 642 245 624T283 606Q307 606 321 623T336 663Q336 684 320 700T283 716Q261 716 246
701T230 663Z" />
<glyph unicode="&#x170;" glyph-name="Uhungarumlaut" horiz-adv-x="749" d="M84 701Q121 710 139 710Q174 710 196 694T218 648Q218 615 218 478T217 297Q217 176 266 111T403 45Q489 45 538 110T588 297Q588 583 577 701Q607 710 622 710Q648 710 654 696T661
648Q661 604 657 478T653 310Q653 -15 378 -15Q248 -15 172 63T96 304Q96 408 95 486T92 603T88 664T85 693T84 701ZM188 748V753Q272 800 326 922Q341 922 354 917T376 905T391 891T400 879L403 874Q391 826 329 785T219 744Q197 744 188 748ZM371 748V753Q455
800 509 922Q524 922 537 917T559 905T574 891T584 879L586 874Q574 826 512 785T402 744Q380 744 371 748Z" />
<glyph unicode="&#x171;" glyph-name="uhungarumlaut" horiz-adv-x="599" d="M56 501Q94 510 105 510Q140 510 165 493T190 446Q190 406 189 330T187 201Q187 173 188 154T194 113T207 78T232 57T271 48Q315 48 343 83T382 163T392 256Q392 353 387 411Q384 441
380 463T372 494L370 501Q401 510 419 510Q456 510 480 493T505 445Q505 400 501 302T497 145Q497 41 547 41Q556 41 565 44T580 52L585 55L589 52Q588 49 586 45T575 31T555 12T523 -3T478 -10Q445 -10 421 7T397 61L398 70L393 71Q391 68 388 62T372 41T343 15T297
-5T233 -15Q144 -15 111 28T77 144Q77 164 78 209T79 281Q79 357 76 405Q70 480 56 501ZM84 575V580Q168 627 222 749Q237 749 250 744T272 732T287 718T296 706L299 701Q287 653 225 612T115 571Q93 571 84 575ZM267 575V580Q351 627 405 749Q420 749 433 744T455
732T470 718T480 706L482 701Q470 653 408 612T298 571Q276 571 267 575Z" />
<glyph unicode="&#x172;" glyph-name="Uogonek" horiz-adv-x="749" d="M84 701Q121 710 139 710Q174 710 196 694T218 648Q218 615 218 478T217 297Q217 176 266 111T403 45Q489 45 538 110T588 297Q588 583 577 701Q607 710 622 710Q648 710 654 696T661 648Q661
604 657 478T653 310Q653 96 536 24Q485 -9 462 -38Q415 -97 415 -132Q415 -179 463 -179Q487 -179 509 -169L514 -173Q506 -200 479 -216T421 -232Q383 -232 357 -209T331 -140Q331 -80 419 -18V-13Q395 -15 378 -15Q248 -15 172 63T96 304Q96 408 95 486T92 603T88
664T85 693T84 701Z" />
<glyph unicode="&#x173;" glyph-name="uogonek" horiz-adv-x="599" d="M56 501Q94 510 105 510Q140 510 165 493T190 446Q190 406 189 330T187 201Q187 173 188 154T194 113T207 78T232 57T271 48Q315 48 343 83T382 163T392 256Q392 353 387 411Q384 441 380
463T372 494L370 501Q401 510 419 510Q456 510 480 493T505 445Q505 400 501 302T497 145Q497 41 547 41Q556 41 565 44T580 52L585 55L589 52L581 39Q572 25 547 3T513 -30Q460 -96 460 -132Q460 -179 508 -179Q532 -179 554 -169L559 -173Q551 -200 524 -216T466
-232Q428 -232 402 -209T376 -140Q376 -78 469 -15V-10Q398 -5 397 60V61L398 70L393 71Q391 68 388 62T372 41T343 15T297 -5T233 -15Q144 -15 111 28T77 144Q77 164 78 209T79 281Q79 357 76 405Q70 480 56 501Z" />
<glyph unicode="&#x174;" glyph-name="Wcircumflex" horiz-adv-x="1007" d="M8 695Q31 708 99 708Q127 708 151 691T183 643Q204 559 259 400T363 116H368Q465 381 465 444Q465 479 446 542T407 650L388 695Q398 708 461 708Q489 708 514 691T545 643Q564 555
613 394T705 116H710Q768 285 831 493Q878 643 896 675T959 708Q973 708 984 705T1000 700L1004 697V692Q966 663 930 563L757 83L728 -15Q723 -15 715 -14T683 -6T641 12T602 48T573 105L507 340H502Q499 318 492 297L415 83L386 -15Q381 -15 373 -15T343 -8T301
10T262 46T231 105Q115 480 56 607Q43 635 31 657T14 687L8 695ZM297 748V753Q337 776 372 814T421 877T445 922Q457 925 467 925Q491 925 509 906T539 862T579 805T647 753V748Q638 744 616 744Q583 744 538 773T474 831H469Q451 802 406 773T328 744Q306 744
297 748Z" />
<glyph unicode="&#x175;" glyph-name="wcircumflex" horiz-adv-x="797" d="M1 495V500Q41 508 76 508Q103 508 126 496T155 461Q188 325 285 81H290Q336 183 353 237T370 333Q370 360 357 401T331 471L318 499Q336 508 376 508Q404 508 427 496T455 461Q471 390
507 275T575 81H580V82Q606 158 627 227T657 336T676 412T689 463T701 491T720 505T750 508Q764 508 775 506T792 502L796 500V495Q771 480 744 405L593 -15Q589 -15 582 -14T554 -8T517 5T483 30T458 72L409 234H404Q394 196 332 61L297 -15Q293 -15 286 -14T260
-8T224 5T192 30T168 72Q87 336 41 435Q20 479 1 495ZM216 575V580Q256 603 291 641T340 704T364 749Q376 752 386 752Q410 752 428 733T458 689T498 632T566 580V575Q557 571 535 571Q502 571 457 600T393 658H388Q370 629 325 600T247 571Q225 571 216 575Z"
/>
<glyph unicode="&#x176;" glyph-name="Ycircumflex" horiz-adv-x="648" d="M12 695V700Q40 708 88 708Q135 708 152 698T186 656Q256 529 348 405H353Q389 462 424 522T475 611T510 665T545 699T584 708Q596 708 610 706T632 702L640 700V695Q606 668 577 630Q543
587 472 479T382 336Q382 128 399 0Q336 -10 332 -10Q267 -10 267 58V334Q246 356 207 414T123 543T61 639Q52 652 40 666T20 688L12 695ZM156 748V753Q196 776 231 814T280 877T304 922Q316 925 326 925Q350 925 368 906T398 862T438 805T506 753V748Q497 744
475 744Q442 744 397 773T333 831H328Q310 802 265 773T187 744Q165 744 156 748Z" />
<glyph unicode="&#x177;" glyph-name="ycircumflex" horiz-adv-x="507" d="M2 495V500Q42 508 77 508Q143 508 154 466Q169 404 210 284T286 76Q310 145 329 208T359 311T378 386T392 441T402 475T414 497T432 505T459 508Q473 508 484 506T500 502L505 500V495Q479
478 453 403L305 -15Q266 -124 209 -177T86 -230Q71 -230 61 -229T44 -221T33 -211T27 -195T24 -178T23 -155T22 -130Q67 -140 99 -140Q196 -140 240 -40L256 -3Q185 14 168 72Q87 334 42 435Q21 479 2 495ZM94 575V580Q134 603 169 641T218 704T242 749Q254 752
264 752Q288 752 306 733T336 689T376 632T444 580V575Q435 571 413 571Q380 571 335 600T271 658H266Q248 629 203 600T125 571Q103 571 94 575Z" />
<glyph unicode="&#x178;" glyph-name="Ydieresis" horiz-adv-x="648" d="M12 695V700Q40 708 88 708Q135 708 152 698T186 656Q256 529 348 405H353Q389 462 424 522T475 611T510 665T545 699T584 708Q596 708 610 706T632 702L640 700V695Q606 668 577 630Q543
587 472 479T382 336Q382 128 399 0Q336 -10 332 -10Q267 -10 267 58V334Q246 356 207 414T123 543T61 639Q52 652 40 666T20 688L12 695ZM178 818T178 842T195 883T237 901T278 884T296 842T279 801T237 783T196 800ZM371 818T371 842T388 883T429 901Q454 901
471 884T489 842T472 801T429 783Q406 783 389 800Z" />
<glyph unicode="&#x179;" glyph-name="Zacute" horiz-adv-x="601" d="M40 710Q104 700 300 700H534V684Q534 642 515 613Q445 505 362 354T238 120Q227 100 203 68L205 64Q227 75 485 75Q541 75 554 59T565 -10Q498 0 287 0H54Q54 6 54 13T53 25Q53 59 67 82Q115
156 226 354T377 634L375 638Q344 627 118 627Q76 627 58 646T40 710ZM194 748V753Q278 800 332 922Q347 922 360 917T382 905T397 891T406 879L409 874Q397 826 335 785T225 744Q203 744 194 748Z" />
<glyph unicode="&#x17a;" glyph-name="zacute" horiz-adv-x="475" d="M35 18Q35 43 46 59Q92 125 176 257T287 443L285 447Q231 437 81 437Q67 437 58 442T45 461T39 483T35 512Q86 500 243 500H427V488Q427 459 412 437Q356 356 170 58L172 54Q217 68 372 68Q422
68 433 54T451 -8Q389 0 224 0H36Q35 10 35 18ZM133 575V580Q217 627 271 749Q286 749 299 744T321 732T336 718T346 706L348 701Q336 653 274 612T164 571Q142 571 133 575Z" />
<glyph unicode="&#x17b;" glyph-name="Zdotaccent" horiz-adv-x="601" d="M40 710Q104 700 300 700H534V684Q534 642 515 613Q445 505 362 354T238 120Q227 100 203 68L205 64Q227 75 485 75Q541 75 554 59T565 -10Q498 0 287 0H54Q54 6 54 13T53 25Q53 59 67
82Q115 156 226 354T377 634L375 638Q344 627 118 627Q76 627 58 646T40 710ZM235 835Q235 863 255 883T302 903Q330 903 350 883T370 835Q370 808 350 788T302 768Q275 768 255 788T235 835Z" />
<glyph unicode="&#x17c;" glyph-name="zdotaccent" horiz-adv-x="475" d="M35 18Q35 43 46 59Q92 125 176 257T287 443L285 447Q231 437 81 437Q67 437 58 442T45 461T39 483T35 512Q86 500 243 500H427V488Q427 459 412 437Q356 356 170 58L172 54Q217 68 372
68Q422 68 433 54T451 -8Q389 0 224 0H36Q35 10 35 18ZM174 662Q174 690 194 710T241 730Q269 730 289 710T309 662Q309 635 289 615T241 595Q214 595 194 615T174 662Z" />
<glyph unicode="&#x17d;" glyph-name="Zcaron" horiz-adv-x="601" d="M40 710Q104 700 300 700H534V684Q534 642 515 613Q445 505 362 354T238 120Q227 100 203 68L205 64Q227 75 485 75Q541 75 554 59T565 -10Q498 0 287 0H54Q54 6 54 13T53 25Q53 59 67 82Q115
156 226 354T377 634L375 638Q344 627 118 627Q76 627 58 646T40 710ZM137 918Q146 922 168 922Q198 922 240 893T299 835H304Q320 864 363 893T436 922Q458 922 467 918Q429 898 403 866T365 807T337 761T297 741Q287 741 275 744Q221 866 137 918Z" />
<glyph unicode="&#x17e;" glyph-name="zcaron" horiz-adv-x="475" d="M35 18Q35 43 46 59Q92 125 176 257T287 443L285 447Q231 437 81 437Q67 437 58 442T45 461T39 483T35 512Q86 500 243 500H427V488Q427 459 412 437Q356 356 170 58L172 54Q217 68 372 68Q422
68 433 54T451 -8Q389 0 224 0H36Q35 10 35 18ZM76 745Q85 749 107 749Q137 749 179 720T238 662H243Q259 691 302 720T375 749Q397 749 406 745Q368 725 342 693T304 634T276 588T236 568Q226 568 214 571Q160 693 76 745Z" />
<glyph unicode="&#x17f;" glyph-name="longs" horiz-adv-x="295" d="M12 -217Q47 -203 64 -175T92 -51T103 233Q103 368 95 407T57 458L31 468V500Q66 500 82 512T99 560Q99 670 153 725T300 780Q374 780 419 748T465 664L460 661Q428 713 336 713Q207 713 207
547Q207 466 208 278T209 -30Q209 -122 162 -176T47 -231Q27 -231 12 -222V-217Z" />
<glyph unicode="&#x192;" glyph-name="florin" horiz-adv-x="374" d="M-73 -217Q-35 -203 -14 -175T36 -51T97 233Q119 359 119 402Q119 424 113 433T91 448L67 458L72 500Q141 500 156 575Q177 683 234 730T366 778Q419 778 460 749T502 664L497 661Q454 709
394 709Q375 709 360 706T332 693T310 677T292 654T279 628T268 597T260 566T253 532T246 500H316Q334 500 348 502T367 508L372 510Q372 464 356 448T305 432Q301 432 271 432T236 433Q221 357 194 211T149 -30Q132 -122 78 -176T-40 -231Q-48 -231 -56 -229T-68
-224L-73 -222V-217Z" />
<glyph unicode="&#x218;" glyph-name="Scommaaccent" horiz-adv-x="589" d="M51 82Q51 98 75 141H82Q85 137 91 131T118 109T162 81T221 58T295 48Q363 48 394 78T426 154Q426 197 389 229T299 285T194 335T104 405T67 510Q67 604 141 659T317 715Q350 715 393
709T476 684T516 639Q516 597 477 558H470Q467 562 462 569T440 594T404 625T356 650T296 661Q245 661 212 629T179 549Q179 506 216 476T305 423T411 376T501 306T538 197Q538 99 461 42T281 -15Q205 -15 128 12T51 82ZM185 -205L189 -202Q201 -209 214 -209Q239
-209 255 -195T272 -159Q272 -147 261 -140T238 -123T226 -93Q226 -72 241 -58T281 -44Q312 -44 328 -67T344 -123Q344 -166 321 -198T252 -231Q230 -231 213 -225T190 -212L185 -205Z" />
<glyph unicode="&#x219;" glyph-name="scommaaccent" horiz-adv-x="440" d="M40 56Q40 76 60 111H65Q72 103 84 91T136 59T221 39Q266 39 287 59T309 108Q309 136 282 157T217 195T141 230T76 284T49 366Q49 434 104 474T234 515Q278 515 331 501T385 459Q385
425 349 387H344Q342 390 338 396T322 416T296 442T261 462T219 471Q185 471 163 450T141 395Q141 367 168 347T233 312T309 278T374 224T401 139Q401 68 344 27T210 -15Q154 -15 97 5T40 56ZM109 -205L113 -202Q125 -209 138 -209Q163 -209 179 -195T196 -159Q196
-147 185 -140T162 -123T150 -93Q150 -72 165 -58T205 -44Q236 -44 252 -67T268 -123Q268 -166 245 -198T176 -231Q154 -231 137 -225T114 -212L109 -205Z" />
<glyph unicode="&#x21a;" glyph-name="uni021A" horiz-adv-x="599" d="M14 662Q14 705 37 705Q373 700 474 700Q526 700 583 710Q587 685 587 660Q587 627 568 627Q473 628 363 629Q363 600 361 520T359 395Q359 133 376 0Q314 -10 309 -10Q244 -10 244 58V368Q244
487 239 594Q237 622 237 630Q173 631 133 631Q80 631 17 622Q14 644 14 662ZM207 -205L211 -202Q223 -209 236 -209Q261 -209 277 -195T294 -159Q294 -147 283 -140T260 -123T248 -93Q248 -72 263 -58T303 -44Q334 -44 350 -67T366 -123Q366 -166 343 -198T274
-231Q252 -231 235 -225T212 -212L207 -205Z" />
<glyph unicode="&#x21b;" glyph-name="uni021B" horiz-adv-x="387" d="M43 458V500Q73 500 128 545T194 617L217 609L197 500H279Q297 500 310 502T328 508L333 510Q334 504 334 483Q334 453 321 443T278 432L197 434Q194 316 194 240Q194 197 197 169T208 113T234
71T280 57Q302 57 328 68T370 92L386 104L391 100Q390 95 387 88T372 60T344 25T299 -2T236 -15Q153 -15 119 36T85 179Q85 215 87 278T89 357Q89 418 82 433T43 458ZM126 -205L130 -202Q142 -209 155 -209Q180 -209 196 -195T213 -159Q213 -147 202 -140T179 -123T167
-93Q167 -72 182 -58T222 -44Q253 -44 269 -67T285 -123Q285 -166 262 -198T193 -231Q171 -231 154 -225T132 -212L126 -205Z" />
<glyph unicode="&#x2c6;" glyph-name="circumflex" horiz-adv-x="400" d="M25 575V580Q65 603 100 641T149 704T173 749Q185 752 195 752Q219 752 237 733T267 689T307 632T375 580V575Q366 571 344 571Q311 571 266 600T202 658H197Q179 629 134 600T56 571Q34
571 25 575Z" />
<glyph unicode="&#x2c7;" glyph-name="caron" horiz-adv-x="400" d="M35 745Q44 749 66 749Q96 749 138 720T197 662H202Q218 691 261 720T334 749Q356 749 365 745Q327 725 301 693T263 634T235 588T195 568Q185 568 173 571Q119 693 35 745Z" />
<glyph unicode="&#x2d8;" glyph-name="breve" horiz-adv-x="400" d="M44 723Q44 744 76 744L115 739V718Q115 681 137 653T200 625Q239 625 261 653T284 719V739Q304 744 319 744Q356 744 356 723Q356 649 310 609T200 568T90 608T44 723Z" />
<glyph unicode="&#x2d9;" glyph-name="dotaccent" horiz-adv-x="400" d="M132 662Q132 690 152 710T199 730Q227 730 247 710T267 662Q267 635 247 615T199 595Q172 595 152 615T132 662Z" />
<glyph unicode="&#x2da;" glyph-name="ring" horiz-adv-x="400" d="M110 626T110 662T136 724T199 750T262 724T290 662T263 600T199 574T137 600ZM147 663Q147 642 162 624T200 606Q224 606 238 623T253 663Q253 684 237 700T200 716Q178 716 163 701T147 663Z" />
<glyph unicode="&#x2db;" glyph-name="ogonek" horiz-adv-x="400" d="M96 -140Q96 -61 240 16L265 6Q255 -4 241 -19T204 -72T180 -132Q180 -179 228 -179Q252 -179 274 -169L279 -173Q271 -200 244 -216T186 -232Q148 -232 122 -209T96 -140Z" />
<glyph unicode="&#x2dc;" glyph-name="tilde" horiz-adv-x="400" d="M20 614Q28 657 59 682T138 708Q175 708 228 685T308 661Q341 661 380 695Q372 652 341 626T262 600Q224 600 171 624T92 648Q59 648 20 614Z" />
<glyph unicode="&#x2dd;" glyph-name="hungarumlaut" horiz-adv-x="400" d="M1 575V580Q85 627 139 749Q154 749 167 744T189 732T204 718T214 706L216 701Q204 653 142 612T32 571Q10 571 1 575ZM184 575V580Q268 627 322 749Q337 749 350 744T372 732T387 718T396
706L399 701Q387 653 325 612T215 571Q193 571 184 575Z" />
<glyph unicode="&#x394;" glyph-name="uni2206" horiz-adv-x="838" d="M50 348Q50 409 70 464Q130 366 236 303Q161 233 84 196Q50 267 50 348ZM114 554Q208 690 360 714Q293 611 291 469Q218 492 114 554ZM143 108Q250 114 356 166Q373 94 373 10V-16Q241 -1
143 108ZM198 413Q198 436 211 459Q223 460 233 460Q279 460 322 432T381 360L377 356Q311 382 248 382Q247 382 207 378Q198 391 198 413ZM206 227Q220 268 263 298T352 328Q368 328 376 325L378 320Q299 259 274 184Q230 184 206 227ZM342 532Q363 569 414 569Q446
531 446 471Q446 407 412 373L408 374Q401 424 382 467T342 532ZM371 144T371 205T403 305L408 303Q416 254 435 211T475 145Q454 108 403 108Q371 144 371 205ZM436 318L440 320Q504 295 568 295Q590 295 610 299Q619 279 619 264Q619 241 605 218Q594 217 584
217Q537 217 494 245T436 318ZM440 352V356Q478 387 505 425T543 493Q585 493 611 450Q597 409 554 379T465 349Q448 349 440 352ZM448 670Q448 700 449 718Q528 711 597 671T712 569H699Q593 569 465 503Q448 588 448 670ZM474 -15Q521 79 530 208Q618 176 705
121Q614 9 474 -15ZM585 371Q653 439 758 493Q788 422 788 348Q788 273 755 201Q700 299 585 371Z" />
<glyph unicode="&#x3a9;" glyph-name="uni2126" horiz-adv-x="814" d="M50 358Q50 378 85 378Q167 378 323 371L324 374L187 448Q88 501 85 502Q96 545 117 545Q129 545 163 524Q191 507 345 409L347 411L265 545Q255 562 241 584T218 621T204 643Q231 666 245
666Q254 666 259 660T280 624L383 432L386 433L381 590Q380 609 380 635T379 679T377 705Q393 708 411 708Q434 708 434 685V651Q434 613 427 433H430L504 570Q513 586 526 610T547 649T559 673Q573 667 589 658Q602 651 602 641Q602 634 581 597Q577 590 525 505T467
411L469 409L601 492Q617 502 640 516T677 539T700 554Q723 525 723 512Q723 504 707 493T627 447L489 373L490 370Q754 379 762 380Q764 370 764 353Q764 332 755 328T712 323Q708 323 490 329L489 325L627 253Q726 200 729 199Q714 155 697 155Q687 155 601 208L468
290L466 288L549 156Q559 140 573 117T595 80T610 58Q582 34 568 34Q558 34 551 47L534 76Q520 98 504 130L430 267L427 266L433 111Q434 92 434 66T435 22T437 -4Q421 -7 403 -7Q380 -7 380 16V49Q380 87 381 111L386 266L383 267L310 131Q301 115 288 91T267
52T255 28Q241 34 225 43Q212 50 212 60Q212 69 233 103Q239 113 347 288L345 290L213 209Q197 199 174 185T137 162T114 147Q91 173 91 189Q91 200 105 209T187 254L324 327L323 330L168 325Q149 324 122 324T79 323T52 321Q50 337 50 358Z" />
<glyph unicode="&#x3bc;" glyph-name="mu" horiz-adv-x="815" d="M38 343Q38 499 143 606T410 714Q566 714 672 610T778 355Q778 199 673 92T406 -16Q250 -16 144 88T38 343ZM99 346Q99 278 125 218Q126 249 160 289T228 345V351Q195 366 162 406T125 477Q99 417
99 346ZM139 194Q190 197 238 223T319 274T369 298Q380 298 385 294L392 288Q384 248 384 191Q384 102 409 40Q432 92 432 156Q432 178 429 211T426 257Q426 291 443 300L453 305Q483 277 548 240T676 195Q651 231 613 258T544 297T491 324T468 356L469 366Q507
378 572 415T677 503Q637 501 598 484T534 449T485 415T447 399Q440 399 432 404L424 409Q432 454 432 507Q432 595 408 659Q383 608 383 542Q383 520 386 486T390 440Q390 407 373 397L364 394Q242 491 139 503Q164 467 203 440T272 401T325 374T348 341L347 333Q307
319 243 282T139 194ZM152 169Q190 113 249 79T381 38Q356 53 338 97T320 181Q320 182 320 186T321 192L317 195Q272 161 198 161Q173 161 152 169ZM154 529Q173 537 198 537Q264 537 316 503L320 505Q319 512 319 515Q319 553 338 598T381 660Q312 654 253 620T154
529ZM434 38Q503 43 562 77T661 167Q643 161 619 161Q549 161 501 195L496 193V181Q496 143 478 98T434 38ZM435 660Q460 643 478 599T496 516V506L499 503Q549 537 618 537Q647 537 664 527Q626 584 567 619T435 660ZM588 346Q621 332 654 292T690 221Q717 283
717 352Q717 417 691 479Q689 449 656 409T588 352V346Z" />
<glyph unicode="&#x3c0;" glyph-name="pi" horiz-adv-x="833" d="M51 333Q51 503 159 608T443 714Q595 714 693 615T791 365Q791 195 683 90T399 -16Q247 -16 149 83T51 333ZM129 346Q129 216 213 129T423 42Q543 42 628 130T713 352Q713 482 629 569T421 656Q300
656 215 568T129 346ZM303 542Q324 541 338 541H433Q510 541 552 507T594 427Q594 361 543 323T426 285Q406 285 396 287Q398 191 405 144Q352 139 348 139Q312 139 312 177V355Q312 428 309 482L303 542ZM396 328Q403 327 415 327Q457 327 480 355T504 422Q504
453 481 475T415 497H398Q396 411 396 370V328Z" />
<glyph unicode="&#x1e9e;" glyph-name="uni1E9E" horiz-adv-x="718" d="M31 -153Q74 -110 85 -7T96 391Q96 545 163 630T389 715Q444 715 499 706T582 686L610 677L613 672Q612 656 568 571T470 399L472 395Q568 381 619 328T670 205Q670 118 606 52T436 -15Q312
-15 274 80L279 85Q324 52 400 52Q466 52 503 93T540 193Q540 255 493 303T361 356Q342 356 342 366L350 395Q451 564 484 637L482 641Q458 657 397 657Q359 657 329 642T279 606T246 547T225 477T214 393T210 309T209 222Q209 183 210 121T211 38Q211 -61 162
-109T33 -158L31 -153Z" />
<glyph unicode="&#x2013;" glyph-name="endash" horiz-adv-x="697" d="M73 277Q73 320 96 320Q159 315 230 315H511Q592 315 620 320Q624 300 624 275Q624 243 610 243Q549 246 477 247H192Q104 247 76 243Q73 259 73 277Z" />
<glyph unicode="&#x2014;" glyph-name="emdash" horiz-adv-x="807" d="M73 277Q73 320 96 320Q159 315 230 315H621Q702 315 730 320Q734 300 734 275Q734 243 720 243Q659 246 587 247H192Q104 247 76 243Q73 259 73 277Z" />
<glyph unicode="&#x2018;" glyph-name="quoteleft" horiz-adv-x="205" d="M40 510Q40 575 78 644T168 733L172 729Q143 642 143 542Q143 518 150 480Q126 467 97 467Q66 467 45 476Q40 492 40 510Z" />
<glyph unicode="&#x2019;" glyph-name="quoteright" horiz-adv-x="200" d="M41 471Q70 558 70 658Q70 682 63 720Q87 733 116 733Q147 733 168 724Q173 708 173 690Q173 625 135 556T45 467L41 471Z" />
<glyph unicode="&#x201a;" glyph-name="quotesinglbase" horiz-adv-x="220" d="M34 -137Q63 -50 63 50Q63 74 56 112Q80 125 109 125Q140 125 161 116Q166 100 166 82Q166 17 128 -52T38 -141L34 -137Z" />
<glyph unicode="&#x201c;" glyph-name="quotedblleft" horiz-adv-x="363" d="M41 510Q41 575 77 644T162 733L166 729Q137 642 137 542Q137 518 144 480Q120 467 91 467Q66 467 46 476Q41 490 41 510ZM206 510Q206 575 242 644T327 733L331 729Q302 642 302 542Q302
518 309 480Q285 467 256 467Q230 467 211 476Q206 490 206 510Z" />
<glyph unicode="&#x201d;" glyph-name="quotedblright" horiz-adv-x="359" d="M41 471Q70 558 70 658Q70 682 63 720Q87 733 116 733Q142 733 161 724Q166 710 166 690Q166 625 130 556T45 467L41 471ZM206 471Q235 558 235 658Q235 682 228 720Q252 733 281 733Q306
733 326 724Q331 710 331 690Q331 625 295 556T210 467L206 471Z" />
<glyph unicode="&#x201e;" glyph-name="quotedblbase" horiz-adv-x="378" d="M34 -137Q63 -50 63 50Q63 74 56 112Q80 125 109 125Q134 125 154 116Q159 102 159 82Q159 17 123 -52T38 -141L34 -137ZM199 -137Q228 -50 228 50Q228 74 221 112Q245 125 274 125Q300
125 319 116Q324 102 324 82Q324 17 288 -52T203 -141L199 -137Z" />
<glyph unicode="&#x2020;" glyph-name="dagger" horiz-adv-x="424" d="M33 461Q33 504 56 504Q112 499 177 499Q178 539 178 591Q178 672 173 700Q196 704 216 704T243 698T250 676Q250 571 249 499H278Q359 499 387 504Q391 484 391 459Q391 427 377 427Q318
430 249 431Q245 43 245 -58Q245 -139 250 -167Q234 -170 216 -170Q173 -170 173 -143Q173 61 177 431H152Q64 431 36 427Q33 443 33 461Z" />
<glyph unicode="&#x2021;" glyph-name="daggerdbl" horiz-adv-x="452" d="M47 248Q47 291 70 291Q125 286 190 286Q190 386 191 431H166Q78 431 50 427Q47 443 47 461Q47 504 70 504Q126 499 191 499Q192 539 192 591Q192 672 187 700Q210 704 230 704T257 698T264
676Q264 571 263 499H292Q373 499 401 504Q405 484 405 459Q405 427 391 427Q332 430 263 431L261 286H292Q373 286 401 291Q405 271 405 246Q405 214 391 214Q331 217 261 218Q259 -32 259 -58Q259 -139 264 -167Q248 -170 230 -170Q187 -170 187 -143Q187 -70
189 218H166Q78 218 50 214Q47 230 47 248Z" />
<glyph unicode="&#x2022;" glyph-name="bullet" horiz-adv-x="474" d="M60 198T60 271T112 396T237 448T362 396T414 271T362 146T237 94T112 146Z" />
<glyph unicode="&#x2026;" glyph-name="ellipsis" horiz-adv-x="839" d="M47 57Q47 85 67 105T114 125Q142 125 162 105T182 57Q182 30 162 10T114 -10Q87 -10 67 10T47 57ZM352 57Q352 85 372 105T419 125Q447 125 467 105T487 57Q487 30 467 10T419 -10Q392
-10 372 10T352 57ZM657 57Q657 85 677 105T724 125Q752 125 772 105T792 57Q792 30 772 10T724 -10Q697 -10 677 10T657 57Z" />
<glyph unicode="&#x2030;" glyph-name="perthousand" horiz-adv-x="1037" d="M40 490T40 551T85 656T190 701Q251 701 297 657T343 551T297 446T190 401Q130 401 85 445ZM63 215Q63 231 86 241Q148 271 191 295L550 496Q626 538 649 555Q658 544 665 532Q677 508
677 498Q677 484 656 473L550 419L193 218Q113 174 94 159Q83 173 72 191Q63 206 63 215ZM99 553Q99 517 126 487T191 456Q233 456 258 486T284 553Q284 589 256 616T191 643Q153 643 126 617T99 553ZM339 76T339 137T384 242T489 287Q550 287 596 243T642 137T596
32T489 -13Q429 -13 384 31ZM398 139Q398 103 425 73T490 42Q532 42 557 72T583 139Q583 175 555 202T490 229Q452 229 425 203T398 139ZM697 76T697 137T742 242T847 287Q908 287 954 243T1000 137T954 32T847 -13Q787 -13 742 31ZM756 139Q756 103 783 73T848
42Q890 42 915 72T941 139Q941 175 913 202T848 229Q810 229 783 203T756 139Z" />
<glyph unicode="&#x2039;" glyph-name="guilsinglleft" horiz-adv-x="363" d="M47 267L48 277Q75 286 112 304T204 361T290 444H296Q301 429 301 411Q301 376 263 329T183 262V257Q223 238 262 190T301 107L296 74H290Q262 119 218 151T137 198T74 229T47 267Z" />
<glyph unicode="&#x203a;" glyph-name="guilsinglright" horiz-adv-x="363" d="M63 107Q63 142 102 190T181 257V262Q140 282 102 329T63 411L68 444H74Q104 401 159 362T252 304T316 277Q317 271 317 267Q317 247 290 230T227 198T147 152T74 74H68Q63 88 63 107Z" />
<glyph unicode="&#x2044;" glyph-name="fraction" horiz-adv-x="275" d="M28 -144Q28 -137 49 -21L156 586Q169 666 169 695Q243 695 243 674Q243 669 226 578Q140 96 116 -58Q102 -143 101 -173Q28 -173 28 -144Z" />
<glyph unicode="&#x20ac;" glyph-name="Euro" horiz-adv-x="579" d="M43 352Q43 389 63 389Q77 388 98 388Q122 486 189 548T359 610Q378 610 404 607T460 596T510 574T530 540Q530 507 495 468H490Q488 472 483 478T463 499T431 527T389 549T337 559Q283 559
249 510T203 386Q269 385 400 385Q459 385 483 389Q483 382 480 370T463 343T427 328Q416 328 197 331V316Q197 286 200 259Q250 258 356 258Q414 258 440 262Q440 255 434 242T409 215T364 200Q313 200 213 202Q234 134 281 99T389 63Q464 63 537 114L541 110Q521
51 464 18T336 -15Q227 -15 165 56Q114 113 96 202Q80 202 48 200Q45 210 45 225Q45 262 65 262Q74 262 88 261Q87 271 87 290Q87 316 89 330Q59 328 46 328Q43 337 43 352Z" />
<glyph unicode="&#x2122;" glyph-name="trademark" horiz-adv-x="865" d="M12 675Q12 700 32 700H272Q299 700 338 706Q342 687 342 673Q342 652 323 652H218Q216 578 216 527Q216 385 226 306Q188 299 181 299Q137 299 137 341Q137 371 138 429T139 512Q139 605
135 652H85Q55 652 13 646Q12 665 12 675ZM410 698Q433 705 452 705Q491 705 500 691L548 608Q607 508 615 485Q622 499 644 541T676 602L713 673Q731 705 761 705Q783 705 801 701Q801 690 801 659T800 612V527Q800 386 810 306L790 302Q780 299 766 299Q724 299
724 341V541Q724 578 726 595L722 597Q706 560 666 482T617 375H602Q589 375 586 379Q563 433 502 537L468 595L464 593Q468 566 470 484Q472 388 472 341Q472 315 468 307T444 299Q438 299 431 301T418 306L413 308Q422 325 422 462Q422 557 419 638Q418 659 416
674T412 694L410 698Z" />
<glyph unicode="&#x2126;" glyph-name="uni2126" horiz-adv-x="814" d="M50 358Q50 378 85 378Q167 378 323 371L324 374L187 448Q88 501 85 502Q96 545 117 545Q129 545 163 524Q191 507 345 409L347 411L265 545Q255 562 241 584T218 621T204 643Q231 666 245
666Q254 666 259 660T280 624L383 432L386 433L381 590Q380 609 380 635T379 679T377 705Q393 708 411 708Q434 708 434 685V651Q434 613 427 433H430L504 570Q513 586 526 610T547 649T559 673Q573 667 589 658Q602 651 602 641Q602 634 581 597Q577 590 525 505T467
411L469 409L601 492Q617 502 640 516T677 539T700 554Q723 525 723 512Q723 504 707 493T627 447L489 373L490 370Q754 379 762 380Q764 370 764 353Q764 332 755 328T712 323Q708 323 490 329L489 325L627 253Q726 200 729 199Q714 155 697 155Q687 155 601 208L468
290L466 288L549 156Q559 140 573 117T595 80T610 58Q582 34 568 34Q558 34 551 47L534 76Q520 98 504 130L430 267L427 266L433 111Q434 92 434 66T435 22T437 -4Q421 -7 403 -7Q380 -7 380 16V49Q380 87 381 111L386 266L383 267L310 131Q301 115 288 91T267
52T255 28Q241 34 225 43Q212 50 212 60Q212 69 233 103Q239 113 347 288L345 290L213 209Q197 199 174 185T137 162T114 147Q91 173 91 189Q91 200 105 209T187 254L324 327L323 330L168 325Q149 324 122 324T79 323T52 321Q50 337 50 358Z" />
<glyph unicode="&#x2202;" glyph-name="partialdiff" horiz-adv-x="750" d="M50 510L51 513Q55 512 57 512Q87 512 129 554Q215 640 266 640Q302 640 320 611T341 544T348 462T363 397Q376 422 407 448T462 494T485 533T462 561T412 577T362 601T339 654Q339 665
351 712H355Q364 691 401 675T478 650T549 616T581 557Q581 524 548 495T470 437T411 384H413Q444 384 498 363T569 342Q583 342 592 350T602 374Q602 386 594 420T585 472Q585 508 609 525T677 551L678 547Q668 536 668 512Q668 487 681 435T694 354Q694 319 676
293T623 266Q591 266 522 300T423 335Q439 313 445 267T460 190T492 158Q506 158 527 178T573 218T622 239Q644 239 659 228T700 188L699 185H692Q671 185 644 165T595 122T543 78T483 58Q448 58 430 87T409 154T402 236T387 301Q371 272 318 230T265 165Q265 147
288 137T338 121T388 97T411 45Q411 34 398 -13H395Q388 5 362 18T304 40T241 60T190 92T169 141Q169 174 202 203T280 261T339 314H336Q304 314 250 335T180 357Q167 357 157 348T147 325Q147 312 156 278T165 226Q165 200 150 183T118 160T73 148L72 151Q82 164
82 187Q82 211 69 263T56 345Q56 381 72 406T126 432Q157 432 226 398T327 363Q312 387 306 427T293 497T270 536Q262 540 257 540Q243 540 222 520T177 480T128 460Q110 460 93 470Q83 475 50 510Z" />
<glyph unicode="&#x2206;" glyph-name="uni2206" horiz-adv-x="838" d="M50 348Q50 409 70 464Q130 366 236 303Q161 233 84 196Q50 267 50 348ZM114 554Q208 690 360 714Q293 611 291 469Q218 492 114 554ZM143 108Q250 114 356 166Q373 94 373 10V-16Q241 -1
143 108ZM198 413Q198 436 211 459Q223 460 233 460Q279 460 322 432T381 360L377 356Q311 382 248 382Q247 382 207 378Q198 391 198 413ZM206 227Q220 268 263 298T352 328Q368 328 376 325L378 320Q299 259 274 184Q230 184 206 227ZM342 532Q363 569 414 569Q446
531 446 471Q446 407 412 373L408 374Q401 424 382 467T342 532ZM371 144T371 205T403 305L408 303Q416 254 435 211T475 145Q454 108 403 108Q371 144 371 205ZM436 318L440 320Q504 295 568 295Q590 295 610 299Q619 279 619 264Q619 241 605 218Q594 217 584
217Q537 217 494 245T436 318ZM440 352V356Q478 387 505 425T543 493Q585 493 611 450Q597 409 554 379T465 349Q448 349 440 352ZM448 670Q448 700 449 718Q528 711 597 671T712 569H699Q593 569 465 503Q448 588 448 670ZM474 -15Q521 79 530 208Q618 176 705
121Q614 9 474 -15ZM585 371Q653 439 758 493Q788 422 788 348Q788 273 755 201Q700 299 585 371Z" />
<glyph unicode="&#x220f;" glyph-name="product" horiz-adv-x="554" d="M42 599Q47 615 58 635Q74 660 84 660H86L88 659Q120 638 147 622Q200 593 219 585Q217 582 213 570T205 552Q192 529 178 529Q171 529 168 531Q146 545 130 554Q69 589 42 599ZM49 411Q49
416 54 421Q88 438 115 454Q166 484 183 498Q184 496 192 486T205 469Q214 453 214 444Q214 434 205 426L166 405Q107 371 83 351Q72 362 60 383Q49 403 49 411ZM236 758Q250 762 275 762Q309 760 311 748Q309 710 309 679Q309 630 313 598Q281 594 277 594H271Q244
594 240 615Q241 641 241 659Q241 731 236 758ZM241 423Q273 427 277 427H282Q310 427 314 406Q313 380 313 362Q313 290 318 263Q304 259 279 259Q245 261 243 273Q245 311 245 342Q245 391 241 423ZM335 436Q337 439 341 450T349 469Q361 492 376 492Q378 492
386 490Q408 476 424 467Q485 432 512 422Q507 406 496 386Q480 361 470 361Q467 361 466 362Q434 383 407 399Q354 428 335 436ZM340 577Q340 587 349 595L388 616Q447 650 471 670Q482 659 494 638Q504 620 504 610Q504 603 500 600Q466 583 439 567Q388 537
371 523Q370 525 362 535T349 552Q340 566 340 577Z" />
<glyph unicode="&#x2211;" glyph-name="summation" horiz-adv-x="832" d="M50 387Q90 441 137 441Q176 441 212 401Q206 419 202 442T195 480T185 511T161 538T118 559V565Q151 579 178 579Q216 579 235 558T265 496Q268 513 283 551T298 611Q298 629 291 643T262
681L265 684Q312 679 338 657T365 599Q365 581 359 553Q368 564 394 585T437 626T453 671Q453 683 448 713L454 716Q507 675 507 628Q507 596 467 554Q485 560 508 564T546 570T576 580T603 604T624 649L632 648Q644 618 644 590Q644 520 560 501Q577 498 615 484T677
469Q695 469 709 476T747 505L751 501Q746 456 724 429T667 402Q638 402 617 407Q629 398 650 372T691 329T738 313Q751 313 779 318L782 314Q741 259 694 259Q661 259 619 299Q626 279 631 249T641 203T662 170T714 142V136Q681 122 654 122Q590 122 566 204Q563
187 549 150T534 90Q534 72 541 58T570 20L567 16Q520 21 494 44T467 102Q467 120 473 148Q464 137 437 117T394 76T378 30Q378 15 384 -12L378 -15Q325 26 325 73Q325 109 364 146Q343 138 313 134T267 126T236 104T208 52L200 53Q187 86 187 111Q187 148 208
168T271 200Q253 203 216 217T155 232Q137 232 123 225T85 196L81 200Q86 245 108 272T165 299Q190 299 215 293Q203 302 183 328T142 371T95 387Q83 387 53 382L50 387ZM267 340Q294 320 318 320Q333 320 360 326L361 319Q328 277 290 268Q304 266 309 266Q328
267 341 274T380 301L384 296Q376 241 347 215Q372 224 385 242T408 290L415 287Q428 254 428 224Q428 211 425 199Q446 225 446 253Q446 257 440 295L448 296Q489 263 498 224Q500 238 500 244Q500 262 493 275T466 314L470 318Q525 312 550 282Q537 326 477 342L479
349Q515 363 542 363Q554 363 565 360Q540 380 514 380Q502 380 472 375L471 382Q504 424 542 432Q532 435 523 435Q504 434 491 427T452 400L448 404Q454 456 484 485Q458 475 447 459T424 411L417 414Q403 448 403 475Q403 491 407 502Q386 475 386 449Q386 433
392 406L384 405Q341 440 334 476Q332 468 332 457Q332 439 339 426T366 387L362 383Q308 387 281 418Q292 393 306 382T355 359L353 352Q317 337 290 337Q278 337 267 340Z" />
<glyph unicode="&#x2212;" glyph-name="minus" horiz-adv-x="458" d="M50 294Q50 337 73 337Q136 332 207 332H295Q376 332 404 337Q408 317 408 292Q408 260 394 260Q333 263 261 264H169Q81 264 53 260Q50 276 50 294Z" />
<glyph unicode="&#x221a;" glyph-name="radical" horiz-adv-x="840" d="M50 343Q50 499 155 606T422 714Q578 714 684 610T790 355Q790 199 685 92T418 -16Q262 -16 156 88T50 343ZM111 346Q111 214 200 126T422 37Q549 37 639 126T729 352Q729 484 640 572T420
661Q292 661 202 572T111 346ZM190 430Q190 456 205 480Q217 482 229 482Q280 482 327 451T390 372L386 368Q316 396 244 396Q224 396 200 392Q190 409 190 430ZM199 228Q215 273 262 305T359 337Q376 337 385 335L387 329Q344 296 314 255T273 180Q226 180 199
228ZM347 561Q372 601 426 601Q462 557 462 494Q462 427 425 386L420 388Q412 442 391 488T347 561ZM378 204Q378 271 415 312L420 310Q428 256 449 210T493 137Q468 97 414 97Q378 139 378 204ZM450 326L454 329Q522 302 595 302Q624 302 640 306Q650 286 650
268Q650 245 635 218Q623 216 611 216Q560 216 513 247T450 326ZM454 368Q497 402 526 443T567 518Q614 518 641 470Q625 425 578 393T481 360Q467 360 455 363L454 368Z" />
<glyph unicode="&#x221e;" glyph-name="infinity" horiz-adv-x="898" d="M50 390Q95 450 145 450Q166 450 186 439Q216 422 249 382T302 329Q320 318 342 318Q358 318 387 324L389 317Q345 259 295 259Q274 259 253 271Q224 288 192 328T138 380Q119 391 98 391Q82
391 53 385L50 390ZM199 92Q199 143 241 167Q271 184 322 192T394 212Q411 222 420 236T441 284L448 282Q463 246 463 217Q463 165 420 141Q391 124 341 117T268 96Q250 86 241 72T221 25H215Q199 63 199 92ZM281 711L284 716Q335 710 364 686T394 623Q394 589
376 540T357 467Q357 448 365 433T395 391L390 386Q339 392 311 416T282 480Q282 514 300 562T319 635Q319 655 311 670T281 711ZM435 484Q435 536 478 560Q507 577 557 584T630 605Q648 615 657 629T677 676H683Q698 640 698 609Q698 557 657 534Q627 517 576
509T504 489Q487 479 478 465T457 417L450 419Q435 454 435 484ZM503 310L508 315Q559 309 587 285T616 221Q616 187 598 139T579 66Q579 46 587 31T617 -10L614 -15Q563 -9 534 15T504 78Q504 112 522 161T541 234Q541 253 533 268T503 310ZM509 384Q553 442 602
442Q624 442 645 430Q674 413 706 373T760 321Q778 310 800 310Q816 310 845 316L848 311Q803 251 752 251Q730 251 712 262Q682 279 649 319T596 372Q577 382 556 382Q543 382 511 377L509 384Z" />
<glyph unicode="&#x222b;" glyph-name="integral'" horiz-adv-x="865" d="M50 302V303Q70 340 145 366Q175 372 202 372Q232 372 251 360L250 356Q224 347 196 330T153 300T118 268L99 249Q82 253 68 269Q50 290 50 302ZM144 454Q144 489 159 515Q174 518 192
518Q254 518 319 479Q414 425 423 366L418 361Q329 408 206 408Q193 408 176 407T155 406Q144 425 144 454ZM154 196Q170 258 263 317Q336 356 382 356Q396 356 416 350V343Q316 282 246 137Q188 140 154 196ZM175 604Q175 635 201 659H203Q250 659 301 608Q350
556 350 517V513L344 512Q330 525 313 536T280 554T247 568T219 578T194 585T177 589Q175 597 175 604ZM269 50Q269 75 276 108Q297 180 333 197L338 195Q331 170 331 140Q331 97 355 11Q335 -9 303 -9Q292 -9 282 -6Q269 15 269 50ZM341 619Q354 641 382 657Q405
669 438 669Q487 624 487 514Q487 405 440 367L435 369Q430 488 341 619ZM378 187Q378 295 425 336L430 332Q435 213 524 82Q508 56 483 46Q457 32 427 32Q378 80 378 187ZM442 337L447 340Q535 293 659 293Q690 293 710 295Q721 276 721 246Q721 213 706 186Q691
183 673 183Q611 183 546 222Q502 247 474 277T442 337ZM449 351V358Q549 420 619 564Q646 563 672 546Q692 534 711 505Q694 441 602 386Q534 347 483 347Q462 347 449 351ZM510 690Q531 709 561 709Q573 709 583 707Q597 682 597 650Q597 627 588 593Q568 520
532 504L527 506Q533 528 533 561Q533 621 510 690ZM515 184V188L520 191Q578 138 688 114Q690 102 690 97Q690 67 665 42H662Q617 42 564 95Q515 144 515 184ZM614 341L615 347Q631 352 646 359T675 375T700 393T723 412T741 429T756 444T766 454Q787 445 797
434Q814 415 815 398Q798 368 752 349T663 329Q633 329 614 341Z" />
<glyph unicode="&#x2248;" glyph-name="approxequal" horiz-adv-x="458" d="M47 155Q55 210 88 243T169 277Q202 277 249 254T319 230Q367 230 421 279L425 276Q417 221 384 188T303 154Q269 154 222 177T153 201Q105 201 51 152L47 155ZM47 308Q55 363 88 396T169
430Q202 430 249 407T319 383Q367 383 421 432L425 429Q417 374 384 341T303 307Q269 307 222 330T153 354Q105 354 51 305L47 308Z" />
<glyph unicode="&#x2260;" glyph-name="notequal" horiz-adv-x="518" d="M80 219Q80 262 103 262Q147 258 201 257Q236 306 262 345H199Q111 345 83 341Q80 357 80 375Q80 418 103 418Q166 413 237 413H308L327 441Q367 501 382 535Q422 515 422 501Q422 495 365
414L364 413Q413 415 434 418Q438 398 438 373Q438 341 424 341Q377 343 317 344L257 257H325Q406 257 434 262Q438 242 438 217Q438 185 424 185Q363 188 291 189H211L194 164Q142 85 133 66Q99 83 99 104Q99 110 116 134L153 189Q98 187 83 185Q80 201 80 219Z"
/>
<glyph unicode="&#x2264;" glyph-name="lessequal" horiz-adv-x="458" d="M45 308Q45 320 55 326Q321 468 359 500Q394 463 394 440Q394 436 378 425T331 396T272 364T204 328T145 297V292Q184 267 250 233T356 176T397 148Q397 137 389 121T371 94L362 84Q319
120 76 249Q64 255 55 273T45 308ZM50 -53Q50 -10 73 -10Q197 -15 295 -15Q376 -15 404 -10Q408 -30 408 -55Q408 -87 394 -87Q270 -83 169 -83Q81 -83 53 -87Q50 -71 50 -53Z" />
<glyph unicode="&#x2265;" glyph-name="greaterequal" horiz-adv-x="458" d="M55 -53Q55 -10 78 -10Q202 -15 300 -15Q381 -15 409 -10Q413 -30 413 -55Q413 -87 399 -87Q275 -83 174 -83Q86 -83 58 -87Q55 -71 55 -53ZM61 148Q61 154 101 176T208 232T313 292V297Q294
307 255 328T187 364T128 396T81 424T64 440Q64 450 73 465T90 490L99 500Q137 468 403 326Q413 320 413 308Q413 291 404 273T382 249Q139 120 96 84Q61 123 61 148Z" />
<glyph unicode="&#x25ca;" glyph-name="lozenge" horiz-adv-x="745" d="M50 199Q50 234 88 281T168 348V353Q128 372 89 420T50 503Q50 539 80 554Q100 565 133 565Q167 565 205 554T267 527L272 529Q271 536 271 540Q271 585 293 637T343 706Q358 715 372 715Q386
715 402 706Q430 689 451 638T472 542V530L476 527Q500 543 538 554T611 565Q647 565 665 554Q682 544 688 534T695 503Q695 468 657 421T577 354V349Q617 330 656 282T695 199Q695 179 689 169T665 148Q647 137 612 137Q533 137 478 175L473 173V161Q473 117 452
65T402 -4Q384 -14 372 -14Q357 -14 343 -4Q315 12 294 63T272 160Q272 162 272 166T273 172L269 175Q216 137 134 137Q100 137 80 148Q50 165 50 199ZM67 174Q125 178 179 208T271 265T329 292Q338 292 345 288L353 282Q344 231 344 171Q344 69 373 -1Q401 58
401 131Q401 155 398 194T394 246Q394 285 413 296L423 300Q460 268 532 226T677 175Q654 209 621 235T557 276T500 303T457 329T441 359L442 369Q487 384 560 426T678 527Q632 524 588 505T516 465T461 426T416 409Q408 409 400 414L392 420Q400 465 400 531Q400
636 372 703Q343 645 343 570Q343 545 347 506T351 454Q351 417 332 406L322 402Q284 435 212 476T67 527Q95 486 139 455T218 411T278 380T304 343L303 333Q277 324 242 307T152 252T67 174Z" />
<glyph unicode="&#xfb00;" glyph-name="uniFB00" horiz-adv-x="676" d="M12 -217Q47 -203 64 -175T92 -51T103 233Q103 362 95 399T57 448L31 458V500Q66 500 82 512T99 560Q99 642 144 698T282 755Q301 755 318 750T345 736T364 720T376 706L379 700L375 695Q349
702 331 702Q279 702 244 671T209 574V547L206 500H278Q296 500 309 502T328 508L332 510Q333 504 333 483Q333 453 320 443T277 432Q273 432 244 432T210 433Q206 381 206 320Q206 274 207 161T209 -30Q209 -122 162 -176T47 -231Q27 -231 12 -222V-217ZM351 -217Q386
-203 403 -175T431 -51T442 233Q442 362 434 399T396 448L370 458V500Q405 500 421 512T438 560Q438 670 492 725T639 780Q713 780 758 748T804 664L799 661Q767 713 675 713Q625 713 587 681T548 574V547L545 500H617Q635 500 648 502T666 508L671 510Q672 504
672 483Q672 453 659 443T616 432Q612 432 583 432T549 433Q545 381 545 320Q545 274 546 161T548 -30Q548 -122 501 -176T386 -231Q366 -231 351 -222V-217Z" />
<glyph unicode="&#xfb01;" glyph-name="uniFB01" horiz-adv-x="627" d="M13 -217Q48 -203 65 -175T93 -51T104 233Q104 362 96 399T58 448L32 458V500Q67 500 83 512T100 560Q100 670 154 725T301 780Q375 780 420 748T466 664L461 661Q429 713 337 713Q287 713
249 681T210 574V547L207 500H279Q297 500 310 502T328 508L333 510Q334 504 334 483Q334 453 321 443T278 432Q274 432 245 432T211 433Q207 381 207 320Q207 274 208 161T210 -30Q210 -122 163 -176T48 -231Q28 -231 13 -222V-217ZM397 501Q428 510 446 510Q481
510 506 493T531 446Q531 389 529 284T526 146Q526 123 527 110T532 78T548 50T576 41Q585 41 594 44T609 52L614 55L618 52Q617 49 615 45T604 31T584 12T552 -3T507 -10Q470 -10 444 9T417 71Q417 100 419 157T421 242Q421 344 415 408T404 487T397 501Z" />
<glyph unicode="&#xfb02;" glyph-name="uniFB02" horiz-adv-x="626" d="M13 -217Q48 -203 65 -175T93 -51T104 233Q104 362 96 399T58 448L32 458V500Q67 500 83 512T100 560Q100 670 154 725T301 780Q359 780 399 760L400 761Q460 760 494 745T529 687Q529 637
527 533T525 375Q525 224 529 107Q531 41 574 41Q583 41 592 44T607 52L612 55L616 52Q615 49 613 45T602 31T582 12T550 -3T505 -10Q467 -10 441 10T415 77Q415 114 417 224T420 397Q420 538 415 645Q414 672 410 700Q377 713 337 713Q287 713 249 681T210 574V547L207
500H279Q297 500 310 502T328 508L333 510Q334 504 334 483Q334 453 321 443T278 432Q274 432 245 432T211 433Q207 381 207 320Q207 274 208 161T210 -30Q210 -122 163 -176T48 -231Q28 -231 13 -222V-217Z" />
<glyph unicode="&#xfb03;" glyph-name="uniFB03" horiz-adv-x="965" d="M13 -217Q48 -203 65 -175T93 -51T104 233Q104 362 96 399T58 448L32 458V500Q67 500 83 512T100 560Q100 642 145 698T283 755Q302 755 319 750T346 736T365 720T376 706L380 700L376 695Q350
702 332 702Q280 702 245 671T210 574V547L207 500H279Q297 500 310 502T328 508L333 510Q334 504 334 483Q334 453 321 443T278 432Q274 432 245 432T211 433Q207 381 207 320Q207 274 208 161T210 -30Q210 -122 163 -176T48 -231Q28 -231 13 -222V-217ZM351 -217Q386
-203 403 -175T431 -51T442 233Q442 362 434 399T396 448L370 458V500Q405 500 421 512T438 560Q438 670 492 725T639 780Q713 780 758 748T804 664L799 661Q767 713 675 713Q625 713 587 681T548 574V547L545 500H617Q635 500 648 502T666 508L671 510Q672 504
672 483Q672 453 659 443T616 432Q612 432 583 432T549 433Q545 381 545 320Q545 274 546 161T548 -30Q548 -122 501 -176T386 -231Q366 -231 351 -222V-217ZM735 501Q766 510 784 510Q819 510 844 493T869 446Q869 389 867 284T864 146Q864 123 865 110T870 78T886
50T914 41Q923 41 932 44T947 52L952 55L956 52Q955 49 953 45T942 31T922 12T890 -3T845 -10Q808 -10 782 9T755 71Q755 100 757 157T759 242Q759 344 753 408T742 487T735 501Z" />
<glyph unicode="&#xfb04;" glyph-name="uniFB04" horiz-adv-x="964" d="M13 -217Q48 -203 65 -175T93 -51T104 233Q104 362 96 399T58 448L32 458V500Q67 500 83 512T100 560Q100 642 145 698T283 755Q302 755 319 750T346 736T365 720T376 706L380 700L376 695Q350
702 332 702Q280 702 245 671T210 574V547L207 500H279Q297 500 310 502T328 508L333 510Q334 504 334 483Q334 453 321 443T278 432Q274 432 245 432T211 433Q207 381 207 320Q207 274 208 161T210 -30Q210 -122 163 -176T48 -231Q28 -231 13 -222V-217ZM351 -217Q386
-203 403 -175T431 -51T442 233Q442 362 434 399T396 448L370 458V500Q405 500 421 512T438 560Q438 670 492 725T639 780Q697 780 737 760L738 761Q798 760 832 745T867 687Q867 637 865 533T863 375Q863 224 867 107Q869 41 912 41Q921 41 930 44T945 52L950
55L954 52Q953 49 951 45T940 31T920 12T888 -3T843 -10Q805 -10 779 10T753 77Q753 114 755 224T758 397Q758 538 753 645Q752 672 748 700Q715 713 675 713Q625 713 587 681T548 574V547L545 500H617Q635 500 648 502T666 508L671 510Q672 504 672 483Q672 453
659 443T616 432Q612 432 583 432T549 433Q545 381 545 320Q545 274 546 161T548 -30Q548 -122 501 -176T386 -231Q366 -231 351 -222V-217Z" />
</font>
</defs>
</svg>
